<svg width="400" height="403" viewBox="0 0 417 403" fill="none" xmlns="http://www.w3.org/2000/svg" id="any">
<g id="Group 1">
<path id="Vector" d="M277.373 368.747L276.854 367.606C277.622 366.84 278.384 366.064 279.141 365.276L279.676 366.401C278.914 367.194 278.147 367.976 277.373 368.747Z" fill="#CCCCCC"/>
<path id="Vector_2" d="M202.405 403L202.399 401.625C204.277 401.605 206.177 401.527 208.044 401.393L208.088 402.767C206.209 402.902 204.297 402.98 202.405 403ZM196.72 402.888C194.834 402.793 192.924 402.639 191.044 402.429L191.114 401.058C192.981 401.266 194.878 401.419 196.752 401.513L196.72 402.888ZM213.759 402.188L213.676 400.818C215.54 400.57 217.428 400.261 219.286 399.897L219.408 401.261C217.537 401.627 215.636 401.939 213.759 402.188V402.188ZM185.385 401.623C183.506 401.297 181.612 400.909 179.753 400.468L179.9 399.11C181.746 399.547 183.628 399.933 185.493 400.257L185.385 401.623ZM225.026 399.985L224.866 398.63C226.71 398.153 228.574 397.611 230.406 397.018L230.604 398.362C228.76 398.959 226.883 399.505 225.026 399.985V399.985ZM174.159 398.966C172.31 398.41 170.444 397.788 168.612 397.117L168.835 395.782C170.654 396.448 172.508 397.066 174.344 397.618L174.159 398.966ZM236.131 396.394L235.895 395.064C237.707 394.358 239.533 393.586 241.323 392.769L241.597 394.083C239.795 394.906 237.956 395.684 236.131 396.394V396.394ZM163.11 394.919C161.297 394.134 159.469 393.28 157.677 392.381L157.976 391.078C159.756 391.971 161.571 392.819 163.371 393.599L163.11 394.919ZM246.993 391.434L246.682 390.138C248.448 389.21 250.224 388.213 251.962 387.176L252.309 388.451C250.56 389.496 248.771 390.499 246.993 391.434V391.434ZM152.322 389.505C150.558 388.495 148.786 387.417 147.056 386.3L147.427 385.039C149.146 386.148 150.905 387.219 152.658 388.223L152.322 389.505ZM257.536 385.14L257.153 383.887C258.862 382.741 260.575 381.527 262.246 380.279L262.665 381.507C260.982 382.764 259.257 383.986 257.536 385.14V385.14ZM141.886 382.77C140.187 381.546 138.484 380.252 136.821 378.923L137.263 377.713C138.914 379.032 140.606 380.318 142.292 381.534L141.886 382.77ZM267.686 377.559L267.233 376.358C268.87 375.005 270.509 373.583 272.105 372.131L272.591 373.303C270.984 374.764 269.334 376.196 267.686 377.559ZM131.871 374.766C130.25 373.337 128.626 371.837 127.044 370.306L127.552 369.155C129.124 370.675 130.737 372.165 132.346 373.584L131.871 374.766ZM122.347 365.554C120.813 363.931 119.279 362.236 117.789 360.517L118.36 359.432C119.84 361.14 121.363 362.823 122.887 364.435L122.347 365.554ZM113.377 355.204C111.936 353.395 110.503 351.517 109.118 349.625L109.748 348.614C111.124 350.494 112.547 352.358 113.978 354.155L113.377 355.204ZM105.02 343.79C103.687 341.812 102.365 339.766 101.09 337.71L101.775 336.779C103.041 338.822 104.354 340.854 105.678 342.819L105.02 343.79ZM97.334 331.394C96.1187 329.262 94.916 327.062 93.7592 324.854L94.4935 324.011C95.6425 326.204 96.8371 328.39 98.0441 330.507L97.334 331.394ZM90.3716 318.099C89.279 315.824 88.2043 313.484 87.1772 311.144L87.9565 310.395C88.9765 312.719 90.0439 315.043 91.129 317.303L90.3716 318.099ZM84.1821 303.999C83.2215 301.597 82.2826 299.134 81.3915 296.677L82.2103 296.026C83.0953 298.466 84.0277 300.913 84.9818 303.298L84.1821 303.999ZM78.8109 289.189C77.9899 286.679 77.1938 284.109 76.4448 281.55L77.2974 281.004C78.0413 283.545 78.8319 286.097 79.6473 288.59L78.8109 289.189ZM74.2978 273.774C73.6212 271.168 72.9733 268.507 72.3719 265.865L73.2525 265.425C73.8498 268.05 74.4933 270.692 75.1652 273.28L74.2978 273.774Z" fill="#F2E083"/>
<path id="Vector_3" d="M70.6565 257.761C70.3969 256.437 70.1464 255.108 69.9048 253.773L70.8024 253.417C71.0422 254.743 71.291 256.063 71.5489 257.378L70.6565 257.761Z" fill="#CCCCCC"/>
<path id="Vector_4" d="M335.781 179.075C335.678 177.71 335.566 176.35 335.444 174.993L336.366 174.813C336.488 176.178 336.601 177.548 336.704 178.922L335.781 179.075Z" fill="#CCCCCC"/>
<path id="Vector_5" d="M323.757 289.983L322.923 289.378C323.721 286.964 324.497 284.492 325.229 282.03L326.079 282.585C325.342 285.063 324.561 287.552 323.757 289.983ZM328.196 275.052L327.331 274.549C327.994 272.047 328.631 269.49 329.225 266.949L330.103 267.398C329.505 269.957 328.863 272.532 328.196 275.052ZM331.798 259.636L330.908 259.24C331.432 256.662 331.927 254.036 332.378 251.435L333.278 251.777C332.823 254.396 332.326 257.04 331.798 259.636V259.636ZM334.54 243.836L333.631 243.548C334.011 240.919 334.359 238.242 334.666 235.591L335.582 235.824C335.273 238.493 334.922 241.189 334.54 243.836V243.836ZM336.404 227.756L335.483 227.579C335.717 224.917 335.918 222.206 336.079 219.523L337.005 219.645C336.842 222.347 336.64 225.076 336.404 227.756V227.756ZM337.384 211.505L336.456 211.438C336.545 208.757 336.598 206.031 336.614 203.337L337.544 203.349C337.527 206.062 337.474 208.806 337.384 211.505V211.505ZM336.555 195.232C336.499 192.543 336.406 189.821 336.277 187.142L337.204 187.045C337.333 189.742 337.427 192.483 337.484 195.19L336.555 195.232Z" fill="#F2E083"/>
<path id="Vector_6" d="M319.887 300.832L319.079 300.153C319.536 298.963 319.984 297.765 320.425 296.559L321.242 297.213C320.799 298.427 320.347 299.633 319.887 300.832Z" fill="#CCCCCC"/>
<path id="Vector_7" d="M79.2986 115.489L78.4598 114.897C78.8614 113.65 79.2713 112.41 79.6895 111.178L80.52 111.795C80.1046 113.019 79.6975 114.251 79.2986 115.489Z" fill="#CCCCCC"/>
<path id="Vector_8" d="M83.1147 104.526L82.3022 103.859C83.2032 101.456 84.1499 99.0497 85.116 96.7054L85.9092 97.422C84.9497 99.7498 84.0095 102.14 83.1147 104.526ZM317.315 98.3875C316.366 96.055 315.37 93.7168 314.354 91.438L315.13 90.6804C316.152 92.975 317.155 95.3293 318.111 97.6776L317.315 98.3875ZM88.899 90.4917L88.1263 89.7281C89.1573 87.4433 90.2344 85.1589 91.3276 82.9389L92.0785 83.7488C90.9927 85.954 89.9231 88.2227 88.899 90.4917V90.4917ZM311.203 84.6736C310.126 82.4603 309.004 80.2504 307.867 78.1053L308.598 77.2564C309.743 79.4162 310.873 81.6413 311.957 83.8697L311.203 84.6736ZM95.4416 77.205L94.7137 76.35C95.8678 74.1972 97.0673 72.0514 98.2787 69.9721L98.9823 70.8707C97.7791 72.9357 96.5879 75.0667 95.4416 77.205V77.205ZM304.352 71.7435C303.156 69.6659 301.915 67.5983 300.664 65.5986L301.346 64.6644C302.605 66.6779 303.855 68.7592 305.059 70.8509L304.352 71.7435ZM102.695 64.7558L102.016 63.8156C103.284 61.8119 104.597 59.8182 105.92 57.8907L106.572 58.8706C105.258 60.7853 103.954 62.7655 102.695 64.7558ZM296.81 59.6815C295.504 57.7574 294.154 55.8463 292.795 54.0014L293.423 52.988C294.791 54.8456 296.151 56.7698 297.466 58.707L296.81 59.6815ZM110.609 53.2254L109.984 52.2066C111.358 50.3624 112.777 48.5343 114.201 46.7733L114.797 47.8291C113.382 49.5779 111.973 51.3936 110.609 53.2254ZM288.627 48.5685C287.218 46.8072 285.767 45.0654 284.312 43.3914L284.882 42.3055C286.347 43.9908 287.809 45.7448 289.227 47.5181L288.627 48.5685ZM119.13 42.6906L118.564 41.5999C120.035 39.9283 121.549 38.2782 123.066 36.6952L123.602 37.8195C122.095 39.3917 120.591 41.0307 119.13 42.6906V42.6906ZM279.856 38.4793C278.355 36.894 276.812 35.3335 275.269 33.8412L275.777 32.6897C277.33 34.1925 278.885 35.7634 280.396 37.3598L279.856 38.4793ZM128.203 33.2237L127.7 32.0678C129.258 30.5799 130.858 29.1191 132.457 27.7262L132.928 28.9116C131.34 30.2951 129.751 31.7457 128.203 33.2237ZM270.556 29.4855C268.973 28.0886 267.348 26.7205 265.725 25.4196L266.168 24.2101C267.802 25.52 269.438 26.8975 271.032 28.3042L270.556 29.4855ZM137.768 24.8901L137.33 23.6771C138.967 22.3823 140.643 21.1213 142.311 19.9292L142.715 21.1677C141.058 22.3517 139.394 23.6042 137.768 24.89V24.8901ZM260.786 21.6509C259.125 20.448 257.429 19.2828 255.744 18.1874L256.118 16.9281C257.814 18.0309 259.522 19.2042 261.194 20.4158L260.786 21.6509ZM147.761 17.7512L147.391 16.4886C149.092 15.3996 150.832 14.3475 152.563 13.3619L152.896 14.646C151.177 15.6246 149.449 16.6692 147.761 17.7512V17.7512ZM250.61 15.0346C248.892 14.0413 247.136 13.0869 245.391 12.1987L245.693 10.8978C247.45 11.7924 249.219 12.7531 250.948 13.7535L250.61 15.0346ZM158.114 11.8579L157.816 10.555C159.574 9.67582 161.367 8.84035 163.143 8.07169L163.404 9.39207C161.639 10.1554 159.86 10.9851 158.114 11.8579ZM240.096 9.68489C238.327 8.90449 236.523 8.16841 234.734 7.49747L234.963 6.16433C236.764 6.83997 238.58 7.58075 240.361 8.36653L240.096 9.68489ZM168.757 7.25166L168.533 5.91651C170.333 5.25599 172.165 4.64248 173.978 4.09377L174.164 5.44103C172.364 5.98637 170.545 6.5955 168.757 7.25166V7.25166ZM229.315 5.64082C227.517 5.08204 225.681 4.57028 223.858 4.1193L224.011 2.76265C225.846 3.21666 227.695 3.73211 229.506 4.2949L229.315 5.64082ZM179.626 3.95979L179.478 2.6018C181.309 2.16258 183.172 1.77405 185.014 1.44698L185.125 2.81235C183.295 3.13741 181.445 3.52358 179.626 3.95979V3.95979ZM218.364 2.9319C216.539 2.59408 214.681 2.30697 212.841 2.0793L212.918 0.708549C214.771 0.937898 216.642 1.2267 218.479 1.5672L218.364 2.9319ZM190.651 2.00004L190.578 0.628618C192.426 0.41336 194.304 0.251168 196.159 0.14673L196.194 1.52118C194.352 1.62496 192.487 1.7858 190.651 2.00005V2.00004ZM207.299 1.56081C205.459 1.44461 203.591 1.38215 201.747 1.37543L201.749 -1.52588e-05C203.606 0.0067038 205.486 0.0695065 207.339 0.186701L207.299 1.56081Z" fill="#F2E083"/>
<path id="Vector_9" d="M321.412 109.199C320.984 107.983 320.548 106.774 320.104 105.572L320.919 104.912C321.366 106.122 321.805 107.339 322.236 108.564L321.412 109.199Z" fill="#CCCCCC"/>
<path id="Vector_10" d="M171.679 134.793H163.083V242.422C163.081 245.157 162.346 247.779 161.039 249.713C159.733 251.647 157.961 252.734 156.114 252.738H15.5649V262.022C15.5679 265.121 16.401 268.093 17.8816 270.284C19.3623 272.476 21.3696 273.709 23.4635 273.713H171.679C173.772 273.709 175.78 272.476 177.26 270.284C178.741 268.093 179.574 265.121 179.577 262.022V146.484C179.574 143.385 178.741 140.414 177.26 138.222C175.78 136.031 173.772 134.798 171.679 134.793Z" fill="#F2F2F2"/>
<path id="Vector_11" d="M156.114 115.193H7.89861C5.80468 115.197 3.79735 116.431 2.31672 118.622C0.836083 120.814 0.00296216 123.785 0 126.884V242.422C0.00296339 245.521 0.836091 248.492 2.31672 250.684C3.79736 252.876 5.80468 254.109 7.89861 254.113H156.114C158.208 254.109 160.215 252.876 161.696 250.684C163.176 248.492 164.009 245.521 164.012 242.422V126.884C164.009 123.785 163.176 120.814 161.696 118.622C160.215 116.431 158.208 115.197 156.114 115.193ZM163.083 242.422C163.081 245.157 162.346 247.779 161.039 249.713C159.733 251.647 157.961 252.734 156.114 252.738H7.89861C6.05091 252.734 4.27953 251.647 2.97301 249.713C1.66649 247.779 0.931496 245.157 0.929248 242.422V126.884C0.931496 124.149 1.66649 121.527 2.97301 119.594C4.27953 117.66 6.05091 116.572 7.89861 116.568H156.114C157.961 116.572 159.733 117.66 161.039 119.594C162.346 121.527 163.081 124.149 163.083 126.884V242.422Z" fill="#3F3D56"/>
<path id="Vector_12" d="M144.935 200.471H92.8974C91.9116 200.471 90.9661 199.891 90.2691 198.859C89.572 197.828 89.1804 196.428 89.1804 194.969C89.1804 193.51 89.572 192.11 90.2691 191.079C90.9661 190.047 91.9116 189.467 92.8974 189.467H144.935C145.921 189.467 146.867 190.047 147.564 191.079C148.261 192.11 148.652 193.51 148.652 194.969C148.652 196.428 148.261 197.828 147.564 198.859C146.867 199.891 145.921 200.471 144.935 200.471Z" fill="#CCCCCC"/>
<path id="Vector_13" d="M112.412 177.088H92.8974C91.9116 177.088 90.9661 176.509 90.2691 175.477C89.572 174.445 89.1804 173.046 89.1804 171.586C89.1804 170.127 89.572 168.728 90.2691 167.696C90.9661 166.664 91.9116 166.085 92.8974 166.085H112.412C113.397 166.085 114.343 166.664 115.04 167.696C115.737 168.728 116.129 170.127 116.129 171.586C116.129 173.046 115.737 174.445 115.04 175.477C114.343 176.509 113.397 177.088 112.412 177.088Z" fill="#CCCCCC"/>
<path id="Vector_14" d="M69.4613 227.98H22.0696C21.0226 227.978 20.0187 227.362 19.2784 226.266C18.538 225.17 18.1215 223.684 18.1203 222.134V144.421C18.1215 142.871 18.538 141.386 19.2784 140.29C20.0187 139.194 21.0226 138.577 22.0696 138.576H69.4613C70.5083 138.577 71.5122 139.194 72.2525 140.29C72.9929 141.386 73.4094 142.871 73.4106 144.421V222.134C73.4094 223.684 72.9929 225.17 72.2525 226.266C71.5122 227.362 70.5083 227.978 69.4613 227.98V227.98Z" fill="#71A4A7"/>
<path id="Vector_15" d="M46.4827 211.793C45.4377 211.75 44.1371 211.695 43.1358 210.613C42.8375 210.277 42.5924 209.849 42.4177 209.358C42.243 208.867 42.1429 208.326 42.1244 207.772C42.1063 207.378 42.1499 206.984 42.2519 206.619C42.3539 206.254 42.5115 205.93 42.7124 205.67C43.0108 205.34 43.3604 205.126 43.729 205.048C44.0977 204.969 44.4738 205.029 44.823 205.22L43.9699 195.992L44.5962 195.865L45.5991 206.714L45.0762 206.359C44.4699 205.947 43.6376 205.738 43.1204 206.385C42.9934 206.554 42.8945 206.764 42.8313 206.999C42.7681 207.233 42.7424 207.487 42.7561 207.739C42.7714 208.151 42.8466 208.554 42.9764 208.919C43.1063 209.285 43.2878 209.605 43.5087 209.857C44.2879 210.7 45.3246 210.809 46.5004 210.858L46.4827 211.793Z" fill="#3F3D56"/>
<path id="Vector_16" d="M40.8729 196.788H37.4685V197.724H40.8729V196.788Z" fill="#3F3D56"/>
<path id="Vector_17" d="M51.6187 196.788H48.2142V197.724H51.6187V196.788Z" fill="#3F3D56"/>
<path id="Vector_18" d="M31.5538 183.868C28.8123 183.405 26.6891 179.517 26.4558 175.573C26.1784 170.879 28.0249 166.422 30.5582 163.788C33.2074 161.034 36.5081 159.884 39.7016 159.631C45.9314 159.172 52.0539 162.159 56.8784 168.011C59.2714 170.953 61.5063 174.7 62.3533 179.227C63.0889 183.158 62.4903 187.611 60.3544 190.364C59.826 191.039 59.2089 191.544 58.542 191.848C57.8751 192.152 57.1728 192.248 56.4796 192.13C54.8222 191.875 53.2931 190.585 51.9694 189.161C49.3946 186.39 47.2808 182.529 44.1438 181.081C41.8436 180.02 38.8588 180.954 37.4531 184.033C37.1342 184.738 36.9275 185.54 36.8487 186.381C36.8196 186.56 36.8377 186.749 36.8991 186.909C36.9606 187.069 37.0609 187.189 37.1798 187.244C37.301 187.292 37.4302 187.268 37.5394 187.176C37.6485 187.084 37.7289 186.933 37.763 186.754C38.132 182.876 41.3534 181.429 43.6139 182.314C46.9099 183.606 49.1224 187.959 51.8266 190.725C53.2264 192.27 54.8755 193.244 56.6093 193.551C58.1125 193.725 59.6044 193.047 60.7822 191.653C63.0924 188.953 63.9759 184.309 63.465 180.127C62.8735 175.285 60.6717 171.135 58.2559 167.923C53.3583 161.478 47.0001 158.001 40.4482 158.185C37.1064 158.299 33.6196 159.32 30.7406 161.935C27.9481 164.471 25.7896 168.713 25.5075 173.645C25.2592 177.986 26.8326 182.526 29.5335 184.428C30.1704 184.874 30.8532 185.159 31.5538 185.272C32.159 185.374 32.1541 183.97 31.5538 183.868V183.868Z" fill="#3F3D56"/>
<path id="Vector_19" d="M408.172 317.04H400.71V353.022C400.707 356.121 399.874 359.092 398.394 361.284C396.913 363.475 394.906 364.709 392.812 364.713H206.525V369.995C206.527 373.459 207.458 376.781 209.113 379.231C210.768 381.681 213.013 383.058 215.353 383.061H408.172C410.513 383.058 412.757 381.681 414.412 379.231C416.067 376.781 416.998 373.459 417 369.995V330.107C416.998 326.642 416.067 323.32 414.412 320.871C412.757 318.421 410.513 317.043 408.172 317.04Z" fill="#F2F2F2"/>
<path id="Vector_20" d="M392.812 300.067H199.993C197.652 300.07 195.408 301.448 193.753 303.898C192.098 306.347 191.167 309.669 191.165 313.134V353.022C191.167 356.486 192.098 359.808 193.753 362.258C195.408 364.708 197.652 366.085 199.993 366.088H392.812C395.152 366.085 397.396 364.708 399.052 362.258C400.707 359.808 401.637 356.486 401.639 353.022V313.134C401.637 309.669 400.707 306.347 399.052 303.898C397.396 301.448 395.152 300.07 392.812 300.067ZM400.71 353.022C400.707 356.121 399.874 359.092 398.394 361.284C396.913 363.475 394.906 364.709 392.812 364.713H199.993C197.899 364.709 195.891 363.475 194.411 361.284C192.93 359.092 192.097 356.121 192.094 353.022V313.134C192.097 310.034 192.93 307.063 194.411 304.871C195.891 302.68 197.899 301.447 199.993 301.442H392.812C394.906 301.447 396.913 302.68 398.394 304.871C399.874 307.063 400.707 310.034 400.71 313.134V353.022Z" fill="#3F3D56"/>
<path id="Vector_21" d="M233.832 311.072C230.891 311.072 228.017 312.363 225.572 314.781C223.127 317.199 221.221 320.636 220.096 324.658C218.97 328.679 218.676 333.104 219.25 337.373C219.823 341.642 221.239 345.563 223.319 348.641C225.398 351.719 228.047 353.815 230.931 354.664C233.816 355.513 236.805 355.077 239.522 353.412C242.238 351.746 244.561 348.925 246.194 345.306C247.828 341.687 248.7 337.432 248.7 333.08C248.695 327.245 247.128 321.651 244.34 317.525C241.553 313.4 237.774 311.079 233.832 311.072Z" fill="#71A4A7"/>
<path id="Vector_22" d="M370.124 351.648H263.725C262.74 351.648 261.794 351.068 261.097 350.037C260.4 349.005 260.008 347.605 260.008 346.146C260.008 344.687 260.4 343.288 261.097 342.256C261.794 341.224 262.74 340.645 263.725 340.645H370.124C371.11 340.645 372.055 341.224 372.753 342.256C373.45 343.288 373.841 344.687 373.841 346.146C373.841 347.605 373.45 349.005 372.753 350.037C372.055 351.068 371.11 351.648 370.124 351.648Z" fill="#CCCCCC"/>
<path id="Vector_23" d="M316.692 328.265H263.725C262.74 328.265 261.794 327.686 261.097 326.654C260.4 325.622 260.008 324.223 260.008 322.764C260.008 321.305 260.4 319.905 261.097 318.873C261.794 317.842 262.74 317.262 263.725 317.262H316.692C317.678 317.262 318.624 317.842 319.321 318.873C320.018 319.905 320.409 321.305 320.409 322.764C320.409 324.223 320.018 325.622 319.321 326.654C318.624 327.686 317.678 328.265 316.692 328.265Z" fill="#CCCCCC"/>
<path id="Path 395" d="M232.824 342.702C232.44 342.703 232.066 342.519 231.758 342.178L231.739 342.157L227.726 337.613C227.35 337.187 227.105 336.557 227.043 335.863C226.981 335.169 227.108 334.467 227.396 333.911C227.683 333.356 228.108 332.992 228.577 332.9C229.046 332.809 229.521 332.997 229.896 333.423L232.496 336.373L238.638 324.511C238.781 324.236 238.958 324.005 239.161 323.832C239.364 323.658 239.588 323.546 239.82 323.5C240.052 323.455 240.288 323.478 240.514 323.567C240.74 323.657 240.952 323.812 241.138 324.022L241.138 324.023L241.1 324.101L241.139 324.023C241.514 324.449 241.76 325.078 241.821 325.772C241.883 326.466 241.757 327.168 241.469 327.723L234.244 341.67C234.077 341.991 233.862 342.251 233.616 342.43C233.37 342.608 233.099 342.7 232.825 342.699L232.824 342.702Z" fill="white"/>
<path id="Vector_24" d="M380.759 121.039H379.774C379.793 121.334 379.802 121.637 379.802 121.946V161.834C379.799 164.934 378.966 167.905 377.485 170.097C376.005 172.288 373.998 173.521 371.904 173.526H279.471V173.993C279.471 174.296 279.481 174.599 279.494 174.901C279.65 178.201 280.645 181.29 282.279 183.547C283.913 185.803 286.064 187.059 288.299 187.06H380.759C383.1 187.057 385.344 185.679 386.999 183.23C388.654 180.78 389.585 177.458 389.587 173.993V134.105C389.585 130.641 388.654 127.319 386.999 124.869C385.344 122.42 383.1 121.042 380.759 121.039Z" fill="#F2F2F2"/>
<path id="Vector_25" d="M380.708 121.039C380.553 117.739 379.557 114.649 377.924 112.393C376.29 110.136 374.138 108.881 371.904 108.88H279.443C277.103 108.883 274.859 110.261 273.203 112.71C271.548 115.16 270.618 118.482 270.616 121.946V161.834C270.618 165.299 271.548 168.621 273.203 171.071C274.859 173.52 277.103 174.898 279.443 174.901H371.904C374.244 174.898 376.488 173.52 378.143 171.071C379.799 168.621 380.729 165.299 380.731 161.834V121.946C380.731 121.644 380.722 121.341 380.708 121.039ZM379.802 161.834C379.799 164.934 378.966 167.905 377.485 170.097C376.005 172.288 373.998 173.521 371.904 173.526H279.443C277.349 173.521 275.342 172.288 273.861 170.097C272.381 167.905 271.548 164.934 271.545 161.834V121.946C271.548 118.847 272.381 115.876 273.861 113.684C275.342 111.493 277.349 110.26 279.443 110.255H371.904C373.891 110.259 375.805 111.371 377.263 113.37C378.722 115.368 379.618 118.106 379.774 121.039C379.793 121.334 379.802 121.637 379.802 121.946V161.834Z" fill="#3F3D56"/>
<path id="Vector_26" d="M348.441 159.086H302.907C301.922 159.086 300.976 158.506 300.279 157.474C299.582 156.442 299.19 155.043 299.19 153.584C299.19 152.125 299.582 150.725 300.279 149.693C300.976 148.662 301.922 148.082 302.907 148.082H348.441C349.426 148.082 350.372 148.662 351.069 149.693C351.766 150.725 352.158 152.125 352.158 153.584C352.158 155.043 351.766 156.442 351.069 157.474C350.372 158.506 349.426 159.086 348.441 159.086Z" fill="#CCCCCC"/>
<path id="Vector_27" d="M334.502 135.703H302.907C301.922 135.703 300.976 135.123 300.279 134.091C299.582 133.06 299.19 131.66 299.19 130.201C299.19 128.742 299.582 127.343 300.279 126.311C300.976 125.279 301.922 124.699 302.907 124.699H334.502C335.488 124.699 336.433 125.279 337.13 126.311C337.827 127.343 338.219 128.742 338.219 130.201C338.219 131.66 337.827 133.06 337.13 134.091C336.433 135.123 335.488 135.703 334.502 135.703Z" fill="#CCCCCC"/>
</g>
</svg>
