<svg width="435" height="380" viewBox="0 0 435 474" fill="none" xmlns="http://www.w3.org/2000/svg">
<g id="Group 1">
<path id="Vector" d="M335.615 138.441V187.761C335.614 188.217 335.436 188.653 335.12 188.976C334.804 189.298 334.376 189.479 333.929 189.481H332.729V446.404C332.729 453.513 329.96 460.332 325.031 465.359C320.102 470.386 313.417 473.211 306.447 473.211H149.054C142.085 473.211 135.401 470.386 130.474 465.359C125.546 460.332 122.778 453.515 122.779 446.406V198.492H121.91C121.595 198.492 121.292 198.365 121.069 198.138C120.845 197.912 120.719 197.604 120.718 197.283V169.214C120.718 169.054 120.748 168.896 120.808 168.748C120.868 168.601 120.956 168.467 121.067 168.354C121.177 168.241 121.309 168.151 121.453 168.09C121.598 168.029 121.753 167.997 121.91 167.997H122.779V157.424H121.903C121.572 157.423 121.255 157.288 121.022 157.049C120.789 156.809 120.658 156.485 120.659 156.148V128.462C120.66 128.126 120.791 127.803 121.024 127.566C121.257 127.328 121.573 127.194 121.903 127.193H122.779V112.76H121.888C121.743 112.761 121.6 112.732 121.466 112.675C121.332 112.619 121.21 112.536 121.108 112.432C121.005 112.328 120.924 112.204 120.868 112.067C120.813 111.931 120.784 111.785 120.784 111.637V96.5258C120.783 96.2261 120.899 95.9385 121.106 95.7259C121.313 95.5133 121.594 95.3932 121.888 95.3919H122.779V64.7999C122.779 57.6922 125.548 50.8757 130.475 45.8498C135.403 40.8239 142.086 38.0003 149.054 38H306.447C313.416 38 320.1 40.8233 325.029 45.849C329.957 50.8748 332.727 57.6914 332.729 64.7999V136.722H333.929C334.376 136.723 334.804 136.905 335.12 137.227C335.436 137.549 335.614 137.986 335.615 138.441V138.441Z" fill="#3F3D56"/>
<path id="Vector_2" d="M209.758 51.7467H235.333C235.83 51.7467 236.306 51.9478 236.657 52.3057C237.008 52.6637 237.205 53.1492 237.205 53.6554V55.9101C237.205 56.4163 237.008 56.9018 236.657 57.2598C236.306 57.6177 235.83 57.8188 235.333 57.8188H209.758C209.262 57.8188 208.786 57.6177 208.435 57.2598C208.084 56.9018 207.887 56.4164 207.887 55.9101V53.6554C207.887 53.1492 208.084 52.6637 208.435 52.3057C208.786 51.9478 209.262 51.7467 209.758 51.7467V51.7467Z" fill="#E6E8EC"/>
<path id="Vector_3" d="M245.014 58.2269C246.879 58.2269 248.391 56.6849 248.391 54.7828C248.391 52.8806 246.879 51.3386 245.014 51.3386C243.149 51.3386 241.638 52.8806 241.638 54.7828C241.638 56.6849 243.149 58.2269 245.014 58.2269Z" fill="#E6E8EC"/>
<path id="Vector_4" d="M320.144 70.089V448.629C320.141 453.139 318.383 457.462 315.256 460.65C312.13 463.838 307.89 465.629 303.469 465.63H152.805C150.619 465.633 148.453 465.197 146.432 464.347C144.41 463.497 142.573 462.249 141.025 460.675C139.476 459.1 138.247 457.23 137.407 455.171C136.567 453.112 136.133 450.904 136.13 448.674V70.1041C136.13 67.8705 136.561 65.6588 137.399 63.5952C138.237 61.5317 139.465 59.6567 141.014 58.0773C142.562 56.498 144.4 55.2451 146.424 54.3904C148.447 53.5357 150.615 53.0959 152.805 53.096H175.355V56.047C175.355 59.7612 176.801 63.3233 179.376 65.9496C181.951 68.576 185.444 70.0514 189.085 70.0515H265.709C269.35 70.0515 272.843 68.576 275.418 65.9496C277.993 63.3233 279.439 59.7612 279.439 56.047V53.096H303.469C305.658 53.0942 307.826 53.5324 309.849 54.3856C311.872 55.2387 313.71 56.4901 315.258 58.0682C316.807 59.6464 318.036 61.5202 318.874 63.5828C319.712 65.6454 320.144 67.8563 320.144 70.089Z" fill="white"/>
<path id="Vector_5" d="M320.144 397.823V448.629C320.141 453.139 318.383 457.462 315.256 460.65C312.13 463.838 307.89 465.629 303.469 465.63H152.805C150.619 465.633 148.453 465.197 146.432 464.347C144.41 463.497 142.573 462.249 141.025 460.675C139.476 459.1 138.247 457.23 137.407 455.171C136.567 453.112 136.133 450.904 136.13 448.674V397.823H320.144Z" fill="#F2F2F2"/>
<path id="Vector_6" d="M152.308 100.463C151.722 100.464 151.161 100.701 150.747 101.124C150.333 101.546 150.1 102.119 150.099 102.716V143.265C150.1 143.862 150.333 144.435 150.747 144.857C151.161 145.28 151.722 145.517 152.308 145.518H192.063C192.648 145.517 193.21 145.28 193.624 144.857C194.038 144.435 194.271 143.862 194.272 143.265V102.716C194.271 102.119 194.038 101.546 193.624 101.124C193.21 100.701 192.648 100.464 192.063 100.463H152.308Z" fill="#E6E6E6"/>
<path id="Vector_7" d="M208.259 100.463C207.674 100.464 207.112 100.701 206.698 101.124C206.284 101.546 206.051 102.119 206.051 102.716V143.265C206.051 143.862 206.284 144.435 206.698 144.857C207.112 145.28 207.674 145.517 208.259 145.518H248.014C248.6 145.517 249.161 145.28 249.575 144.857C249.989 144.435 250.222 143.862 250.223 143.265V102.716C250.222 102.119 249.989 101.546 249.575 101.124C249.161 100.701 248.6 100.464 248.014 100.463H208.259Z" fill="#E6E6E6"/>
<path id="Vector_8" d="M264.211 100.463C263.625 100.464 263.064 100.701 262.65 101.124C262.236 101.546 262.003 102.119 262.002 102.716V143.265C262.003 143.862 262.236 144.435 262.65 144.857C263.064 145.28 263.625 145.517 264.211 145.518H303.966C304.551 145.517 305.113 145.28 305.527 144.857C305.941 144.435 306.174 143.862 306.174 143.265V102.716C306.174 102.119 305.941 101.546 305.527 101.124C305.113 100.701 304.551 100.464 303.966 100.463H264.211Z" fill="#E6E6E6"/>
<path id="Vector_9" d="M152.4 162.789C151.815 162.789 151.253 163.027 150.839 163.449C150.425 163.871 150.192 164.444 150.191 165.041V205.59C150.192 206.188 150.425 206.76 150.839 207.183C151.253 207.605 151.815 207.842 152.4 207.843H192.155C192.741 207.842 193.302 207.605 193.716 207.183C194.13 206.76 194.363 206.188 194.364 205.59V165.041C194.363 164.444 194.13 163.871 193.716 163.449C193.302 163.027 192.741 162.789 192.155 162.789H152.4Z" fill="#E6E6E6"/>
<path id="Vector_10" d="M208.351 162.789C207.766 162.789 207.204 163.027 206.79 163.449C206.376 163.871 206.143 164.444 206.143 165.041V205.59C206.143 206.188 206.376 206.76 206.79 207.183C207.204 207.605 207.766 207.842 208.351 207.843H248.106C248.692 207.842 249.253 207.605 249.667 207.183C250.081 206.76 250.314 206.188 250.315 205.59V165.041C250.314 164.444 250.081 163.871 249.667 163.449C249.253 163.027 248.692 162.789 248.106 162.789H208.351Z" fill="#E6E6E6"/>
<path id="Vector_11" d="M264.303 162.789C263.717 162.789 263.156 163.027 262.742 163.449C262.328 163.871 262.095 164.444 262.094 165.041V205.59C262.095 206.188 262.328 206.76 262.742 207.183C263.156 207.605 263.717 207.842 264.303 207.843H304.058C304.643 207.842 305.205 207.605 305.619 207.183C306.033 206.76 306.266 206.188 306.266 205.59V165.041C306.266 164.444 306.033 163.871 305.619 163.449C305.205 163.027 304.643 162.789 304.058 162.789H264.303Z" fill="#E6E6E6"/>
<path id="Vector_12" d="M152.492 225.114C151.907 225.115 151.345 225.352 150.931 225.775C150.517 226.197 150.284 226.769 150.284 227.367V267.916C150.284 268.513 150.517 269.086 150.931 269.508C151.345 269.93 151.907 270.168 152.492 270.168H192.247C192.833 270.168 193.394 269.93 193.808 269.508C194.222 269.086 194.455 268.513 194.456 267.916V227.367C194.455 226.769 194.222 226.197 193.808 225.775C193.394 225.352 192.833 225.115 192.247 225.114H152.492Z" fill="#E6E6E6"/>
<path id="Vector_13" d="M208.443 225.114C207.858 225.115 207.297 225.352 206.882 225.775C206.468 226.197 206.236 226.769 206.235 227.367V267.916C206.236 268.513 206.468 269.086 206.882 269.508C207.297 269.93 207.858 270.168 208.443 270.168H248.198C248.784 270.168 249.345 269.93 249.759 269.508C250.173 269.086 250.406 268.513 250.407 267.916V227.367C250.406 226.769 250.173 226.197 249.759 225.775C249.345 225.352 248.784 225.115 248.198 225.114H208.443Z" fill="#E6E6E6"/>
<path id="Vector_14" d="M264.395 225.114C263.809 225.115 263.248 225.352 262.834 225.775C262.42 226.197 262.187 226.769 262.186 227.367V267.916C262.187 268.513 262.42 269.086 262.834 269.508C263.248 269.93 263.809 270.168 264.395 270.168H304.15C304.735 270.168 305.297 269.93 305.711 269.508C306.125 269.086 306.358 268.513 306.358 267.916V227.367C306.358 226.769 306.125 226.197 305.711 225.775C305.297 225.352 304.735 225.115 304.15 225.114H264.395Z" fill="#E6E6E6"/>
<g id="Square">
<path id="Vector_15" d="M152.4 409.086C151.815 409.087 151.253 409.325 150.839 409.747C150.425 410.169 150.192 410.742 150.191 411.339V451.888C150.192 452.485 150.425 453.058 150.839 453.48C151.253 453.903 151.815 454.14 152.4 454.141H192.155C192.741 454.14 193.302 453.903 193.716 453.48C194.13 453.058 194.363 452.485 194.364 451.888V411.339C194.363 410.742 194.13 410.169 193.716 409.747C193.302 409.325 192.741 409.087 192.155 409.086H152.4Z" fill="#71A4A7"/>
<path id="Vector_16" d="M208.351 409.086C207.766 409.087 207.204 409.325 206.79 409.747C206.376 410.169 206.143 410.742 206.143 411.339V451.888C206.143 452.485 206.376 453.058 206.79 453.48C207.204 453.903 207.766 454.14 208.351 454.141H248.106C248.692 454.14 249.253 453.903 249.667 453.48C250.081 453.058 250.314 452.485 250.315 451.888V411.339C250.314 410.742 250.081 410.169 249.667 409.747C249.253 409.325 248.692 409.087 248.106 409.086H208.351Z" fill="#71A4A7"/>
<path id="Vector_17" d="M264.303 409.086C263.717 409.087 263.156 409.325 262.742 409.747C262.328 410.169 262.095 410.742 262.094 411.339V451.888C262.095 452.485 262.328 453.058 262.742 453.48C263.156 453.903 263.717 454.14 264.303 454.141H304.058C304.643 454.14 305.205 453.903 305.619 453.48C306.033 453.058 306.266 452.485 306.266 451.888V411.339C306.266 410.742 306.033 410.169 305.619 409.747C305.205 409.325 304.643 409.087 304.058 409.086H264.303Z" fill="#71A4A7"/>
</g>
<path id="Vector_18" d="M152.584 287.439C151.999 287.44 151.437 287.678 151.023 288.1C150.609 288.522 150.376 289.095 150.376 289.692V330.241C150.376 330.838 150.609 331.411 151.023 331.833C151.437 332.256 151.999 332.493 152.584 332.494H192.339C192.925 332.493 193.486 332.256 193.9 331.833C194.314 331.411 194.547 330.838 194.548 330.241V289.692C194.547 289.095 194.314 288.522 193.9 288.1C193.486 287.678 192.925 287.44 192.339 287.439L152.584 287.439Z" fill="#E6E6E6"/>
<path id="Vector_19" d="M376.475 314.406L378.489 324.58C378.712 325.706 379.155 326.776 379.791 327.724C380.427 328.673 381.243 329.482 382.191 330.102C383.14 330.723 384.201 331.143 385.311 331.338C386.422 331.532 387.559 331.497 388.656 331.234C389.999 330.913 391.245 330.259 392.282 329.331C393.319 328.403 394.116 327.229 394.604 325.912C395.091 324.596 395.254 323.177 395.077 321.781C394.9 320.385 394.389 319.056 393.589 317.909L387.757 309.547L373.332 269.193L375.965 234.629C367.686 231.457 359.257 227.905 354.688 234.169L360.365 271.989L376.475 314.406Z" fill="#FFB9B9"/>
<path id="Vector_20" d="M384.449 321.333C383.936 321.334 383.444 321.542 383.082 321.912C382.719 322.282 382.515 322.784 382.514 323.307V358.826C382.515 359.349 382.719 359.851 383.082 360.22C383.444 360.59 383.936 360.798 384.449 360.799H419.272C419.785 360.798 420.277 360.59 420.64 360.22C421.002 359.851 421.206 359.349 421.207 358.826V323.307C421.206 322.784 421.002 322.282 420.64 321.912C420.277 321.542 419.785 321.334 419.272 321.333H384.449Z" fill="#71A4A7"/>
<path id="Vector_21" d="M393.781 183.025C393.781 182.815 393.777 182.609 393.774 182.392C393.447 169.192 383.203 158.852 370.45 158.852C367.376 158.848 364.331 159.472 361.497 160.688C358.664 161.905 356.097 163.688 353.951 165.933C349.556 170.491 347.1 176.632 347.116 183.025V206.695H393.781V183.025Z" fill="#2F2E41"/>
<path id="Vector_22" d="M380.933 468.973C381.063 468.041 380.928 467.089 380.545 466.232C380.161 465.375 379.545 464.648 378.769 464.137L364.892 457.191L354.43 458.538L351.959 467.573C351.855 468.217 351.88 468.875 352.033 469.509C352.186 470.142 352.464 470.738 352.85 471.258C353.236 471.778 353.721 472.213 354.277 472.536C354.833 472.859 355.447 473.063 356.083 473.136L375.606 473.18C376.856 473.323 378.111 472.964 379.106 472.179C380.1 471.393 380.756 470.243 380.933 468.973Z" fill="#2F2E41"/>
<path id="Vector_23" d="M332.858 324.789L334.467 335.274L334.612 336.235L340.797 376.538L342.708 388.994L343.294 392.816L344.92 404.872L352.498 461.018L365.675 457.971L366.304 393.244L366.412 382.132L366.514 372.738L366.606 364.476L366.972 331.245L332.858 324.789Z" fill="#2F2E41"/>
<path id="Vector_24" d="M375.34 199.698C385.097 199.698 393.007 191.63 393.007 181.678C393.007 171.726 385.097 163.658 375.34 163.658C365.582 163.658 357.673 171.726 357.673 181.678C357.673 191.63 365.582 199.698 375.34 199.698Z" fill="#FFB9B9"/>
<path id="Vector_25" d="M355.759 212.462L375.781 222.673C374.904 212.548 377.061 202.39 381.965 193.541L364.592 190.838C364.358 197.954 360.828 205.182 355.759 212.462Z" fill="#FFB9B9"/>
<path id="Vector_26" d="M346.042 282.74L381.376 290.549L384.321 267.123C386.237 257.104 389.694 247.304 383.641 239.432L382.753 231.334C382.324 227.417 381.031 223.649 378.972 220.312C376.914 216.976 374.142 214.157 370.864 212.068L360.175 205.254C338.02 217.479 338.911 247.677 346.042 282.74Z" fill="#C8F69A"/>
<path id="Vector_27" opacity="0.2" d="M342.708 388.994L343.294 392.816L344.92 404.872L366.304 393.244L366.412 382.132L366.514 372.738L342.708 388.994Z" fill="black"/>
<path id="Vector_28" opacity="0.2" d="M332.857 324.789L334.467 335.275L334.612 336.235C337.163 340.56 340.503 344.345 344.451 347.386L366.606 364.476L366.972 331.245L332.857 324.789Z" fill="black"/>
<path id="Vector_29" d="M337.502 388.158L341.625 402.274L394.886 373.307C396.712 372.231 398.281 370.754 399.48 368.984C400.679 367.214 401.479 365.195 401.82 363.072C402.162 360.949 402.038 358.775 401.457 356.707C400.876 354.638 399.852 352.728 398.459 351.112L369.303 317.279L382.259 287.546L345.158 277.635L341.036 286.645C332.425 294.844 328.55 304.411 329.41 315.348C329.864 320.778 331.439 326.049 334.032 330.814C336.624 335.579 340.176 339.73 344.453 342.996L372.248 364.431L337.502 388.158Z" fill="#2F2E41"/>
<path id="Vector_30" d="M333.462 415.096C334.375 415.168 335.289 414.971 336.096 414.529C336.902 414.088 337.568 413.42 338.015 412.604L345.997 398.018L344.022 387.546L335.101 385.629C334.47 385.565 333.833 385.632 333.228 385.827C332.623 386.022 332.064 386.34 331.583 386.763C331.103 387.185 330.712 387.703 330.435 388.285C330.157 388.866 329.998 389.499 329.968 390.146L329.041 409.989C328.982 411.259 329.411 412.503 330.236 413.457C331.061 414.411 332.218 414.999 333.462 415.096V415.096Z" fill="#2F2E41"/>
<path id="Vector_31" d="M344.864 318.48L344.546 328.854C344.511 330.003 344.702 331.147 345.109 332.219C345.516 333.29 346.129 334.268 346.913 335.093C347.698 335.918 348.636 336.575 349.674 337.023C350.712 337.471 351.827 337.702 352.954 337.702C354.333 337.702 355.692 337.355 356.91 336.694C358.127 336.032 359.167 335.074 359.936 333.906C360.705 332.738 361.181 331.395 361.322 329.994C361.462 328.594 361.262 327.181 360.741 325.878L356.936 316.378L351.931 273.73L362.237 240.694C354.887 235.677 347.476 230.255 341.625 235.288L338.68 273.43L344.864 318.48Z" fill="#FFB9B9"/>
<path id="Vector_32" d="M338.091 240.093C348.94 234.804 357.255 237.502 363.414 247.001L367.407 224.281C367.867 221.663 367.47 218.964 366.277 216.599C365.084 214.234 363.162 212.335 360.806 211.194C359.624 210.622 358.34 210.301 357.033 210.251C355.725 210.2 354.421 210.421 353.2 210.901C351.979 211.38 350.867 212.108 349.93 213.039C348.993 213.971 348.251 215.087 347.75 216.32L338.091 240.093Z" fill="#C8F69A"/>
<path id="Vector_33" d="M355.977 169.065L360.411 183.455L398.75 182.76C398.619 177.726 396.949 172.858 393.974 168.838C390.999 164.819 386.868 161.847 382.156 160.338C377.445 158.83 372.39 158.86 367.696 160.425C363.002 161.989 358.905 165.01 355.977 169.065V169.065Z" fill="#2F2E41"/>
<path id="Vector_34" d="M434.757 474H82V472.633H435L434.757 474Z" fill="#3F3D56"/>
</g>
<rect id="Rectangle 1" y="96.3894" width="415" height="51" transform="rotate(-13.4304 0 96.3894)" fill="#FFE99D"/>
<path id="Start Creating Your Notes!" d="M44.0906 118.22C44.3164 119.115 44.3132 119.967 44.081 120.776C43.8468 121.577 43.4666 122.302 42.9406 122.949C42.4124 123.589 41.7825 124.136 41.0507 124.592C40.3271 125.045 39.5796 125.369 38.8082 125.564C37.364 125.928 35.9642 126.002 34.6089 125.786C33.2536 125.569 31.9716 125.072 30.7628 124.295L30.8374 124.59C30.9037 124.853 30.973 125.11 31.0454 125.363C31.1179 125.615 31.1944 125.866 31.275 126.117L31.2874 126.166C31.3289 126.33 31.3077 126.488 31.2238 126.64C31.1482 126.79 31.0222 126.896 30.8458 126.958C30.6571 127.006 30.4867 126.988 30.3346 126.904C30.1825 126.82 30.0755 126.69 30.0135 126.514C29.9308 126.255 29.8522 125.996 29.7777 125.735C29.7011 125.466 29.6297 125.201 29.5634 124.938C29.3522 124.101 29.1985 123.319 29.1024 122.593C29.0043 121.858 28.9369 121.124 28.9003 120.392C28.902 120.225 28.9438 120.08 29.0256 119.954C29.1156 119.827 29.2386 119.743 29.3945 119.704C29.5833 119.656 29.7578 119.691 29.9182 119.808C30.0765 119.916 30.1743 120.044 30.2116 120.192C30.2157 120.208 30.2209 120.229 30.2271 120.253C30.2313 120.27 30.2282 120.292 30.218 120.321C30.2246 120.52 30.2322 120.706 30.2408 120.878C30.2556 121.04 30.2662 121.204 30.2727 121.368C30.2854 121.522 30.3002 121.684 30.317 121.854C30.3399 122.014 30.3639 122.196 30.389 122.399C31.6064 123.349 32.8867 123.994 34.2299 124.336C35.5711 124.67 36.9803 124.65 38.4574 124.277C38.8759 124.172 39.3138 124.022 39.7711 123.828C40.2366 123.632 40.6466 123.389 41.0011 123.098C41.3617 122.798 41.6329 122.455 41.8147 122.068C42.0027 121.672 42.0335 121.223 41.9071 120.722C41.818 120.37 41.6429 120.073 41.3816 119.834C41.1183 119.586 40.8059 119.386 40.4442 119.232C40.0826 119.079 39.6872 118.965 39.258 118.89C38.835 118.805 38.414 118.745 37.9952 118.711C37.5764 118.678 37.1802 118.664 36.8066 118.671C36.4391 118.668 36.1261 118.673 35.8675 118.686C35.2538 118.709 34.6411 118.72 34.0294 118.717C33.4156 118.706 32.8233 118.66 32.2524 118.577C31.6816 118.494 31.1383 118.365 30.6227 118.189C30.1071 118.014 29.6365 117.775 29.2109 117.472C28.7914 117.159 28.422 116.768 28.1028 116.298C27.7918 115.827 27.5513 115.255 27.3815 114.582C27.2158 113.925 27.1497 113.301 27.1832 112.707C27.2229 112.104 27.3428 111.541 27.5427 111.019C27.7427 110.497 28.0105 110.019 28.3462 109.585C28.688 109.141 29.0812 108.745 29.5259 108.397C29.9684 108.041 30.4512 107.74 30.9741 107.495C31.5031 107.239 32.0507 107.04 32.6169 106.897C32.9616 106.81 33.334 106.747 33.7342 106.707C34.1405 106.656 34.5489 106.632 34.9595 106.633C35.368 106.626 35.7734 106.641 36.1758 106.68C36.5844 106.707 36.9684 106.759 37.3278 106.834C37.6851 106.901 38.0086 106.989 38.2983 107.1C38.5859 107.202 38.8253 107.32 39.0165 107.455C39.0527 107.114 39.0981 106.776 39.1527 106.439C39.2135 106.092 39.2784 105.744 39.3474 105.394C39.3841 105.263 39.4444 105.156 39.5284 105.074C39.6185 104.981 39.721 104.92 39.8359 104.891C40.0246 104.844 40.1981 104.874 40.3564 104.983C40.5127 105.083 40.6115 105.215 40.6529 105.379C40.6757 105.469 40.6749 105.57 40.6505 105.681C40.4475 106.675 40.3194 107.654 40.2662 108.619C40.2191 109.574 40.253 110.521 40.3681 111.461C40.3931 111.629 40.3575 111.782 40.2614 111.92C40.1713 112.048 40.0442 112.132 39.8801 112.173C39.6914 112.221 39.5179 112.191 39.3596 112.082C39.2012 111.974 39.1045 111.85 39.0693 111.71L39.0506 111.636C38.9295 110.742 38.8895 109.84 38.9306 108.93C38.844 108.795 38.6775 108.671 38.4309 108.559C38.1823 108.438 37.8864 108.338 37.5435 108.259C37.2087 108.178 36.8349 108.115 36.4222 108.071C36.0075 108.018 35.5897 107.988 35.1689 107.981C34.748 107.974 34.3324 107.987 33.9219 108.021C33.5115 108.055 33.1421 108.113 32.8139 108.196C32.3133 108.322 31.8467 108.497 31.4141 108.719C30.9814 108.942 30.6146 109.218 30.3136 109.547C30.0208 109.874 29.8113 110.254 29.685 110.688C29.5567 111.113 29.5547 111.589 29.679 112.117C29.8278 112.568 30.0514 112.935 30.3497 113.217C30.6541 113.49 30.9974 113.708 31.3796 113.874C31.77 114.037 32.1921 114.153 32.6459 114.222C33.0976 114.283 33.5483 114.322 33.9979 114.339C34.4536 114.346 34.8939 114.344 35.3188 114.333C35.7416 114.314 36.1264 114.299 36.4733 114.29C37.3519 114.278 38.1997 114.3 39.0168 114.355C39.8339 114.411 40.5763 114.568 41.244 114.828C41.92 115.085 42.5049 115.483 42.9987 116.021C43.4905 116.552 43.8545 117.285 44.0906 118.22ZM54.3023 107.996C54.3437 108.16 54.3235 108.323 54.2418 108.483C54.1662 108.633 54.0484 108.737 53.8884 108.795C53.3653 108.97 52.8454 109.141 52.3285 109.306C51.8116 109.472 51.2885 109.63 50.7592 109.781L52.9341 118.397C52.9756 118.561 53.0467 118.705 53.1476 118.828C53.2566 118.949 53.3769 119.045 53.5085 119.117C53.6482 119.186 53.7951 119.232 53.9491 119.254C54.1031 119.276 54.254 119.269 54.4017 119.232C54.6232 119.176 54.7893 119.073 54.8998 118.922C55.0164 118.762 55.1022 118.583 55.1572 118.386C55.2101 118.181 55.2404 117.972 55.2482 117.761C55.2641 117.547 55.2729 117.357 55.2746 117.191C55.2619 117.037 55.3057 116.9 55.406 116.778C55.5043 116.649 55.6272 116.565 55.775 116.528C55.9637 116.48 56.1342 116.516 56.2863 116.635C56.4446 116.743 56.5424 116.871 56.5797 117.019L56.6139 117.154C56.6514 118.306 56.397 119.269 55.8507 120.044C55.3023 120.811 54.5152 121.324 53.4895 121.583C53.0217 121.701 52.5261 121.761 52.0027 121.762C51.4792 121.763 50.974 121.646 50.487 121.411C50.0081 121.174 49.567 120.792 49.1634 120.266C48.7578 119.731 48.4349 118.987 48.1946 118.036L46.3832 110.859C46.0077 110.928 45.6281 110.997 45.2444 111.068C44.8689 111.137 44.4883 111.202 44.1025 111.265C43.9322 111.282 43.7741 111.243 43.6281 111.149C43.4904 111.053 43.4008 110.922 43.3593 110.758C43.3117 110.57 43.3431 110.4 43.4536 110.25C43.5723 110.098 43.7056 110.003 43.8533 109.966L43.9025 109.953C44.2698 109.887 44.6289 109.823 44.9797 109.76C45.3388 109.696 45.6979 109.631 46.057 109.567L45.0006 105.382C44.9654 105.242 44.9784 105.104 45.0397 104.966C45.0989 104.82 45.193 104.709 45.3222 104.633L48.1913 103.031C48.2118 103.009 48.2385 102.993 48.2713 102.985C48.302 102.968 48.3297 102.957 48.3543 102.951C48.5431 102.903 48.7125 102.935 48.8626 103.045C49.0209 103.154 49.1208 103.29 49.1622 103.454L50.433 108.488C50.9294 108.346 51.4289 108.198 51.9315 108.045C52.4402 107.881 52.9478 107.714 53.4545 107.542L53.5037 107.53C53.6842 107.484 53.8526 107.512 54.0089 107.612C54.163 107.704 54.2608 107.832 54.3023 107.996ZM66.2207 113.145C66.1691 113.01 66.1205 112.869 66.0751 112.724C66.0296 112.578 65.9871 112.427 65.9478 112.271L65.4923 112.386C65.1641 112.469 64.7805 112.592 64.3416 112.755C63.9109 112.916 63.471 113.11 63.022 113.337C62.573 113.564 62.1374 113.827 61.7152 114.125C61.2909 114.416 60.9263 114.735 60.6212 115.082C60.3141 115.422 60.0881 115.789 59.9432 116.183C59.8066 116.575 59.7932 116.989 59.9029 117.424C59.9609 117.654 60.064 117.837 60.2121 117.974C60.3684 118.109 60.5421 118.21 60.7332 118.275C60.9303 118.33 61.1377 118.356 61.3553 118.354C61.5708 118.343 61.7729 118.314 61.9617 118.266C62.5443 118.119 63.0662 117.869 63.5272 117.517C63.9944 117.155 64.404 116.737 64.756 116.264C65.1059 115.783 65.4004 115.273 65.6393 114.732C65.8782 114.192 66.0721 113.663 66.2207 113.145ZM73.1919 115.916L73.1426 115.928C72.999 115.947 72.8533 115.975 72.7056 116.012C72.5579 116.05 72.4143 116.086 72.2748 116.121C71.5034 116.316 70.7732 116.552 70.0841 116.831C69.4032 117.108 68.7317 117.439 68.0696 117.824C68.0449 117.83 68.0214 117.841 67.9988 117.855C67.9763 117.869 67.9445 117.882 67.9034 117.892C67.7147 117.94 67.5401 117.905 67.3798 117.789C67.2297 117.678 67.136 117.549 67.0987 117.401L67.0738 117.303C67.0697 117.287 67.0488 117.117 67.0111 116.795C66.9713 116.465 66.9005 116.011 66.7986 115.435C66.5452 115.918 66.2609 116.382 65.9458 116.828C65.6368 117.264 65.2929 117.665 64.914 118.031C64.5412 118.387 64.1385 118.694 63.706 118.952C63.2755 119.218 62.81 119.414 62.3094 119.54C61.9155 119.639 61.5184 119.674 61.1181 119.644C60.7198 119.623 60.3491 119.537 60.0059 119.388C59.671 119.237 59.378 119.027 59.127 118.759C58.8821 118.48 58.7099 118.144 58.6105 117.75C58.4551 117.135 58.4497 116.56 58.5942 116.026C58.747 115.49 58.9973 114.995 59.3452 114.54C59.6911 114.077 60.1099 113.662 60.6018 113.293C61.0997 112.914 61.6183 112.583 62.1575 112.298C62.6946 112.006 63.2268 111.762 63.7539 111.568C64.2789 111.366 64.7507 111.212 65.1692 111.106L65.4646 111.031C65.3383 110.531 65.1248 110.065 64.8241 109.635C64.5316 109.203 64.1788 108.842 63.7655 108.554C63.3605 108.263 62.9125 108.062 62.4217 107.95C61.9287 107.83 61.4197 107.836 60.8945 107.969C60.5088 108.066 60.1593 108.272 59.8459 108.587C59.5305 108.894 59.2716 109.251 59.0694 109.66C58.8671 110.069 58.7285 110.506 58.6536 110.97C58.5869 111.432 58.6033 111.86 58.7027 112.254C58.7441 112.418 58.7096 112.575 58.5991 112.725C58.4947 112.865 58.3604 112.956 58.1963 112.997C58.0158 113.043 57.8433 113.016 57.6789 112.918C57.5123 112.812 57.4084 112.677 57.367 112.512C57.2675 112.119 57.2337 111.691 57.2655 111.229C57.2952 110.759 57.3896 110.285 57.5486 109.809C57.7138 109.322 57.9385 108.846 58.2228 108.381C58.5153 107.915 58.8684 107.481 59.2821 107.08C59.702 106.668 60.1825 106.307 60.7237 105.996C61.2649 105.684 61.8638 105.446 62.5203 105.28C63.4394 105.048 64.2593 104.994 64.9801 105.118C65.7091 105.239 66.3532 105.491 66.9124 105.874C67.4798 106.254 67.9725 106.737 68.3906 107.321C68.8086 107.905 69.1744 108.541 69.488 109.23C69.8015 109.919 70.069 110.633 70.2903 111.371C70.5198 112.108 70.7206 112.817 70.8925 113.498C70.9795 113.842 71.0499 114.139 71.1039 114.387C71.1578 114.635 71.2055 114.842 71.2469 115.006C71.37 114.975 71.4921 114.939 71.6131 114.9C71.7423 114.859 71.8685 114.823 71.9916 114.792C72.1311 114.756 72.2757 114.724 72.4255 114.695C72.5835 114.664 72.7363 114.63 72.884 114.592C73.0687 114.563 73.2299 114.597 73.3677 114.693C73.5136 114.787 73.6094 114.924 73.655 115.105C73.6985 115.277 73.6753 115.445 73.5853 115.607C73.5036 115.767 73.3724 115.87 73.1919 115.916ZM84.0217 106.74C83.7181 106.817 83.4164 106.832 83.1165 106.785C82.825 106.737 82.5558 106.639 82.3092 106.492C82.0625 106.344 81.8486 106.154 81.6674 105.92C81.4842 105.679 81.3542 105.406 81.2776 105.102C81.201 104.799 81.1869 104.501 81.2355 104.209C81.2821 103.91 81.379 103.636 81.5262 103.39C81.6714 103.135 81.8607 102.917 82.0943 102.736C82.3341 102.544 82.6057 102.41 82.9094 102.333C82.9504 102.323 82.9884 102.318 83.0233 102.318C83.0664 102.316 83.1084 102.309 83.1495 102.299C82.8947 102.189 82.6133 102.129 82.3054 102.119C82.0036 102.099 81.6681 102.136 81.2988 102.229C80.831 102.347 80.4497 102.548 80.1547 102.832C79.8577 103.108 79.6234 103.425 79.4518 103.782C79.2863 104.13 79.1732 104.494 79.1125 104.876C79.0497 105.25 79.0115 105.6 78.9979 105.926C78.9904 106.243 78.9972 106.511 79.0182 106.733C79.0474 106.953 79.0662 107.079 79.0745 107.112L80.4294 112.583C80.7228 112.535 81.0193 112.5 81.319 112.476C81.6268 112.451 81.9388 112.425 82.2548 112.397C82.4211 112.399 82.569 112.449 82.6986 112.547C82.826 112.637 82.9095 112.76 82.9488 112.916C82.9944 113.097 82.9629 113.266 82.8545 113.424C82.744 113.575 82.6108 113.669 82.4549 113.709L82.3318 113.74C81.636 113.784 80.9803 113.849 80.3647 113.935C79.7491 114.021 79.1459 114.138 78.555 114.287C77.9642 114.436 77.3816 114.618 76.8073 114.833C76.2331 115.048 75.6291 115.301 74.9955 115.591L74.8724 115.623C74.6837 115.67 74.5163 115.647 74.3703 115.553C74.2223 115.451 74.1276 115.317 74.0862 115.153C74.0468 114.997 74.0578 114.851 74.119 114.713C74.1782 114.567 74.2806 114.454 74.4262 114.373C74.701 114.252 74.9757 114.13 75.2505 114.008C75.5253 113.886 75.7991 113.778 76.0719 113.683L73.7572 104.513C73.234 104.619 72.7907 104.696 72.4275 104.744C72.0643 104.792 71.8601 104.813 71.8149 104.807C71.6467 104.832 71.4947 104.8 71.359 104.712C71.2295 104.614 71.144 104.483 71.1026 104.319C71.0508 104.113 71.0801 103.936 71.1906 103.786C71.3094 103.634 71.4426 103.539 71.5903 103.502L71.6764 103.48C71.6867 103.486 71.7852 103.478 71.972 103.458C72.1567 103.428 72.3957 103.39 72.6891 103.342C72.9826 103.294 73.316 103.232 73.6894 103.155C74.071 103.076 74.4547 102.988 74.8404 102.891C75.2343 102.791 75.6169 102.682 75.9881 102.562C76.3594 102.442 76.6968 102.309 77.0002 102.162C77.0125 102.142 77.0515 102.123 77.1171 102.106C77.3059 102.059 77.4794 102.089 77.6377 102.198C77.7939 102.298 77.8928 102.43 77.9342 102.594L78.1579 103.48C78.3865 102.899 78.7271 102.381 79.1797 101.926C79.6384 101.461 80.2371 101.136 80.9756 100.949C81.5378 100.825 82.0714 100.795 82.5766 100.859C83.0796 100.916 83.5346 101.058 83.9416 101.287C84.3547 101.506 84.7064 101.81 84.9967 102.199C85.2931 102.578 85.5087 103.035 85.6433 103.568C85.7282 103.905 85.7567 104.242 85.7288 104.581C85.7008 104.92 85.6194 105.237 85.4846 105.533C85.3477 105.821 85.1543 106.075 84.9044 106.295C84.6606 106.505 84.3664 106.653 84.0217 106.74ZM96.1783 97.4261C96.2197 97.5902 96.1995 97.7524 96.1178 97.9127C96.0422 98.0627 95.9244 98.1666 95.7644 98.2245C95.2414 98.4002 94.7214 98.5707 94.2045 98.7361C93.6876 98.9015 93.1645 99.0597 92.6352 99.2107L94.8102 107.827C94.8516 107.991 94.9227 108.135 95.0236 108.258C95.1327 108.379 95.253 108.475 95.3845 108.546C95.5242 108.616 95.6711 108.662 95.8251 108.684C95.9791 108.706 96.13 108.699 96.2777 108.661C96.4993 108.605 96.6653 108.502 96.7758 108.352C96.8924 108.192 96.9782 108.013 97.0332 107.816C97.0861 107.611 97.1164 107.402 97.1242 107.191C97.1401 106.977 97.1489 106.787 97.1506 106.621C97.1379 106.467 97.1817 106.329 97.2821 106.208C97.3803 106.079 97.5033 105.995 97.651 105.958C97.8397 105.91 98.0102 105.946 98.1623 106.065C98.3206 106.173 98.4184 106.301 98.4557 106.449L98.4899 106.584C98.5274 107.736 98.273 108.699 97.7267 109.474C97.1783 110.241 96.3912 110.754 95.3655 111.013C94.8977 111.131 94.4021 111.19 93.8787 111.192C93.3552 111.193 92.85 111.076 92.363 110.841C91.8842 110.604 91.443 110.222 91.0395 109.696C90.6339 109.161 90.3109 108.417 90.0706 107.465L88.2592 100.289C87.8837 100.358 87.5042 100.427 87.1205 100.498C86.745 100.567 86.3643 100.632 85.9786 100.695C85.8082 100.711 85.6501 100.673 85.5041 100.579C85.3664 100.482 85.2768 100.352 85.2354 100.188C85.1877 99.9995 85.2191 99.8301 85.3297 99.68C85.4484 99.5278 85.5816 99.4331 85.7293 99.3958L85.7785 99.3833C86.1458 99.3168 86.5049 99.2524 86.8558 99.19C87.2148 99.1255 87.5739 99.0611 87.933 98.9966L86.8766 94.8115C86.8414 94.672 86.8544 94.5334 86.9157 94.3957C86.9749 94.2499 87.0691 94.1388 87.1982 94.0626L90.0673 92.4611C90.0878 92.4385 90.1145 92.423 90.1473 92.4147C90.178 92.3982 90.2057 92.3869 90.2304 92.3807C90.4191 92.333 90.5885 92.3644 90.7386 92.475C90.8969 92.5834 90.9968 92.7197 91.0382 92.8838L92.309 97.9183C92.8054 97.7755 93.3049 97.6276 93.8075 97.4746C94.3162 97.3112 94.8239 97.1438 95.3305 96.9723L95.3797 96.9599C95.5603 96.9143 95.7287 96.9416 95.8849 97.0418C96.039 97.1339 96.1368 97.2619 96.1783 97.4261ZM120.456 91.5207C120.45 91.6705 120.399 91.7969 120.303 91.8997C120.204 91.9944 120.085 92.0593 119.946 92.0945C119.757 92.1422 119.584 92.1118 119.425 92.0033C119.267 91.8949 119.17 91.7709 119.135 91.6314C119.118 91.5658 119.118 91.496 119.135 91.4221L119.341 88.9214C119.053 88.6449 118.724 88.3963 118.354 88.1754C117.99 87.9443 117.607 87.7573 117.205 87.6146C116.802 87.4718 116.391 87.3834 115.972 87.3495C115.551 87.3073 115.144 87.336 114.75 87.4354C114.003 87.6239 113.364 87.9076 112.831 88.2865C112.306 88.6633 111.872 89.1046 111.528 89.6104C111.193 90.114 110.936 90.6719 110.759 91.2841C110.58 91.888 110.467 92.5143 110.422 93.1631C110.384 93.8097 110.401 94.4645 110.472 95.1274C110.55 95.78 110.666 96.414 110.821 97.0295C110.956 97.5629 111.129 98.1259 111.339 98.7187C111.548 99.3032 111.799 99.8815 112.092 100.454C112.382 101.017 112.713 101.549 113.084 102.049C113.452 102.541 113.859 102.958 114.303 103.3C114.755 103.64 115.243 103.879 115.767 104.017C116.291 104.155 116.856 104.148 117.463 103.995C118.177 103.814 118.828 103.541 119.417 103.174C120.013 102.805 120.526 102.366 120.956 101.856C121.392 101.336 121.74 100.759 121.999 100.126C122.267 99.4914 122.428 98.8177 122.484 98.1053C122.488 97.9472 122.536 97.8085 122.628 97.6893C122.718 97.5618 122.837 97.4794 122.985 97.4421C123.165 97.3966 123.335 97.428 123.493 97.5364C123.651 97.6449 123.751 97.7811 123.793 97.9453L123.83 98.093C123.826 98.1115 123.818 98.2008 123.806 98.3609C123.802 98.519 123.777 98.7305 123.73 98.9954C123.69 99.25 123.622 99.5509 123.526 99.898C123.437 100.235 123.305 100.595 123.131 100.98C122.872 101.543 122.552 102.056 122.171 102.518C121.79 102.981 121.366 103.394 120.899 103.756C120.44 104.116 119.946 104.424 119.417 104.68C118.888 104.936 118.345 105.134 117.787 105.275C116.377 105.604 115.06 105.697 113.837 105.552C112.619 105.396 111.523 105.031 110.549 104.457C109.581 103.872 108.75 103.087 108.056 102.101C107.37 101.113 106.857 99.9461 106.517 98.6003C106.203 97.353 106.053 96.2079 106.069 95.1651C106.085 94.1223 106.227 93.1787 106.494 92.3345C106.767 91.4799 107.147 90.7206 107.634 90.0564C108.119 89.3841 108.666 88.8009 109.274 88.3069C109.891 87.8108 110.555 87.3987 111.267 87.0707C111.976 86.7345 112.692 86.4753 113.414 86.293C114.136 86.1107 114.804 86.025 115.418 86.036C116.03 86.0387 116.591 86.1021 117.103 86.2261C117.614 86.3502 118.066 86.5154 118.459 86.7219C118.857 86.918 119.196 87.1164 119.473 87.3169L119.659 85.2011C119.673 85.0492 119.727 84.9177 119.822 84.8067C119.916 84.6956 120.024 84.6245 120.147 84.5935C120.328 84.5479 120.497 84.5793 120.656 84.6878C120.82 84.7859 120.923 84.917 120.964 85.0812C120.983 85.155 120.984 85.2289 120.968 85.3029L120.456 91.5207ZM136.681 93.4483C136.377 93.5249 136.075 93.54 135.775 93.4934C135.484 93.4448 135.215 93.3469 134.968 93.1997C134.721 93.0524 134.507 92.862 134.326 92.6284C134.143 92.3866 134.013 92.1139 133.937 91.8103C133.86 91.5066 133.846 91.209 133.894 90.9174C133.941 90.6176 134.038 90.3444 134.185 90.0977C134.33 89.8429 134.52 89.6249 134.753 89.4437C134.993 89.2522 135.265 89.1182 135.568 89.0416C135.609 89.0312 135.647 89.026 135.682 89.0259C135.725 89.0237 135.767 89.0175 135.808 89.0071C135.554 88.8969 135.272 88.837 134.964 88.8274C134.663 88.8075 134.327 88.8442 133.958 88.9374C133.49 89.0555 133.109 89.2565 132.814 89.5405C132.517 89.8162 132.282 90.1329 132.111 90.4904C131.945 90.8377 131.832 91.2023 131.771 91.5843C131.709 91.958 131.67 92.3081 131.657 92.6345C131.649 92.9506 131.656 93.2195 131.677 93.4412C131.706 93.6607 131.725 93.7869 131.733 93.8197L133.088 99.2913C133.382 99.2434 133.678 99.2078 133.978 99.1846C134.286 99.1592 134.598 99.1329 134.914 99.1055C135.08 99.1071 135.228 99.1571 135.357 99.2553C135.485 99.3453 135.568 99.4683 135.608 99.6242C135.653 99.8048 135.622 99.9742 135.513 100.132C135.403 100.283 135.27 100.377 135.114 100.417L134.991 100.448C134.295 100.492 133.639 100.558 133.024 100.643C132.408 100.729 131.805 100.846 131.214 100.995C130.623 101.144 130.041 101.326 129.466 101.541C128.892 101.756 128.288 102.009 127.654 102.3L127.531 102.331C127.343 102.378 127.175 102.355 127.029 102.261C126.881 102.159 126.786 102.025 126.745 101.861C126.706 101.705 126.717 101.559 126.778 101.421C126.837 101.275 126.94 101.162 127.085 101.082C127.36 100.96 127.635 100.838 127.909 100.716C128.184 100.595 128.458 100.486 128.731 100.391L126.416 91.2208C125.893 91.3267 125.45 91.4036 125.086 91.4516C124.723 91.4997 124.519 91.5207 124.474 91.5146C124.306 91.5396 124.154 91.5082 124.018 91.4202C123.888 91.322 123.803 91.1908 123.761 91.0267C123.71 90.8215 123.739 90.6439 123.85 90.4938C123.968 90.3416 124.101 90.2469 124.249 90.2096L124.335 90.1879C124.346 90.194 124.444 90.1866 124.631 90.1656C124.816 90.1365 125.055 90.098 125.348 90.0501C125.641 90.0022 125.975 89.9399 126.348 89.8631C126.73 89.7842 127.114 89.6961 127.499 89.5987C127.893 89.4993 128.276 89.3896 128.647 89.2697C129.018 89.1498 129.356 89.0167 129.659 88.8702C129.671 88.8497 129.71 88.8311 129.776 88.8145C129.965 88.7669 130.138 88.7973 130.297 88.9057C130.453 89.006 130.552 89.1381 130.593 89.3023L130.817 90.1885C131.045 89.6071 131.386 89.089 131.839 88.6343C132.297 88.1694 132.896 87.8437 133.635 87.6573C134.197 87.5328 134.73 87.5029 135.235 87.5674C135.739 87.6238 136.194 87.7664 136.6 87.9954C137.014 88.2141 137.365 88.5181 137.656 88.9075C137.952 89.2866 138.168 89.7428 138.302 90.2762C138.387 90.6127 138.416 90.9503 138.388 91.289C138.36 91.6278 138.278 91.9451 138.143 92.241C138.007 92.5287 137.813 92.7827 137.563 93.0029C137.319 93.2128 137.025 93.3613 136.681 93.4483ZM151.303 89.3383L151.25 89.1291C151.095 88.5136 150.885 87.9599 150.621 87.4678C150.358 86.9758 150.031 86.5649 149.643 86.2353C149.26 85.8955 148.814 85.6501 148.305 85.4994C147.795 85.3487 147.217 85.3069 146.571 85.374C146.148 85.533 145.801 85.7473 145.528 86.0168C145.256 86.2864 145.04 86.5896 144.881 86.9266C144.728 87.2534 144.621 87.6077 144.56 87.9896C144.499 88.3716 144.47 88.7586 144.473 89.1506C144.482 89.5324 144.513 89.9131 144.565 90.2928C144.615 90.6642 144.677 91.011 144.749 91.3331C144.891 91.341 145.066 91.3447 145.276 91.3442C145.493 91.3417 145.735 91.3329 146.002 91.3179C146.267 91.2947 146.551 91.2623 146.855 91.2205C147.165 91.1685 147.484 91.1011 147.812 91.0182C148.51 90.8421 149.145 90.6118 149.72 90.3272C150.302 90.0406 150.83 89.711 151.303 89.3383ZM152.68 89.5015C152.709 89.7211 152.641 89.9347 152.475 90.1424C152.309 90.3501 152.086 90.5549 151.805 90.7567C151.522 90.9503 151.202 91.1357 150.846 91.3131C150.495 91.4801 150.145 91.6339 149.797 91.7742C149.448 91.9146 149.125 92.0354 148.828 92.1367C148.528 92.2297 148.292 92.298 148.12 92.3415C147.521 92.4927 146.957 92.5915 146.427 92.6379C145.906 92.6822 145.47 92.7006 145.119 92.6932C145.296 93.1895 145.517 93.6663 145.781 94.1235C146.045 94.5806 146.357 94.973 146.72 95.3006C147.079 95.62 147.487 95.8531 147.943 95.9999C148.397 96.1384 148.903 96.1373 149.461 95.9964C149.667 95.9446 149.894 95.861 150.144 95.7454C150.393 95.6217 150.631 95.4785 150.861 95.3158C151.088 95.1449 151.291 94.9628 151.469 94.7695C151.645 94.5679 151.772 94.3613 151.85 94.1497C151.948 93.9504 152.095 93.8258 152.292 93.7761C152.465 93.7326 152.634 93.7641 152.801 93.8704C152.965 93.9686 153.068 94.0997 153.109 94.2638C153.153 94.4362 153.134 94.585 153.052 94.7104C152.932 95.0638 152.722 95.3917 152.423 95.6941C152.124 95.9965 151.786 96.2652 151.409 96.5C151.033 96.7431 150.644 96.9462 150.24 97.1093C149.838 97.2806 149.465 97.4097 149.12 97.4967C148.135 97.7453 147.176 97.7998 146.241 97.6603C145.309 97.529 144.455 97.2384 143.678 96.7886C142.901 96.3387 142.228 95.7491 141.66 95.0196C141.1 94.288 140.7 93.4463 140.46 92.4944C140.196 91.4522 140.118 90.4856 140.225 89.5944C140.33 88.6951 140.599 87.8939 141.033 87.1909C141.464 86.4797 142.054 85.8769 142.802 85.3826C143.548 84.88 144.434 84.4993 145.46 84.2404C146.438 84.037 147.313 83.9908 148.083 84.102C148.861 84.2111 149.54 84.463 150.12 84.8579C150.699 85.2528 151.187 85.7843 151.583 86.4526C151.985 87.1106 152.298 87.8869 152.524 88.7813C152.576 88.9865 152.613 89.1517 152.636 89.2768C152.657 89.3938 152.671 89.4687 152.68 89.5015ZM163.39 88.6181C163.338 88.4827 163.29 88.3422 163.244 88.1966C163.199 88.051 163.156 87.9002 163.117 87.7443L162.661 87.8592C162.333 87.9421 161.95 88.0651 161.511 88.2282C161.08 88.3893 160.64 88.5833 160.191 88.8101C159.742 89.0369 159.306 89.2996 158.884 89.5982C158.46 89.8886 158.095 90.2076 157.79 90.5552C157.483 90.8946 157.257 91.2616 157.112 91.656C156.976 92.0484 156.962 92.462 157.072 92.897C157.13 93.1267 157.233 93.3102 157.381 93.4474C157.538 93.5825 157.711 93.6827 157.902 93.748C158.099 93.803 158.307 93.8292 158.524 93.8266C158.74 93.8159 158.942 93.7867 159.131 93.739C159.713 93.592 160.235 93.3424 160.696 92.9903C161.164 92.628 161.573 92.2104 161.925 91.7374C162.275 91.2563 162.569 90.7455 162.808 90.2051C163.047 89.6647 163.241 89.1357 163.39 88.6181ZM170.361 91.3888L170.312 91.4012C170.168 91.42 170.022 91.4481 169.875 91.4854C169.727 91.5227 169.583 91.5589 169.444 91.5941C168.673 91.7888 167.942 92.0255 167.253 92.3042C166.572 92.5808 165.901 92.9118 165.239 93.2972C165.214 93.3034 165.19 93.3137 165.168 93.3281C165.145 93.3425 165.114 93.3549 165.073 93.3653C164.884 93.4129 164.709 93.3784 164.549 93.2618C164.399 93.1513 164.305 93.0222 164.268 92.8745L164.243 92.776C164.239 92.7596 164.218 92.5903 164.18 92.2681C164.14 91.9377 164.07 91.4842 163.968 90.9076C163.714 91.3906 163.43 91.8551 163.115 92.3013C162.806 92.7372 162.462 93.1382 162.083 93.5045C161.71 93.8604 161.308 94.1672 160.875 94.4248C160.445 94.6906 159.979 94.8866 159.479 95.013C159.085 95.1124 158.688 95.1472 158.287 95.1173C157.889 95.0956 157.518 95.0102 157.175 94.8612C156.84 94.71 156.547 94.5003 156.296 94.232C156.051 93.9534 155.879 93.6171 155.78 93.2232C155.624 92.6077 155.619 92.033 155.763 91.499C155.916 90.9629 156.166 90.4676 156.514 90.0131C156.86 89.5505 157.279 89.1349 157.771 88.7663C158.269 88.3875 158.787 88.0558 159.327 87.7713C159.864 87.4786 160.396 87.2352 160.923 87.0411C161.448 86.8387 161.92 86.6847 162.338 86.5791L162.634 86.5045C162.507 86.0039 162.294 85.5384 161.993 85.108C161.701 84.6756 161.348 84.3151 160.935 84.0266C160.53 83.7361 160.082 83.5349 159.591 83.4231C159.098 83.3031 158.589 83.3094 158.064 83.442C157.678 83.5393 157.328 83.7454 157.015 84.0602C156.7 84.3667 156.441 84.7245 156.238 85.1334C156.036 85.5424 155.898 85.9789 155.823 86.443C155.756 86.905 155.772 87.333 155.872 87.7268C155.913 87.891 155.879 88.0481 155.768 88.1982C155.664 88.338 155.53 88.4286 155.365 88.4701C155.185 88.5156 155.012 88.4893 154.848 88.3912C154.681 88.2848 154.577 88.1496 154.536 87.9854C154.437 87.5915 154.403 87.1636 154.435 86.7017C154.464 86.2316 154.559 85.7582 154.718 85.2816C154.883 84.7947 155.108 84.319 155.392 83.8545C155.684 83.3878 156.037 82.9539 156.451 82.5527C156.871 82.1412 157.352 81.7798 157.893 81.4687C158.434 81.1575 159.033 80.919 159.689 80.7533C160.608 80.5213 161.428 80.4671 162.149 80.5907C162.878 80.7122 163.522 80.9642 164.081 81.3468C164.649 81.7273 165.142 82.2096 165.56 82.7937C165.978 83.3778 166.343 84.0143 166.657 84.7033C166.971 85.3923 167.238 86.1061 167.459 86.8445C167.689 87.5809 167.89 88.2897 168.062 88.9708C168.149 89.3155 168.219 89.6119 168.273 89.8602C168.327 90.1084 168.375 90.3146 168.416 90.4788C168.539 90.4477 168.661 90.4125 168.782 90.3732C168.911 90.3319 169.038 90.2957 169.161 90.2646C169.3 90.2294 169.445 90.1972 169.595 90.1682C169.753 90.137 169.905 90.1028 170.053 90.0655C170.238 90.0364 170.399 90.0699 170.537 90.166C170.683 90.2601 170.779 90.3974 170.824 90.578C170.868 90.7503 170.844 90.9176 170.754 91.08C170.673 91.2403 170.542 91.3432 170.361 91.3888ZM178.404 76.671C178.445 76.8352 178.425 76.9974 178.343 77.1577C178.268 77.3077 178.15 77.4116 177.99 77.4695C177.467 77.6451 176.947 77.8157 176.43 77.9811C175.913 78.1465 175.39 78.3047 174.861 78.4557L177.036 87.0722C177.077 87.2363 177.148 87.3798 177.249 87.5028C177.358 87.6236 177.479 87.7198 177.61 87.7914C177.75 87.8609 177.897 87.9067 178.051 87.9289C178.205 87.9512 178.356 87.9436 178.503 87.9064C178.725 87.8504 178.891 87.7474 179.001 87.5973C179.118 87.4369 179.204 87.2582 179.259 87.061C179.312 86.8556 179.342 86.6472 179.35 86.4357C179.366 86.2222 179.375 86.0323 179.376 85.866C179.364 85.7121 179.407 85.5745 179.508 85.4531C179.606 85.3236 179.729 85.2402 179.877 85.2029C180.065 85.1553 180.236 85.1908 180.388 85.3095C180.546 85.4179 180.644 85.546 180.681 85.6937L180.716 85.8291C180.753 86.9806 180.499 87.9439 179.952 88.719C179.404 89.4859 178.617 89.9988 177.591 90.2578C177.123 90.3758 176.628 90.4355 176.104 90.4367C175.581 90.4378 175.076 90.321 174.589 90.086C174.11 89.849 173.669 89.4671 173.265 88.9405C172.86 88.4057 172.537 87.6623 172.296 86.7104L170.485 79.5341C170.109 79.6027 169.73 79.6723 169.346 79.743C168.971 79.8116 168.59 79.8771 168.204 79.9396C168.034 79.9564 167.876 79.9177 167.73 79.8236C167.592 79.7275 167.502 79.5973 167.461 79.4332C167.413 79.2445 167.445 79.075 167.555 78.9249C167.674 78.7728 167.807 78.678 167.955 78.6408L168.004 78.6283C168.372 78.5618 168.731 78.4974 169.081 78.435C169.441 78.3705 169.8 78.3061 170.159 78.2416L169.102 74.0565C169.067 73.917 169.08 73.7784 169.141 73.6407C169.201 73.4949 169.295 73.3838 169.424 73.3075L172.293 71.7061C172.314 71.6834 172.34 71.668 172.373 71.6597C172.404 71.6432 172.431 71.6319 172.456 71.6256C172.645 71.578 172.814 71.6094 172.964 71.7199C173.123 71.8284 173.222 71.9647 173.264 72.1288L174.535 77.1633C175.031 77.0205 175.531 76.8726 176.033 76.7195C176.542 76.5562 177.05 76.3888 177.556 76.2173L177.605 76.2048C177.786 76.1593 177.954 76.1866 178.111 76.2868C178.265 76.3789 178.363 76.5069 178.404 76.671ZM191.057 86.5446C191.04 86.5487 191.019 86.5498 190.992 86.5478C190.974 86.5438 190.952 86.5448 190.927 86.5511C190.23 86.5875 189.574 86.6527 188.96 86.7464C188.345 86.832 187.742 86.9493 187.151 87.0985C186.552 87.2497 185.965 87.4327 185.391 87.6475C184.814 87.8541 184.214 88.1058 183.591 88.4029C183.567 88.4091 183.547 88.4183 183.533 88.4307C183.518 88.443 183.499 88.4523 183.474 88.4585C183.286 88.5062 183.112 88.4758 182.954 88.3674C182.804 88.2568 182.708 88.1195 182.666 87.9554C182.629 87.8077 182.64 87.6609 182.699 87.515C182.767 87.3671 182.871 87.2622 183.013 87.2002C183.283 87.0621 183.558 86.9404 183.837 86.835C184.122 86.7194 184.399 86.6059 184.668 86.4945L182.288 77.0656C181.764 77.1715 181.321 77.2484 180.958 77.2965C180.595 77.3445 180.393 77.3737 180.352 77.384C180.181 77.4009 180.027 77.3612 179.889 77.265C179.76 77.1668 179.674 77.0356 179.633 76.8715C179.581 76.6663 179.616 76.4918 179.736 76.3478C179.857 76.2038 179.987 76.1142 180.127 76.079L180.201 76.0604C180.209 76.0583 180.306 76.0468 180.493 76.0259C180.678 75.9967 180.917 75.9582 181.21 75.9103C181.512 75.8604 181.851 75.8011 182.226 75.7325C182.599 75.6557 182.983 75.5676 183.377 75.4682C183.771 75.3687 184.153 75.2591 184.525 75.1392C184.894 75.0111 185.225 74.8707 185.518 74.7181L185.654 74.684C185.842 74.6363 186.015 74.6626 186.171 74.7629C186.325 74.8549 186.423 74.9829 186.465 75.1471L189.025 85.3946C189.323 85.3631 189.62 85.3316 189.918 85.3002C190.221 85.2584 190.533 85.2321 190.854 85.2211C191.016 85.2063 191.162 85.2481 191.291 85.3463C191.421 85.4445 191.504 85.5675 191.541 85.7152C191.589 85.904 191.559 86.0775 191.45 86.2358C191.344 86.4023 191.213 86.5052 191.057 86.5446ZM185.186 70.8085C185.263 71.1121 185.278 71.4138 185.231 71.7136C185.183 72.0052 185.081 72.2754 184.925 72.5241C184.778 72.7708 184.583 72.9857 184.342 73.169C184.108 73.3501 183.839 73.479 183.536 73.5557C183.232 73.6323 182.931 73.6474 182.631 73.6008C182.339 73.5522 182.07 73.4543 181.823 73.3071C181.577 73.1599 181.363 72.9694 181.182 72.7358C180.998 72.494 180.868 72.2213 180.792 71.9177C180.715 71.6141 180.701 71.3165 180.75 71.0249C180.796 70.7251 180.893 70.4518 181.04 70.2052C181.188 69.9585 181.378 69.7446 181.612 69.5634C181.853 69.3802 182.126 69.2502 182.43 69.1736C182.733 69.097 183.031 69.0829 183.323 69.1315C183.622 69.1781 183.896 69.275 184.142 69.4222C184.397 69.5674 184.616 69.7608 184.799 70.0026C184.981 70.2362 185.11 70.5049 185.186 70.8085ZM208.281 81.2803C208.306 81.4486 208.268 81.6067 208.166 81.7547C208.061 81.8945 207.927 81.9852 207.763 82.0266L207.714 82.039C207.309 82.0974 206.92 82.165 206.547 82.2418C206.18 82.3083 205.82 82.3861 205.467 82.4752C204.95 82.6057 204.46 82.7556 203.996 82.925C203.539 83.0841 203.094 83.2575 202.661 83.4453C202.644 83.4495 202.625 83.4588 202.602 83.4732C202.588 83.4855 202.573 83.4938 202.556 83.4979C202.384 83.5414 202.216 83.5141 202.051 83.4159C201.885 83.3096 201.781 83.1743 201.739 83.0102C201.702 82.8625 201.717 82.7147 201.784 82.5667C201.86 82.4167 201.969 82.3107 202.11 82.2488C202.438 82.0962 202.77 81.9599 203.107 81.8401C203.449 81.71 203.801 81.582 204.162 81.4559C204.172 81.1829 204.163 80.8185 204.135 80.3629C204.107 79.9073 204.063 79.4209 204.002 78.9037C203.95 78.3845 203.88 77.8653 203.792 77.3462C203.713 76.825 203.623 76.3633 203.521 75.9612C203.416 75.5427 203.276 75.0935 203.103 74.6135C202.937 74.1315 202.719 73.6979 202.447 73.3126C202.181 72.917 201.86 72.6139 201.484 72.4034C201.116 72.1907 200.682 72.1476 200.181 72.2739C199.615 72.4168 199.125 72.6889 198.712 73.0901C198.298 73.4914 197.969 73.954 197.726 74.478C197.489 74.9917 197.334 75.5329 197.259 76.1017C197.192 76.6684 197.219 77.1897 197.339 77.6657L197.346 77.6903L198.688 83.1126C198.84 83.0917 198.988 83.0719 199.131 83.0531C199.273 83.0261 199.417 83.0073 199.562 82.9967C199.731 82.9716 199.884 83.0072 200.021 83.1034C200.165 83.1893 200.258 83.3143 200.299 83.4784C200.345 83.6589 200.314 83.8325 200.208 83.999C200.11 84.1634 199.979 84.2663 199.815 84.3078C199.782 84.3161 199.754 84.31 199.732 84.2895C199.227 84.3645 198.71 84.4427 198.18 84.5239C197.659 84.6031 197.115 84.7142 196.549 84.8571C196.04 84.9855 195.509 85.1458 194.955 85.338C194.412 85.5363 193.834 85.7737 193.223 86.0501C193.195 86.0748 193.156 86.0934 193.106 86.1058C192.918 86.1534 192.748 86.122 192.598 86.0115C192.448 85.901 192.352 85.7637 192.311 85.5996C192.274 85.4518 192.285 85.3051 192.344 85.1592C192.403 85.0133 192.507 84.9084 192.657 84.8444C192.944 84.7021 193.223 84.5793 193.494 84.4761C193.762 84.3646 194.033 84.2614 194.306 84.1663L191.932 74.7621C191.409 74.868 190.967 74.949 190.606 75.0053C190.251 75.0512 190.051 75.0712 190.005 75.0651C189.837 75.0901 189.684 75.0546 189.546 74.9584C189.417 74.8602 189.331 74.729 189.29 74.5649C189.24 74.3679 189.271 74.1944 189.381 74.0443C189.489 73.886 189.622 73.7872 189.778 73.7478C189.81 73.7395 189.837 73.7415 189.858 73.7538C189.866 73.7517 189.962 73.7361 190.147 73.7069C190.332 73.6778 190.571 73.6393 190.864 73.5914C191.166 73.5414 191.503 73.4781 191.877 73.4013C192.25 73.3245 192.634 73.2363 193.028 73.1369C193.422 73.0375 193.805 72.9319 194.179 72.8202C194.55 72.7003 194.882 72.5641 195.175 72.4115C195.192 72.4074 195.207 72.3992 195.221 72.3868C195.244 72.3724 195.267 72.3621 195.292 72.3558C195.481 72.3082 195.654 72.3386 195.813 72.447C195.977 72.5452 196.08 72.6763 196.121 72.8405L196.442 74.1083C196.741 73.2906 197.175 72.6225 197.742 72.104C198.316 71.5751 199.021 71.205 199.858 70.9938C200.351 70.8695 200.799 70.8479 201.204 70.9291C201.614 71 201.987 71.146 202.322 71.3669C202.666 71.5858 202.967 71.8632 203.227 72.1993C203.492 72.525 203.726 72.8807 203.928 73.2661C204.138 73.6495 204.314 74.0504 204.454 74.4688C204.601 74.877 204.721 75.2657 204.814 75.635C204.917 76.0453 205.011 76.5018 205.094 77.0045C205.175 77.4991 205.244 77.9967 205.301 78.4974C205.366 78.9961 205.412 79.4732 205.439 79.9289C205.475 80.3824 205.495 80.7704 205.498 81.0926C205.814 81.0303 206.138 80.966 206.47 80.8995C206.811 80.831 207.158 80.7738 207.514 80.7278C207.706 80.6966 207.871 80.7424 208.006 80.8652C208.148 80.9778 208.24 81.1162 208.281 81.2803ZM217.061 72.2818C216.943 71.814 216.832 71.375 216.729 70.9647C216.623 70.5462 216.515 70.1543 216.406 69.7892C216.34 69.7011 216.217 69.5618 216.038 69.3713C215.865 69.1705 215.623 68.9873 215.31 68.8218C215.004 68.6459 214.623 68.5195 214.167 68.4426C213.709 68.3574 213.165 68.3812 212.535 68.514C211.707 68.7232 211.041 69.0614 210.539 69.5285C210.035 69.9874 209.663 70.5353 209.422 71.1722C209.182 71.8091 209.066 72.5103 209.076 73.276C209.086 74.0416 209.193 74.8265 209.396 75.6307C209.555 76.2277 209.783 76.7855 210.08 77.3042C210.385 77.8208 210.748 78.2572 211.17 78.6134C211.597 78.9593 212.07 79.2066 212.588 79.3553C213.112 79.4937 213.673 79.4873 214.272 79.3361C214.707 79.2263 215.088 79.0253 215.416 78.7331C215.75 78.4306 216.035 78.0748 216.273 77.6658C216.508 77.2485 216.696 76.7996 216.836 76.3189C216.985 75.8362 217.09 75.3515 217.15 74.8649C217.21 74.3783 217.232 73.9102 217.215 73.4607C217.197 73.0112 217.146 72.6182 217.061 72.2818ZM221.671 65.8022C221.71 65.9581 221.692 66.111 221.617 66.2611C221.547 66.4008 221.442 66.5016 221.3 66.5635C221.153 66.6357 220.996 66.7059 220.83 66.774C220.661 66.8339 220.485 66.8959 220.3 66.9599C220.365 67.2143 220.458 67.5661 220.58 68.0154C220.7 68.4565 220.838 68.9847 220.993 69.6002C221.121 70.109 221.256 70.6598 221.397 71.2527C221.536 71.8374 221.678 72.4519 221.823 73.0961C221.968 73.7404 222.11 74.4072 222.249 75.0966C222.395 75.7757 222.53 76.4661 222.654 77.1679C222.842 78.1856 222.874 79.1944 222.751 80.1944C222.628 81.1943 222.354 82.1146 221.929 82.9551C221.504 83.7956 220.928 84.5256 220.203 85.1452C219.478 85.7647 218.611 86.2018 217.601 86.4566C216.912 86.6306 216.239 86.6783 215.582 86.5997C214.933 86.5191 214.34 86.3326 213.804 86.0403C213.267 85.748 212.807 85.358 212.422 84.8703C212.037 84.3826 211.763 83.8188 211.602 83.1787L211.596 83.1541C211.55 82.9735 211.572 82.8021 211.662 82.6397C211.754 82.4856 211.895 82.3846 212.083 82.337C212.264 82.2914 212.427 82.3157 212.573 82.4098C212.729 82.51 212.83 82.6504 212.876 82.8309C213.004 83.3397 213.217 83.7662 213.513 84.1104C213.812 84.4628 214.16 84.737 214.559 84.9332C214.968 85.1355 215.404 85.2566 215.868 85.2966C216.332 85.3366 216.794 85.2986 217.253 85.1826C217.697 85.0708 218.045 84.8257 218.299 84.4474C218.552 84.0692 218.715 83.5392 218.788 82.8575C218.862 82.1841 218.843 81.3466 218.73 80.3451C218.627 79.3498 218.435 78.1761 218.155 76.824C218.064 77.2573 217.917 77.6785 217.715 78.0874C217.51 78.4882 217.255 78.8582 216.947 79.1976C216.648 79.5349 216.303 79.8272 215.912 80.0744C215.528 80.3196 215.103 80.5012 214.635 80.6192C213.847 80.8181 213.105 80.8352 212.409 80.6705C211.713 80.5058 211.079 80.2075 210.507 79.7757C209.944 79.3418 209.457 78.7969 209.047 78.141C208.637 77.485 208.329 76.7642 208.122 75.9785C207.873 74.9937 207.761 74.0313 207.786 73.0911C207.808 72.1427 207.983 71.2781 208.309 70.4973C208.644 69.7145 209.136 69.0359 209.786 68.4618C210.435 67.8876 211.26 67.4741 212.262 67.2214C212.99 67.0638 213.639 67.0264 214.21 67.1092C214.789 67.19 215.302 67.3356 215.748 67.5461L215.689 67.4169L215.683 67.3922C215.639 67.2199 215.671 67.0505 215.777 66.884C215.883 66.7175 216.019 66.6135 216.183 66.5721L216.207 66.5659C216.216 66.5638 216.286 66.5503 216.42 66.5254C216.553 66.5004 216.723 66.4662 216.931 66.4226C217.146 66.3769 217.39 66.324 217.663 66.2639C217.944 66.2017 218.228 66.1343 218.516 66.0618C218.934 65.9562 219.342 65.8444 219.74 65.7265C220.146 65.6065 220.483 65.4867 220.749 65.367C220.762 65.3465 220.776 65.3341 220.792 65.33C220.817 65.3238 220.838 65.3186 220.854 65.3144C221.026 65.2709 221.196 65.3024 221.362 65.4087C221.527 65.5069 221.63 65.638 221.671 65.8022ZM247.84 53.6974C247.88 53.8533 247.862 54.0063 247.786 54.1563C247.71 54.3063 247.598 54.4133 247.448 54.4773C246.667 54.8054 245.877 55.0833 245.079 55.3109C245.041 56.7171 244.942 57.9685 244.783 59.065C244.623 60.1615 244.445 61.1144 244.247 61.9236C244.056 62.7225 243.863 63.3737 243.667 63.877C243.479 64.3783 243.334 64.7379 243.232 64.9557L244.866 71.4304C245.578 71.2768 246.304 71.1459 247.045 71.0374C247.216 71.0206 247.37 71.0603 247.507 71.1565C247.653 71.2506 247.747 71.3797 247.788 71.5438C247.84 71.7489 247.806 71.9235 247.685 72.0675C247.566 72.2196 247.437 72.3133 247.298 72.3485L247.211 72.3703C246.694 72.431 246.173 72.5102 245.648 72.6079C245.133 72.7117 244.617 72.8288 244.1 72.9593C243.246 73.1747 242.416 73.4281 241.608 73.7193C240.802 74.0188 240.009 74.3542 239.23 74.7254L239.107 74.7565C238.926 74.8021 238.754 74.7758 238.589 74.6776C238.435 74.5856 238.337 74.4575 238.296 74.2934C238.256 74.1375 238.271 73.9897 238.341 73.8499C238.408 73.702 238.515 73.5878 238.66 73.5074C238.988 73.3548 239.318 73.2062 239.648 73.0618C239.978 72.9174 240.318 72.7791 240.669 72.6469L239.321 67.3047C238.62 66.9142 237.922 66.4662 237.227 65.9608C236.538 65.4451 235.876 64.9139 235.24 64.3673C234.605 63.8206 234.004 63.2739 233.438 62.7271C232.879 62.1701 232.373 61.6519 231.92 61.1726C231.467 60.6933 231.077 60.2723 230.75 59.9097C230.431 59.5451 230.191 59.2695 230.031 59.0831C229.721 59.1351 229.411 59.1871 229.101 59.2392C228.789 59.283 228.475 59.3186 228.159 59.346C227.989 59.3628 227.839 59.3221 227.71 59.2239C227.572 59.1277 227.483 59.0016 227.444 58.8457C227.39 58.6324 227.424 58.4537 227.544 58.3097C227.663 58.1576 227.792 58.0639 227.932 58.0287L228.018 58.0069C228.769 57.9395 229.5 57.8465 230.213 57.7279C230.931 57.599 231.639 57.4465 232.336 57.2704C233.034 57.0944 233.717 56.8958 234.385 56.6746C235.06 56.4432 235.728 56.183 236.388 55.8941L236.462 55.8755C236.651 55.8278 236.823 55.8541 236.979 55.9544C237.136 56.0546 237.235 56.1909 237.279 56.3632C237.318 56.5191 237.3 56.6721 237.225 56.8221C237.157 56.9701 237.045 57.0771 236.887 57.1431C236.587 57.2711 236.279 57.397 235.961 57.5209C235.641 57.6365 235.32 57.7481 234.998 57.8556C235.31 58.1956 235.72 58.6247 236.226 59.1429C236.738 59.6508 237.311 60.1914 237.945 60.7648C238.584 61.3278 239.267 61.8887 239.993 62.4474C240.719 63.0062 241.46 63.5043 242.217 63.9419C242.337 63.6584 242.476 63.2742 242.633 62.7894C242.788 62.2964 242.939 61.7038 243.087 61.0117C243.236 60.3196 243.371 59.5259 243.495 58.6307C243.616 57.7272 243.699 56.7243 243.743 55.6219C243.345 55.7049 242.95 55.7827 242.558 55.8555C242.167 55.9282 241.769 55.9804 241.367 56.0121C241.197 56.029 241.043 55.9893 240.905 55.8931C240.776 55.7949 240.691 55.6678 240.652 55.5119C240.602 55.3149 240.632 55.1414 240.743 54.9913C240.86 54.8309 240.988 54.7331 241.127 54.6979L241.226 54.6731C241.728 54.6247 242.219 54.562 242.697 54.485C243.183 54.4059 243.669 54.3052 244.153 54.183C244.637 54.0608 245.108 53.9201 245.565 53.761C246.022 53.6019 246.476 53.4264 246.925 53.2345L247.023 53.2097C247.196 53.1662 247.365 53.1976 247.531 53.3039C247.696 53.4021 247.799 53.5332 247.84 53.6974ZM262.438 61.7314C262.336 61.3293 262.189 60.9345 261.995 60.5469C261.801 60.1594 261.569 59.7946 261.3 59.4524C261.03 59.1102 260.73 58.8019 260.398 58.5276C260.067 58.2533 259.715 58.0324 259.341 57.8649C258.973 57.6872 258.587 57.5752 258.182 57.5289C257.784 57.4723 257.38 57.4958 256.969 57.5994C256.51 57.7154 256.127 57.8948 255.822 58.1377C255.523 58.3704 255.279 58.6501 255.091 58.9769C254.901 59.2955 254.766 59.6437 254.687 60.0216C254.608 60.3995 254.567 60.7896 254.564 61.192C254.56 61.5943 254.587 61.9935 254.643 62.3895C254.7 62.7856 254.772 63.16 254.861 63.5129C254.952 63.874 255.066 64.2555 255.203 64.6575C255.337 65.0514 255.496 65.439 255.679 65.8203C255.861 66.1935 256.068 66.5472 256.301 66.8812C256.533 67.2153 256.796 67.4939 257.088 67.7169C257.38 67.94 257.702 68.0943 258.056 68.1797C258.417 68.263 258.815 68.2498 259.25 68.14C259.964 67.9598 260.563 67.6516 261.046 67.2153C261.536 66.7687 261.911 66.2506 262.173 65.6609C262.434 65.0712 262.584 64.4355 262.621 63.7539C262.667 63.0703 262.606 62.3961 262.438 61.7314ZM263.718 61.4082C263.967 62.393 264.018 63.3402 263.872 64.2499C263.727 65.1596 263.429 65.9854 262.979 66.7275C262.527 67.4613 261.94 68.0939 261.219 68.6251C260.506 69.1543 259.706 69.5307 258.82 69.7544C257.819 70.0071 256.871 70.076 255.978 69.961C255.095 69.8522 254.293 69.5789 253.572 69.1413C252.85 68.7037 252.23 68.1139 251.711 67.372C251.2 66.628 250.816 65.7472 250.56 64.7297C250.315 63.7613 250.258 62.8244 250.387 61.9189C250.516 61.0133 250.802 60.1906 251.243 59.4506C251.683 58.7024 252.259 58.0637 252.973 57.5346C253.692 56.9951 254.515 56.6084 255.442 56.3743C256.411 56.1299 257.343 56.0867 258.238 56.2448C259.139 56.3926 259.959 56.7007 260.697 57.1691C261.433 57.6293 262.064 58.2252 262.589 58.9568C263.114 59.6884 263.49 60.5056 263.718 61.4082ZM280.084 50.7698C280.121 50.9175 280.106 51.0654 280.039 51.2133C279.979 51.3592 279.871 51.4651 279.713 51.5312C279.442 51.6693 279.169 51.7952 278.892 51.9087C278.613 52.014 278.339 52.1224 278.07 52.2339L280.446 62.4756C280.733 62.4031 281.027 62.3378 281.326 62.2796C281.632 62.2112 281.934 62.1613 282.231 62.1298C282.416 62.1006 282.574 62.1393 282.706 62.2457C282.843 62.3419 282.931 62.4638 282.968 62.6115C283.02 62.8167 282.991 62.9943 282.88 63.1444C282.78 63.3007 282.656 63.3974 282.508 63.4347L282.434 63.4533C282.087 63.4972 281.748 63.5524 281.416 63.6188C281.091 63.6832 280.773 63.7548 280.461 63.8335C279.895 63.9764 279.34 64.147 278.797 64.3453C278.262 64.5415 277.739 64.7695 277.228 65.0293L277.093 65.0635C276.92 65.107 276.752 65.0797 276.588 64.9815C276.425 64.8916 276.323 64.7645 276.282 64.6004L276.276 64.5758L275.781 62.3046C275.502 63.3788 275.081 64.2532 274.518 64.9277C273.953 65.5941 273.248 66.0339 272.403 66.2473C271.869 66.3819 271.376 66.4149 270.922 66.3461C270.476 66.2753 270.061 66.1356 269.677 65.9271C269.299 65.7083 268.956 65.4371 268.647 65.1135C268.344 64.7796 268.075 64.4199 267.838 64.0346C267.607 63.6389 267.408 63.2309 267.241 62.8105C267.073 62.39 266.94 61.9829 266.841 61.589C266.569 60.514 266.406 59.4336 266.35 58.3478C266.302 57.26 266.372 56.2037 266.558 55.179L264.327 55.6767C264.142 55.7059 263.974 55.6785 263.822 55.5947C263.676 55.5006 263.58 55.3633 263.535 55.1828C263.493 55.0187 263.519 54.8595 263.611 54.7053C263.7 54.543 263.84 54.438 264.029 54.3903L267.297 53.6439C267.484 53.623 267.65 53.6595 267.796 53.7536C267.948 53.8375 268.046 53.9655 268.089 54.1379C268.106 54.2035 268.109 54.2682 268.099 54.3318C268.095 54.3852 268.087 54.4396 268.075 54.4951C267.958 54.6903 267.869 54.9615 267.809 55.3085C267.748 55.6556 267.711 56.0447 267.697 56.4758C267.682 56.8987 267.686 57.3472 267.71 57.8213C267.731 58.2872 267.763 58.7418 267.805 59.1851C267.845 59.6202 267.894 60.0224 267.953 60.3918C268.011 60.7611 268.069 61.0607 268.127 61.2905C268.256 61.7992 268.427 62.3059 268.642 62.8104C268.862 63.3046 269.133 63.7381 269.454 64.111C269.773 64.4756 270.148 64.7478 270.577 64.9274C271.004 65.0989 271.497 65.1142 272.055 64.9733C272.556 64.847 272.995 64.5832 273.374 64.1821C273.751 63.7728 274.052 63.2517 274.276 62.619C274.509 61.9842 274.662 61.2428 274.736 60.3948C274.818 59.5448 274.818 58.6108 274.736 57.5929L273.634 52.6073C273.589 52.4267 273.622 52.2655 273.735 52.1236C273.845 51.9735 273.979 51.8788 274.134 51.8395L274.208 51.8208C274.498 51.7914 274.788 51.7487 275.079 51.6926C275.369 51.6283 275.669 51.5568 275.981 51.4781C276.482 51.3517 276.997 51.1956 277.526 51.0096C278.063 50.8216 278.613 50.5956 279.175 50.3316C279.191 50.3274 279.206 50.3192 279.221 50.3068C279.235 50.2945 279.25 50.2862 279.267 50.2821C279.456 50.2345 279.629 50.2649 279.787 50.3733C279.944 50.4735 280.042 50.6057 280.084 50.7698ZM294.263 53.672C293.96 53.7486 293.658 53.7637 293.358 53.7171C293.067 53.6685 292.798 53.5706 292.551 53.4234C292.304 53.2761 292.09 53.0857 291.909 52.8521C291.726 52.6103 291.596 52.3376 291.519 52.034C291.443 51.7303 291.429 51.4327 291.477 51.1411C291.524 50.8413 291.621 50.5681 291.768 50.3214C291.913 50.0666 292.102 49.8486 292.336 49.6674C292.576 49.4759 292.847 49.3419 293.151 49.2653C293.192 49.2549 293.23 49.2497 293.265 49.2496C293.308 49.2474 293.35 49.2412 293.391 49.2308C293.136 49.1206 292.855 49.0607 292.547 49.0511C292.245 49.0312 291.91 49.0679 291.541 49.1611C291.073 49.2792 290.691 49.4802 290.396 49.7642C290.099 50.0399 289.865 50.3566 289.694 50.7141C289.528 51.0614 289.415 51.426 289.354 51.808C289.291 52.1817 289.253 52.5318 289.24 52.8582C289.232 53.1743 289.239 53.4432 289.26 53.6649C289.289 53.8844 289.308 54.0106 289.316 54.0435L290.671 59.515C290.965 59.4671 291.261 59.4315 291.561 59.4083C291.869 59.3829 292.181 59.3566 292.497 59.3292C292.663 59.3308 292.811 59.3808 292.94 59.479C293.068 59.569 293.151 59.692 293.191 59.8479C293.236 60.0285 293.205 60.1979 293.096 60.3562C292.986 60.5063 292.853 60.601 292.697 60.6404L292.574 60.6715C291.878 60.7161 291.222 60.7813 290.606 60.8668C289.991 60.9524 289.388 61.0697 288.797 61.2189C288.206 61.368 287.623 61.55 287.049 61.7648C286.475 61.9795 285.871 62.2324 285.237 62.5232L285.114 62.5543C284.925 62.602 284.758 62.5787 284.612 62.4846C284.464 62.3823 284.369 62.2491 284.328 62.085C284.289 61.9291 284.3 61.7823 284.361 61.6446C284.42 61.4987 284.522 61.3856 284.668 61.3052C284.943 61.1835 285.217 61.0618 285.492 60.94C285.767 60.8183 286.041 60.7099 286.314 60.6149L283.999 51.4445C283.476 51.5504 283.032 51.6273 282.669 51.6753C282.306 51.7234 282.102 51.7444 282.057 51.7383C281.888 51.7633 281.736 51.7319 281.601 51.6439C281.471 51.5457 281.386 51.4145 281.344 51.2504C281.293 51.0452 281.322 50.8676 281.432 50.7175C281.551 50.5653 281.684 50.4706 281.832 50.4333L281.918 50.4116C281.928 50.4177 282.027 50.4103 282.214 50.3893C282.398 50.3602 282.637 50.3217 282.931 50.2738C283.224 50.2259 283.558 50.1636 283.931 50.0868C284.313 50.0079 284.696 49.9198 285.082 49.8224C285.476 49.723 285.859 49.6133 286.23 49.4934C286.601 49.3735 286.939 49.2404 287.242 49.0939C287.254 49.0734 287.293 49.0548 287.359 49.0382C287.548 48.9906 287.721 49.021 287.879 49.1294C288.036 49.2297 288.134 49.3618 288.176 49.526L288.4 50.4122C288.628 49.8308 288.969 49.3127 289.421 48.8581C289.88 48.3931 290.479 48.0674 291.217 47.881C291.78 47.7565 292.313 47.7266 292.818 47.7911C293.321 47.8475 293.776 47.9901 294.183 48.2191C294.596 48.4378 294.948 48.7418 295.238 49.1312C295.535 49.5103 295.75 49.9665 295.885 50.4999C295.97 50.8364 295.998 51.174 295.97 51.5127C295.943 51.8515 295.861 52.1688 295.726 52.4647C295.589 52.7524 295.396 53.0064 295.146 53.2266C294.902 53.4365 294.608 53.585 294.263 53.672ZM321.254 34.3418C321.289 34.4813 321.281 34.623 321.23 34.7668C321.185 34.9003 321.098 35.0052 320.969 35.0814C320.701 35.2278 320.435 35.369 320.173 35.5051C319.908 35.6329 319.637 35.7536 319.361 35.8672C319.901 37.1099 320.367 38.3322 320.758 39.5342C321.156 40.7342 321.507 41.9332 321.81 43.1313C322.22 44.7561 322.55 46.3401 322.799 47.8831C323.057 49.4241 323.28 50.9437 323.466 52.4417C323.462 52.6347 323.41 52.7918 323.31 52.9132C323.22 53.0407 323.101 53.123 322.953 53.1603C322.674 53.2307 322.448 53.1481 322.275 52.9125C321.904 52.4124 321.416 51.807 320.808 51.0961C320.207 50.3749 319.539 49.6097 318.802 48.8005C318.071 47.9811 317.3 47.1371 316.487 46.2686C315.682 45.3981 314.894 44.5582 314.122 43.7492C313.359 42.938 312.64 42.1812 311.965 41.4786C311.288 40.7679 310.713 40.1667 310.24 39.6751L313.472 54.0348C313.79 53.9807 314.112 53.9255 314.438 53.8694C314.772 53.8111 315.107 53.7529 315.441 53.6947C315.612 53.6779 315.766 53.7175 315.903 53.8137C316.049 53.9078 316.143 54.0369 316.185 54.201C316.232 54.3898 316.201 54.5592 316.09 54.7093C315.98 54.8594 315.847 54.9541 315.691 54.9935L315.641 55.0059C314.968 55.106 314.299 55.2224 313.635 55.3553C312.978 55.4861 312.322 55.6344 311.665 55.8001C311.017 55.9637 310.377 56.1427 309.745 56.3371C309.121 56.5295 308.498 56.7392 307.874 56.9664L307.825 56.9789C307.644 57.0244 307.472 56.9981 307.308 56.9C307.153 56.808 307.056 56.6799 307.014 56.5158C306.973 56.3516 306.99 56.1946 307.065 56.0446C307.149 55.8925 307.27 55.7834 307.428 55.7173C307.725 55.6161 308.023 55.5148 308.32 55.4136C308.626 55.3102 308.927 55.2079 309.225 55.1067L305.587 39.501C304.869 39.6299 304.136 39.7362 303.389 39.82C303.219 39.8368 303.065 39.7972 302.927 39.701C302.795 39.5946 302.709 39.4593 302.667 39.2951C302.618 39.0982 302.653 38.9277 302.774 38.7838C302.893 38.6316 303.022 38.5379 303.161 38.5027L303.235 38.4841C304.142 38.3773 305.023 38.2511 305.876 38.1055C306.736 37.9496 307.584 37.766 308.421 37.5547L309.332 37.3248C309.34 37.3227 309.366 37.3206 309.409 37.3185C309.45 37.3081 309.497 37.3049 309.551 37.3089C309.612 37.3108 309.677 37.325 309.745 37.3516C309.821 37.376 309.893 37.419 309.961 37.4804C310.008 37.5296 310.161 37.6873 310.421 37.9535C310.68 38.2198 311.016 38.567 311.43 38.995C311.843 39.4231 312.318 39.9188 312.853 40.4821C313.396 41.0433 313.971 41.6445 314.578 42.2856C315.193 42.9246 315.824 43.5903 316.47 44.2827C317.116 44.975 317.754 45.6695 318.384 46.3659C319.02 47.0522 319.631 47.7271 320.217 48.3909C320.81 49.0444 321.349 49.6589 321.835 50.2347C321.67 49.1327 321.485 48.0185 321.279 46.892C321.073 45.7656 320.823 44.6197 320.529 43.4544C320.235 42.2892 319.89 41.1106 319.493 39.9189C319.096 38.7272 318.634 37.5171 318.105 36.2888C318.003 36.3321 317.902 36.3662 317.804 36.3911C317.705 36.4159 317.599 36.4428 317.484 36.4718C317 36.5941 316.489 36.6968 315.951 36.7802C315.783 36.8052 315.626 36.7706 315.48 36.6765C315.34 36.5722 315.249 36.4379 315.208 36.2738C315.162 36.0933 315.19 35.9249 315.29 35.7686C315.398 35.6103 315.534 35.5105 315.699 35.469L315.772 35.4504C316.011 35.4252 316.242 35.3929 316.468 35.3534C316.7 35.3036 316.931 35.2497 317.161 35.1917C317.727 35.0488 318.271 34.872 318.794 34.6615C319.317 34.4509 319.82 34.2106 320.301 33.9406C320.33 33.9159 320.385 33.8932 320.468 33.8725C320.648 33.8269 320.812 33.8553 320.96 33.9576C321.115 34.0496 321.212 34.1777 321.254 34.3418ZM337.943 42.6728C337.841 42.2707 337.694 41.8759 337.5 41.4884C337.306 41.1008 337.074 40.736 336.805 40.3938C336.535 40.0516 336.234 39.7434 335.903 39.469C335.572 39.1947 335.22 38.9738 334.846 38.8064C334.478 38.6286 334.092 38.5166 333.687 38.4703C333.289 38.4137 332.885 38.4372 332.474 38.5408C332.015 38.6568 331.632 38.8362 331.327 39.0792C331.028 39.3118 330.784 39.5915 330.596 39.9183C330.406 40.2369 330.271 40.5852 330.192 40.9631C330.113 41.3409 330.072 41.731 330.068 42.1334C330.065 42.5357 330.092 42.9349 330.148 43.331C330.204 43.727 330.277 44.1015 330.366 44.4543C330.457 44.8154 330.571 45.1969 330.707 45.599C330.842 45.9928 331.001 46.3804 331.184 46.7618C331.366 47.135 331.573 47.4886 331.806 47.8226C332.038 48.1567 332.301 48.4353 332.593 48.6584C332.885 48.8814 333.207 49.0357 333.561 49.1211C333.922 49.2044 334.32 49.1912 334.755 49.0814C335.469 48.9012 336.068 48.593 336.551 48.1567C337.041 47.7102 337.416 47.192 337.678 46.6023C337.939 46.0126 338.089 45.3769 338.126 44.6953C338.172 44.0117 338.111 43.3375 337.943 42.6728ZM339.223 42.3497C339.472 43.3344 339.523 44.2816 339.377 45.1913C339.231 46.101 338.934 46.9269 338.484 47.6689C338.032 48.4028 337.445 49.0353 336.724 49.5665C336.011 50.0957 335.211 50.4721 334.325 50.6959C333.324 50.9486 332.376 51.0174 331.483 50.9025C330.6 50.7936 329.798 50.5204 329.077 50.0827C328.355 49.6451 327.735 49.0553 327.216 48.3134C326.705 47.5694 326.321 46.6887 326.064 45.6711C325.82 44.7028 325.762 43.7658 325.892 42.8603C326.021 41.9548 326.307 41.132 326.748 40.392C327.188 39.6438 327.764 39.0051 328.477 38.476C329.197 37.9365 330.02 37.5498 330.947 37.3157C331.916 37.0713 332.847 37.0281 333.743 37.1862C334.644 37.334 335.464 37.6421 336.202 38.1105C336.938 38.5707 337.568 39.1666 338.094 39.8982C338.619 40.6298 338.995 41.447 339.223 42.3497ZM349.552 33.4708C349.593 33.6349 349.573 33.7971 349.491 33.9574C349.415 34.1074 349.298 34.2114 349.138 34.2692C348.615 34.4449 348.095 34.6154 347.578 34.7808C347.061 34.9462 346.538 35.1044 346.009 35.2555L348.183 43.8719C348.225 44.0361 348.296 44.1796 348.397 44.3025C348.506 44.4234 348.626 44.5196 348.758 44.5911C348.898 44.6606 349.044 44.7065 349.198 44.7287C349.352 44.7509 349.503 44.7434 349.651 44.7061C349.873 44.6502 350.039 44.5472 350.149 44.3971C350.266 44.2367 350.352 44.0579 350.407 43.8607C350.459 43.6553 350.49 43.4469 350.497 43.2355C350.513 43.0219 350.522 42.8321 350.524 42.6658C350.511 42.5119 350.555 42.3742 350.655 42.2529C350.754 42.1233 350.877 42.0399 351.024 42.0026C351.213 41.955 351.383 41.9905 351.536 42.1092C351.694 42.2177 351.792 42.3458 351.829 42.4935L351.863 42.6289C351.901 43.7804 351.646 44.7437 351.1 45.5188C350.552 46.2857 349.765 46.7986 348.739 47.0575C348.271 47.1756 347.775 47.2352 347.252 47.2364C346.729 47.2376 346.223 47.1207 345.736 46.8857C345.257 46.6487 344.816 46.2669 344.413 45.7403C344.007 45.2054 343.684 44.462 343.444 43.5101L341.633 36.3339C341.257 36.4024 340.877 36.4721 340.494 36.5427C340.118 36.6113 339.738 36.6769 339.352 36.7393C339.182 36.7561 339.023 36.7175 338.877 36.6234C338.74 36.5272 338.65 36.3971 338.609 36.233C338.561 36.0442 338.592 35.8748 338.703 35.7247C338.822 35.5725 338.955 35.4778 339.103 35.4405L339.152 35.4281C339.519 35.3616 339.878 35.2971 340.229 35.2347C340.588 35.1703 340.947 35.1058 341.306 35.0414L340.25 30.8562C340.215 30.7167 340.228 30.5781 340.289 30.4405C340.348 30.2946 340.442 30.1835 340.572 30.1073L343.441 28.5058C343.461 28.4832 343.488 28.4677 343.521 28.4594C343.551 28.443 343.579 28.4316 343.604 28.4254C343.792 28.3777 343.962 28.4092 344.112 28.5197C344.27 28.6281 344.37 28.7644 344.412 28.9285L345.682 33.963C346.179 33.8202 346.678 33.6723 347.181 33.5193C347.689 33.356 348.197 33.1885 348.704 33.017L348.753 33.0046C348.934 32.959 349.102 32.9863 349.258 33.0866C349.412 33.1786 349.51 33.3067 349.552 33.4708ZM363.514 35.773L363.461 35.5638C363.306 34.9483 363.096 34.3945 362.833 33.9025C362.569 33.4104 362.242 32.9996 361.854 32.67C361.471 32.3301 361.025 32.0848 360.516 31.9341C360.006 31.7833 359.428 31.7415 358.782 31.8087C358.359 31.9677 358.012 32.182 357.74 32.4515C357.467 32.721 357.251 33.0243 357.092 33.3613C356.939 33.688 356.832 34.0424 356.771 34.4243C356.71 34.8062 356.681 35.1932 356.684 35.5853C356.694 35.9671 356.724 36.3478 356.776 36.7274C356.826 37.0989 356.888 37.4456 356.96 37.7677C357.102 37.7756 357.278 37.7793 357.487 37.7789C357.704 37.7763 357.947 37.7676 358.213 37.7526C358.478 37.7294 358.762 37.6969 359.066 37.6552C359.376 37.6032 359.695 37.5357 360.023 37.4529C360.721 37.2768 361.357 37.0465 361.931 36.7619C362.513 36.4753 363.041 36.1456 363.514 35.773ZM364.891 35.9362C364.92 36.1557 364.852 36.3694 364.686 36.5771C364.52 36.7848 364.297 36.9895 364.016 37.1913C363.733 37.3849 363.414 37.5704 363.057 37.7477C362.706 37.9148 362.357 38.0685 362.008 38.2089C361.659 38.3493 361.336 38.4701 361.039 38.5714C360.739 38.6644 360.503 38.7327 360.331 38.7762C359.732 38.9274 359.168 39.0262 358.638 39.0725C358.117 39.1168 357.681 39.1353 357.33 39.1279C357.508 39.6242 357.728 40.101 357.992 40.5581C358.256 41.0153 358.569 41.4077 358.931 41.7353C359.291 42.0547 359.699 42.2878 360.155 42.4345C360.609 42.5731 361.115 42.5719 361.673 42.4311C361.878 42.3793 362.105 42.2956 362.356 42.1801C362.604 42.0564 362.843 41.9132 363.072 41.7505C363.3 41.5796 363.502 41.3975 363.681 41.2041C363.857 41.0026 363.983 40.796 364.061 40.5844C364.159 40.385 364.307 40.2605 364.503 40.2108C364.676 40.1673 364.845 40.1987 365.012 40.3051C365.176 40.4032 365.279 40.5344 365.321 40.6985C365.364 40.8708 365.345 41.0197 365.263 41.1451C365.143 41.4984 364.933 41.8263 364.634 42.1288C364.335 42.4312 363.997 42.6998 363.62 42.9347C363.245 43.1778 362.855 43.3808 362.451 43.5439C362.049 43.7152 361.676 43.8444 361.331 43.9314C360.346 44.1799 359.387 44.2344 358.453 44.0949C357.52 43.9636 356.666 43.6731 355.889 43.2232C355.112 42.7734 354.439 42.1837 353.871 41.4543C353.311 40.7227 352.911 39.881 352.671 38.9291C352.408 37.8869 352.33 36.9202 352.436 36.0291C352.541 35.1298 352.81 34.3286 353.244 33.6256C353.675 32.9144 354.265 32.3116 355.013 31.8172C355.759 31.3147 356.645 30.9339 357.671 30.675C358.65 30.4716 359.524 30.4255 360.294 30.5367C361.072 30.6457 361.751 30.8977 362.331 31.2926C362.911 31.6874 363.398 32.219 363.794 32.8873C364.196 33.5453 364.51 34.3215 364.735 35.216C364.787 35.4212 364.824 35.5863 364.847 35.7115C364.868 35.8284 364.883 35.9033 364.891 35.9362ZM379.914 34.8151C380.032 35.2829 380.059 35.7344 379.994 36.1697C379.928 36.5968 379.795 37.0056 379.597 37.3961C379.397 37.7784 379.142 38.1351 378.833 38.4663C378.53 38.7872 378.193 39.0774 377.822 39.3369C377.461 39.6025 377.081 39.825 376.681 40.0045C376.283 40.1922 375.891 40.3348 375.505 40.4321C374.463 40.6952 373.443 40.7868 372.446 40.707C371.45 40.6353 370.498 40.3737 369.589 39.9221C369.625 40.0616 369.66 40.2011 369.695 40.3406C369.728 40.4719 369.769 40.5971 369.816 40.716L369.828 40.7652C369.87 40.9294 369.85 41.0916 369.768 41.2519C369.694 41.4101 369.576 41.5099 369.411 41.5514C369.223 41.599 369.044 41.583 368.876 41.5033C368.717 41.4298 368.609 41.313 368.552 41.153C368.494 40.993 368.444 40.831 368.403 40.6669C368.359 40.4945 368.316 40.3222 368.272 40.1499C368.195 39.8463 368.124 39.5457 368.058 39.2482C367.999 38.9486 367.95 38.6819 367.908 38.448C367.864 38.2059 367.828 38.0099 367.799 37.8601C367.776 37.7001 367.767 37.6108 367.771 37.5923C367.746 37.424 367.777 37.2721 367.865 37.1364C367.959 36.9904 368.088 36.8967 368.252 36.8553C368.457 36.8035 368.634 36.8288 368.782 36.9311C368.93 37.0334 369.024 37.1625 369.063 37.3184L369.082 37.3923C369.09 37.46 369.101 37.5359 369.113 37.6201C369.121 37.6878 369.134 37.7719 369.151 37.8725C369.167 37.973 369.186 38.0817 369.207 38.1987C370.154 38.8062 371.122 39.1817 372.11 39.3252C373.104 39.4584 374.126 39.3925 375.176 39.1273C375.299 39.0963 375.457 39.0477 375.65 38.9815C375.843 38.9154 376.042 38.839 376.247 38.7523C376.458 38.6554 376.667 38.5502 376.874 38.4369C377.079 38.3153 377.256 38.1876 377.406 38.0538C377.562 37.9098 377.676 37.7587 377.75 37.6004C377.832 37.4401 377.85 37.2697 377.804 37.0892C377.759 36.9086 377.636 36.7693 377.437 36.6713C377.244 36.5629 377.009 36.4824 376.734 36.4296C376.459 36.3769 376.159 36.3478 375.835 36.3424C375.519 36.3349 375.21 36.3387 374.908 36.3537C374.615 36.3667 374.349 36.3858 374.111 36.4109C373.881 36.434 373.711 36.4509 373.6 36.4614C372.875 36.5656 372.144 36.6063 371.405 36.5834C370.672 36.5501 369.986 36.4265 369.347 36.2124C368.708 35.9983 368.155 35.6752 367.688 35.2432C367.221 34.8111 366.899 34.2422 366.721 33.5365C366.538 32.8143 366.522 32.1288 366.673 31.4798C366.821 30.8226 367.083 30.2328 367.457 29.7106C367.84 29.1863 368.312 28.7398 368.873 28.3711C369.443 28.0003 370.052 27.7331 370.701 27.5694C371.554 27.354 372.389 27.2567 373.206 27.2774C374.029 27.2878 374.817 27.4338 375.569 27.7154C375.597 27.5162 375.638 27.3139 375.691 27.1085C375.742 26.895 375.795 26.6896 375.849 26.4924C375.888 26.3691 375.951 26.2705 376.037 26.1964C376.131 26.1202 376.227 26.0697 376.326 26.0448C376.514 25.9972 376.687 26.0235 376.843 26.1237C376.997 26.2157 377.095 26.3438 377.137 26.5079C377.17 26.6392 377.165 26.7583 377.122 26.8651C376.951 27.5019 376.831 28.1344 376.763 28.7627C376.701 29.3807 376.706 29.9903 376.779 30.5916C376.794 30.7537 376.753 30.9037 376.657 31.0414C376.561 31.1792 376.431 31.2687 376.267 31.3102C376.086 31.3557 375.918 31.3284 375.762 31.2282C375.603 31.1198 375.504 30.9835 375.462 30.8194L375.437 30.7209C375.399 30.1893 375.389 29.6464 375.406 29.0921C374.697 28.7735 373.971 28.612 373.228 28.6075C372.483 28.5948 371.749 28.6796 371.027 28.8619C370.781 28.924 370.529 29.018 370.273 29.1438C370.015 29.2614 369.782 29.4118 369.575 29.5949C369.374 29.7678 369.221 29.9724 369.115 30.2087C369.017 30.443 369.004 30.7037 369.076 30.9909C369.141 31.2453 369.28 31.4502 369.494 31.6058C369.705 31.7531 369.957 31.8685 370.249 31.952C370.54 32.0355 370.856 32.0912 371.194 32.1192C371.541 32.1451 371.876 32.1566 372.198 32.1538C372.529 32.149 372.831 32.138 373.106 32.121C373.39 32.1019 373.613 32.0891 373.778 32.0825C374.381 32.0524 375.006 32.0561 375.653 32.0937C376.306 32.1209 376.918 32.2283 377.489 32.4159C378.066 32.5931 378.573 32.8712 379.009 33.2499C379.445 33.6287 379.747 34.1504 379.914 34.8151ZM386.887 35.3597C386.953 35.6223 386.966 35.8809 386.925 36.1355C386.885 36.3901 386.8 36.6254 386.671 36.8412C386.551 37.0549 386.388 37.2401 386.183 37.3965C385.978 37.553 385.744 37.6644 385.482 37.7307C385.219 37.7969 384.961 37.8098 384.706 37.7694C384.451 37.7289 384.216 37.6442 384 37.5154C383.784 37.3866 383.598 37.2197 383.442 37.0148C383.285 36.8099 383.174 36.5761 383.108 36.3135C383.043 36.0591 383.032 35.8046 383.072 35.55C383.112 35.2954 383.198 35.0642 383.329 34.8566C383.46 34.649 383.628 34.467 383.833 34.3105C384.038 34.154 384.271 34.0426 384.534 33.9763C384.797 33.9101 385.055 33.8972 385.31 33.9376C385.565 33.9781 385.795 34.0597 386 34.1824C386.214 34.303 386.399 34.4658 386.556 34.6707C386.712 34.8756 386.822 35.1053 386.887 35.3597ZM383.519 20.8248C383.651 21.35 383.77 21.9574 383.874 22.6469C383.984 23.3261 384.081 24.0566 384.165 24.8385C384.257 25.6183 384.341 26.4351 384.417 27.2889C384.491 28.1344 384.565 28.98 384.639 29.8255C384.685 30.3201 384.728 30.8024 384.768 31.2724C384.808 31.7424 384.85 32.2031 384.894 32.6546C384.911 32.8249 384.872 32.979 384.775 33.1167C384.677 33.2463 384.546 33.3318 384.382 33.3732C384.226 33.4125 384.074 33.3985 383.926 33.3311C383.784 33.2534 383.68 33.1356 383.614 32.9777C383.437 32.5512 383.247 32.1103 383.045 31.655C382.842 31.1998 382.64 30.7271 382.438 30.237C382.106 29.4741 381.774 28.7112 381.441 27.9484C381.115 27.1753 380.81 26.4318 380.525 25.7181C380.238 24.9962 379.979 24.3153 379.747 23.6754C379.522 23.0252 379.343 22.4375 379.211 21.9123C379.136 21.6169 379.12 21.3285 379.163 21.0472C379.211 20.7556 379.309 20.4865 379.456 20.2398C379.603 19.9932 379.791 19.7844 380.018 19.6135C380.252 19.4323 380.516 19.3045 380.812 19.2299C381.107 19.1553 381.401 19.1423 381.692 19.1909C381.982 19.2313 382.25 19.3251 382.497 19.4724C382.743 19.6196 382.957 19.81 383.138 20.0436C383.317 20.269 383.444 20.5294 383.519 20.8248Z" fill="black"/>
</svg>
