<svg width="172" height="126" viewBox="0 0 172 126" fill="none" xmlns="http://www.w3.org/2000/svg">
<g id="Component 1">
<ellipse id="Ellipse 1" cx="52.5" cy="52" rx="52.5" ry="52" fill="#F1D536"/>
<g id="Symbols">
<g id="Scene/Plants">
<g id="Top Leaves">
<path id="Leaf" fill-rule="evenodd" clip-rule="evenodd" d="M20.7826 68.3333C18.614 65.0088 18.162 60.8009 17.9753 56.6521C17.6118 48.5754 17.0834 43.9732 12.3753 37.5439C9.60622 33.7629 6.63879 29.7987 6.56529 24.5597C6.5115 20.7449 8.07596 15.4642 11.8665 13.3577C18.132 10.4538 24.2847 13.1407 28.5111 17.201C33.7494 22.2336 34.8819 28.0413 32.3984 35.5853C30.9985 39.8356 30.8432 43.2621 32.1631 47.1822C33.218 50.3172 35.2899 53.2748 35.8535 56.6234C36.6957 61.6293 35.3693 66.0479 31.6278 69.8604C28.4146 61.0799 25.6554 51.5925 24.6776 41.9719C24.5495 41.043 24.8913 36.4151 23.5106 36.3311C21.99 36.2391 23.2918 42.2717 23.2865 42.232C23.6384 45.0804 24.1836 47.8864 24.7659 50.6782C24.7704 50.6758 24.7747 50.6722 24.7796 50.6695C25.3732 53.5393 26.002 56.4173 26.6754 59.2842C26.9812 60.4697 27.3092 61.6469 27.6756 62.8147C28.2133 64.5282 30.5249 68.3786 30.214 70.2593C30.1474 70.6616 30.0298 70.9902 29.8752 71.2626C30.4563 73.1608 31.0665 75.0427 31.7255 76.8934C33.4466 81.7266 35.5985 86.3983 38.787 90.2492C39.7177 91.3731 44.0654 94.4602 44.1901 95.9771C44.4187 98.7511 41.9253 96.0568 41.1368 95.29C34.6085 88.9375 30.8136 81.2472 28.1383 72.2796C25.6169 72.4418 21.6614 69.6801 20.7826 68.3333Z" fill="#F2F2F2"/>
</g>
</g>
</g>
<g id="RS">
<path d="M94.5781 85.9219C94.5156 86.5469 94.2969 87.0312 93.9219 87.375C93.5469 87.75 93.0625 87.9375 92.4688 87.9375C92.1562 87.9375 91.8594 87.8906 91.5781 87.7969C90.9844 88.2656 90.2812 88.625 89.4688 88.875C88.6562 89.125 87.8906 89.375 87.1719 89.625C86.2969 89.5938 85.4375 89.5156 84.5938 89.3906C83.75 89.2656 82.875 89.2344 81.9688 89.2969C81.6562 89.0781 81.3281 88.9375 80.9844 88.875C80.6406 88.8125 80.2812 88.7656 79.9062 88.7344C79.5625 88.7344 79.2188 88.6875 78.875 88.5938C78.5625 88.5 78.25 88.2812 77.9375 87.9375H75.5938C75.375 87.9375 75.0469 87.8281 74.6094 87.6094C74.2031 87.4219 73.7344 87.2188 73.2031 87C72.7031 86.7812 72.1562 86.5781 71.5625 86.3906C71 86.2031 70.4688 86.1094 69.9688 86.1094H69.6875C69.3438 85.8281 68.9375 85.6094 68.4688 85.4531C68.0312 85.3281 67.5781 85.2031 67.1094 85.0781C66.6406 84.9844 66.1875 84.875 65.75 84.75C65.3125 84.625 64.9375 84.4531 64.625 84.2344C64.3125 84.0156 63.9531 83.7969 63.5469 83.5781C63.1406 83.3281 62.7188 83.2188 62.2812 83.25C61.6875 82.9062 61.0625 82.6094 60.4062 82.3594C59.7812 82.1094 59.1406 81.875 58.4844 81.6562L56.5625 80.9531C55.9375 80.7031 55.3125 80.4062 54.6875 80.0625C54.5938 80.0938 54.4844 80.0938 54.3594 80.0625C54.2344 80.0312 54.125 80.0156 54.0312 80.0156C53.8438 80.0156 53.7344 80.0781 53.7031 80.2031C53.4844 79.9844 53.2344 79.7969 52.9531 79.6406C52.7031 79.4844 52.4531 79.2969 52.2031 79.0781C52.0781 79.1094 51.9531 79.1406 51.8281 79.1719C51.7344 79.1719 51.6094 79.1719 51.4531 79.1719C51.1719 79.1719 50.8906 79.1406 50.6094 79.0781C50.3594 79.0156 50.1094 78.9375 49.8594 78.8438C49.5781 79.4688 49.3906 80.1719 49.2969 80.9531C49.2031 81.7344 49.125 82.5469 49.0625 83.3906C49.0312 84.2031 48.9844 85.0156 48.9219 85.8281C48.8594 86.6719 48.7188 87.4375 48.5 88.125C48.5625 88.375 48.5938 88.625 48.5938 88.875V89.6719C48.5938 90.2031 48.6719 90.625 48.8281 90.9375C48.7656 91.2188 48.7031 91.4844 48.6406 91.7344C48.6094 91.9844 48.5625 92.2344 48.5 92.4844C48.5312 92.8281 48.5469 93.1406 48.5469 93.4219C48.5781 93.7344 48.5938 94.0625 48.5938 94.4062V95.2031C48.5938 95.4844 48.5625 95.7656 48.5 96.0469C48.1875 96.2344 47.875 96.4062 47.5625 96.5625C47.25 96.75 46.9375 96.9688 46.625 97.2188C46.4062 96.8125 46.0312 96.5781 45.5 96.5156C45.375 96.6719 45.2812 96.875 45.2188 97.125C45.1875 97.4062 45.0469 97.5469 44.7969 97.5469C44.3594 97.2031 44 96.9219 43.7188 96.7031C43.4375 96.4844 43.125 96.1562 42.7812 95.7188C42.75 95.6562 42.7344 95.5781 42.7344 95.4844C42.7344 95.3281 42.7656 95.1875 42.8281 95.0625C42.8906 94.9375 42.9219 94.8125 42.9219 94.6875C42.9219 94.3125 42.875 93.9844 42.7812 93.7031C42.7188 93.2969 42.6719 92.8906 42.6406 92.4844C42.6094 92.1094 42.5938 91.7344 42.5938 91.3594C42.5938 90.8281 42.625 90.3125 42.6875 89.8125C42.7812 89.3125 42.9375 88.7969 43.1562 88.2656C43.5 87.3594 43.7344 86.4062 43.8594 85.4062C44.0156 84.4062 44.125 83.4062 44.1875 82.4062C44.25 81.375 44.2812 80.3438 44.2812 79.3125C44.3125 78.2812 44.375 77.2969 44.4688 76.3594C44.25 75.8594 43.9844 75.4688 43.6719 75.1875C43.3906 74.875 43.25 74.3906 43.25 73.7344C43.25 73.1406 43.4375 72.6875 43.8125 72.375C44.1875 72.0312 44.5156 71.625 44.7969 71.1562C44.7344 70.9688 44.7812 70.8438 44.9375 70.7812L45.5 65.8594C45.5312 65.5156 45.5781 65.1406 45.6406 64.7344C45.7344 64.3281 45.7969 63.9531 45.8281 63.6094C45.8906 62.8906 45.9219 62.1875 45.9219 61.5C45.9219 60.8125 45.9531 60.125 46.0156 59.4375C46.1719 57.9062 46.3125 56.3906 46.4375 54.8906C46.5938 53.3906 46.6719 51.8906 46.6719 50.3906C46.6719 49.6719 46.6406 48.9531 46.5781 48.2344C46.5469 47.5156 46.4531 46.7969 46.2969 46.0781C45.7656 46.2344 45.1719 46.4062 44.5156 46.5938C43.8906 46.75 43.3594 47.0312 42.9219 47.4375H42.5469C41.7344 47.4375 40.9688 47.5938 40.25 47.9062C39.5625 48.2188 38.8594 48.5156 38.1406 48.7969C37.8281 48.9531 37.5156 49.0625 37.2031 49.125C36.8906 49.1562 36.5625 49.2188 36.2188 49.3125C36.0625 49.3438 35.8906 49.4375 35.7031 49.5938C35.5156 49.75 35.3438 49.8594 35.1875 49.9219L34.3906 50.1094C34.1719 50.1719 34.0781 50.3125 34.1094 50.5312C34.1406 50.75 34.0625 50.8906 33.875 50.9531C33.7188 51.1094 33.5 51.1875 33.2188 51.1875C32.9375 51.1562 32.7188 51.1406 32.5625 51.1406H32.375C31.5938 51.7031 30.8438 52.1875 30.125 52.5938C29.375 52.9688 28.5 53.2188 27.5 53.3438L26.4688 54C26.125 54.2188 25.7344 54.3281 25.2969 54.3281C24.9531 54.3281 24.6719 54.2656 24.4531 54.1406C24.2031 53.7656 24.0156 53.3438 23.8906 52.875C23.7344 52.4062 23.4844 52 23.1406 51.6562C23.2969 51.5 23.4062 51.2969 23.4688 51.0469C23.5 50.7656 23.5469 50.5156 23.6094 50.2969C24.5469 49.8906 25.5 49.5 26.4688 49.125C27.4062 48.75 28.3125 48.2969 29.1875 47.7656C29.2812 47.7969 29.4219 47.8125 29.6094 47.8125C29.9219 47.8125 30.2031 47.7656 30.4531 47.6719C30.7031 47.5781 30.9531 47.4688 31.2031 47.3438C31.4531 47.2188 31.7031 47.1094 31.9531 47.0156C32.2031 46.9219 32.5 46.8906 32.8438 46.9219C33.9062 46.3281 35.0312 45.8438 36.2188 45.4688C37.4062 45.0938 38.5312 44.5781 39.5938 43.9219C39.75 43.9219 39.875 43.9531 39.9688 44.0156C40.0938 44.0781 40.2188 44.1094 40.3438 44.1094C40.4688 44.1094 40.5469 44.0938 40.5781 44.0625C40.7656 43.8125 41.0156 43.6406 41.3281 43.5469C41.6406 43.4219 41.9531 43.3281 42.2656 43.2656C42.6094 43.1719 42.9219 43.0625 43.2031 42.9375C43.5156 42.7812 43.7188 42.5469 43.8125 42.2344C43.9688 42.3594 44.2031 42.4219 44.5156 42.4219C45.0469 42.4219 45.5312 42.3125 45.9688 42.0938C46.4375 41.875 46.9375 41.7656 47.4688 41.7656C47.5938 41.7656 47.7031 41.7969 47.7969 41.8594C47.9219 41.8906 48.0469 41.9062 48.1719 41.9062C48.4219 41.9062 48.5469 41.8281 48.5469 41.6719C48.5781 41.5156 48.6719 41.375 48.8281 41.25C50.7344 40.9062 52.625 40.5938 54.5 40.3125C56.4062 40.0312 58.3281 39.8906 60.2656 39.8906C60.5469 39.7031 60.8594 39.6094 61.2031 39.6094C61.5469 39.6094 61.8594 39.7031 62.1406 39.8906C62.6719 39.8281 63.2031 39.7812 63.7344 39.75C64.2656 39.7188 64.7969 39.7031 65.3281 39.7031C66.5469 39.7031 67.7969 39.7812 69.0781 39.9375C70.3594 40.0938 71.625 40.3438 72.875 40.6875C74.1562 41 75.375 41.4375 76.5312 42C77.6875 42.5312 78.7656 43.1719 79.7656 43.9219C79.8594 44.2031 79.9844 44.4844 80.1406 44.7656C80.2969 45.0469 80.5 45.2656 80.75 45.4219C80.75 45.4844 80.7344 45.5312 80.7031 45.5625C80.7031 45.5938 80.7031 45.6406 80.7031 45.7031C80.7031 46.0469 80.7969 46.375 80.9844 46.6875C81.2031 47 81.3125 47.375 81.3125 47.8125C81.3125 48.25 81.2344 48.6875 81.0781 49.125C80.9531 49.5625 80.9062 50 80.9375 50.4375C80.5938 50.9375 80.2969 51.3906 80.0469 51.7969C79.8281 52.2031 79.6875 52.7188 79.625 53.3438C79.0625 53.9062 78.5625 54.5312 78.125 55.2188C77.6875 55.875 77.2344 56.5312 76.7656 57.1875C76.3281 57.8125 75.8281 58.3906 75.2656 58.9219C74.7031 59.4531 74.0312 59.875 73.25 60.1875C73.2188 60.5 73.0938 60.8438 72.875 61.2188H71.8906C71.7969 61.4688 71.6406 61.6562 71.4219 61.7812L70.7656 62.1562C70.5469 62.2812 70.3594 62.4375 70.2031 62.625C70.0781 62.8125 70.0156 63.0781 70.0156 63.4219C69.9531 63.3906 69.875 63.375 69.7812 63.375C69.4688 63.375 69.0938 63.5312 68.6562 63.8438C68.25 64.1562 67.9219 64.4062 67.6719 64.5938C67.1406 64.9688 66.5938 65.3125 66.0312 65.625C65.5 65.9375 65.0312 66.375 64.625 66.9375C63.375 67.4688 62.1875 68.0938 61.0625 68.8125C59.9375 69.5 58.7188 70.0469 57.4062 70.4531C56.9062 70.9844 56.3125 71.4062 55.625 71.7188C54.9688 72 54.3281 72.3125 53.7031 72.6562V72.7969C53.7031 73.0469 53.7969 73.2969 53.9844 73.5469C54.1719 73.7656 54.3906 73.9688 54.6406 74.1562C54.8906 74.3125 55.1562 74.4219 55.4375 74.4844C55.75 74.5469 56.0156 74.5469 56.2344 74.4844C56.8594 75.0469 57.5781 75.5 58.3906 75.8438C59.2031 76.1875 60.0469 76.5 60.9219 76.7812C61.7969 77.0625 62.6562 77.3594 63.5 77.6719C64.3438 77.9844 65.125 78.375 65.8438 78.8438H66.9688C67.6875 79.4688 68.5312 79.9375 69.5 80.25C70.5 80.5625 71.4531 80.8438 72.3594 81.0938C72.7344 81.4375 73.2031 81.7031 73.7656 81.8906C74.3594 82.0469 74.9219 82.125 75.4531 82.125H75.7344C75.8594 82.125 75.9688 82.1094 76.0625 82.0781V82.1719C76.0625 82.3281 76.1094 82.4375 76.2031 82.5C76.2969 82.5312 76.3906 82.5625 76.4844 82.5938C76.6094 82.5938 76.7188 82.625 76.8125 82.6875C76.9375 82.7188 77.0312 82.7812 77.0938 82.875H77.5625C78.2188 82.875 78.8438 83.0156 79.4375 83.2969C80.0312 83.5469 80.6562 83.6719 81.3125 83.6719C81.5938 83.6719 81.8125 83.6406 81.9688 83.5781C82.1562 83.6406 82.2969 83.7656 82.3906 83.9531C82.4844 84.1406 82.6094 84.2969 82.7656 84.4219C82.9844 84.3906 83.1875 84.3594 83.375 84.3281C83.5625 84.3281 83.75 84.3281 83.9375 84.3281C84.625 84.3281 85.2656 84.4062 85.8594 84.5625C86.4531 84.7188 87.0625 84.9531 87.6875 85.2656C88.6875 84.8281 89.6719 84.4688 90.6406 84.1875C91.6094 83.9062 92.6406 83.7656 93.7344 83.7656V83.8594C93.7344 84.2344 93.8281 84.5781 94.0156 84.8906C94.2344 85.2344 94.4219 85.5781 94.5781 85.9219ZM76.625 48.5156C76.625 48.1406 76.5469 47.8438 76.3906 47.625C76.2656 47.4062 76.0938 47.2188 75.875 47.0625C75.6562 46.875 75.4219 46.7031 75.1719 46.5469C74.9531 46.3906 74.75 46.1875 74.5625 45.9375C73.75 45.6875 72.9531 45.4062 72.1719 45.0938C71.3906 44.7812 70.5938 44.5156 69.7812 44.2969C69.375 44.2031 68.9688 44.125 68.5625 44.0625C68.1562 43.9688 67.75 43.9219 67.3438 43.9219H66.3125C66.125 43.8906 65.9219 43.8594 65.7031 43.8281C65.5156 43.7656 65.3281 43.7188 65.1406 43.6875C64.7031 43.625 64.2656 43.5781 63.8281 43.5469C63.4219 43.5156 63 43.5 62.5625 43.5C61.75 43.5 60.9375 43.5312 60.125 43.5938L57.6875 43.7812C57.3438 43.8125 56.9844 43.8281 56.6094 43.8281C56.2344 43.8281 55.8906 43.8594 55.5781 43.9219C55.4219 43.9531 55.2031 44.0312 54.9219 44.1562C54.6406 44.25 54.3438 44.3594 54.0312 44.4844C53.7188 44.5781 53.4062 44.6875 53.0938 44.8125C52.8125 44.9375 52.5625 45.0312 52.3438 45.0938C52.375 45.3125 52.3906 45.5312 52.3906 45.75V46.3594C52.3906 46.8281 52.375 47.2969 52.3438 47.7656C52.3125 48.2344 52.25 48.7031 52.1562 49.1719C52.125 49.3594 52.0781 49.5469 52.0156 49.7344C51.9531 49.9219 51.9062 50.1094 51.875 50.2969C51.8125 50.5781 51.7812 50.8906 51.7812 51.2344V52.125C51.7188 52.8438 51.6719 53.5469 51.6406 54.2344C51.6094 54.9219 51.5625 55.625 51.5 56.3438C51.3125 58.4062 51.1094 60.4531 50.8906 62.4844C50.7031 64.5156 50.5781 66.5625 50.5156 68.625C51.5469 68.4062 52.5312 68.0781 53.4688 67.6406C54.4062 67.2031 55.3281 66.7344 56.2344 66.2344C57.1406 65.7031 58.0469 65.1875 58.9531 64.6875C59.8594 64.1875 60.8125 63.7656 61.8125 63.4219C62.0625 63.0781 62.3594 62.7969 62.7031 62.5781C63.0781 62.3594 63.3906 62.0781 63.6406 61.7344C63.9531 61.7344 64.1875 61.6719 64.3438 61.5469C64.5 61.3906 64.7031 61.2812 64.9531 61.2188C66.4531 59.9062 67.9844 58.6719 69.5469 57.5156C71.1094 56.3594 72.6094 55.125 74.0469 53.8125C74.1719 53.375 74.375 52.9531 74.6562 52.5469C74.9688 52.1094 75.2656 51.6719 75.5469 51.2344C75.8281 50.7969 76.0781 50.3594 76.2969 49.9219C76.5156 49.4844 76.625 49.0156 76.625 48.5156ZM124.438 82.2656C124.438 82.5781 124.422 82.8125 124.391 82.9688C124.234 83.0312 124.109 83.125 124.016 83.25C123.922 83.3438 123.766 83.375 123.547 83.3438C123.484 83.8125 123.328 84.2031 123.078 84.5156C122.828 84.8281 122.562 85.1094 122.281 85.3594C122.031 85.6406 121.781 85.9219 121.531 86.2031C121.281 86.5156 121.125 86.9062 121.062 87.375C120.594 87.625 120.125 87.9531 119.656 88.3594C119.219 88.7969 118.828 89.0938 118.484 89.25C118.234 89.375 117.969 89.4688 117.688 89.5312C117.406 89.625 117.125 89.7344 116.844 89.8594C115.938 90.2656 115 90.6875 114.031 91.125C113.094 91.5625 112.109 91.7812 111.078 91.7812H110.75C110.625 91.9062 110.469 91.9844 110.281 92.0156C110.094 92.0781 109.906 92.125 109.719 92.1562C109.531 92.1875 109.344 92.2344 109.156 92.2969C108.969 92.3594 108.828 92.4531 108.734 92.5781C108.391 92.4531 108.016 92.3906 107.609 92.3906H107.281C106.75 92.5156 106.25 92.6094 105.781 92.6719C105.312 92.7344 104.812 92.7656 104.281 92.7656C103.344 92.7656 102.406 92.7031 101.469 92.5781C100.531 92.4531 99.5938 92.3438 98.6562 92.25C98.0625 91.7812 97.5781 91.1875 97.2031 90.4688C96.8281 89.7812 96.6406 89.0469 96.6406 88.2656C96.6406 87.6719 96.7656 87.1094 97.0156 86.5781C97.2656 86.0781 97.5938 85.625 98 85.2188H98.1406C98.4219 85.2188 98.7031 85.1562 98.9844 85.0312C99.2969 84.9062 99.5938 84.8438 99.875 84.8438C100.188 84.8438 100.438 84.9688 100.625 85.2188C100.844 85.4688 101 85.7656 101.094 86.1094C101.219 86.4531 101.297 86.7969 101.328 87.1406C101.359 87.5156 101.375 87.8125 101.375 88.0312C101.719 88.1875 102.078 88.2812 102.453 88.3125C102.859 88.3438 103.266 88.3594 103.672 88.3594C104.078 88.3594 104.531 88.3281 105.031 88.2656C105.531 88.2344 106.031 88.1562 106.531 88.0312C107.062 87.9375 107.562 87.8125 108.031 87.6562C108.531 87.5 108.953 87.2969 109.297 87.0469C111.016 86.8906 112.531 86.5 113.844 85.875C115.156 85.25 116.547 84.5156 118.016 83.6719C118.078 83.3281 118.203 83.0625 118.391 82.875C118.609 82.6562 118.719 82.3438 118.719 81.9375C118.719 81.875 118.703 81.8125 118.672 81.75C118.672 81.6562 118.672 81.5781 118.672 81.5156C118.047 80.7344 117.391 80.0469 116.703 79.4531C116.047 78.8594 115.188 78.4688 114.125 78.2812C114 78 113.797 77.7969 113.516 77.6719C113.234 77.5156 112.938 77.375 112.625 77.25C112.312 77.125 112.016 77 111.734 76.875C111.453 76.7188 111.25 76.4688 111.125 76.125C110.281 75.9688 109.406 75.7812 108.5 75.5625C107.625 75.3125 106.875 74.875 106.25 74.25C105.75 74.2188 105.266 74.125 104.797 73.9688C104.359 73.7812 103.922 73.6094 103.484 73.4531C103.047 73.2656 102.594 73.1094 102.125 72.9844C101.656 72.8281 101.172 72.75 100.672 72.75C100.547 72.5312 100.375 72.3594 100.156 72.2344C99.9375 72.1094 99.6875 72 99.4062 71.9062C99.1562 71.8125 98.9062 71.7188 98.6562 71.625C98.4375 71.5 98.2656 71.3281 98.1406 71.1094C98.0156 71.1406 97.9219 71.2031 97.8594 71.2969C97.7969 71.3906 97.6875 71.4375 97.5312 71.4375H97.3438C97.2812 71.25 97.1562 71.125 96.9688 71.0625C96.7812 70.9688 96.6719 70.7969 96.6406 70.5469C96.0781 70.5156 95.5625 70.4062 95.0938 70.2188C94.6562 70.0312 94.2344 69.8281 93.8281 69.6094C93.4531 69.3594 93.0625 69.125 92.6562 68.9062C92.25 68.6875 91.7969 68.5156 91.2969 68.3906C90.9844 68.1406 90.6875 67.875 90.4062 67.5938C90.1562 67.2812 89.8281 67.125 89.4219 67.125C89.3281 67.125 89.1562 67.1562 88.9062 67.2188C88.8438 66.6562 88.6094 66.2656 88.2031 66.0469C87.7969 65.7969 87.3594 65.5781 86.8906 65.3906C86.5781 64.5781 86.1562 63.8594 85.625 63.2344C85.0938 62.6094 84.5156 62.0312 83.8906 61.5C83.9531 61.3125 83.9844 61.1719 83.9844 61.0781C83.9844 60.7656 83.9062 60.5 83.75 60.2812C83.5938 60.0312 83.4219 59.8281 83.2344 59.6719C82.7969 58.2656 82.5781 56.8906 82.5781 55.5469C82.5781 53.6719 83 51.9375 83.8438 50.3438C84.6562 48.7188 85.9531 47.5 87.7344 46.6875C87.7656 46.4375 87.8438 46.2188 87.9688 46.0312C88.125 45.8438 88.2188 45.625 88.25 45.375C88.5312 45.375 88.75 45.3125 88.9062 45.1875C89.0625 45.0625 89.2031 44.9375 89.3281 44.8125C89.4844 44.6562 89.6406 44.5156 89.7969 44.3906C89.9531 44.2656 90.1562 44.1875 90.4062 44.1562C91.5938 43.125 92.8594 42.2969 94.2031 41.6719C95.5469 41.0156 96.9219 40.3438 98.3281 39.6562C98.6094 39.5312 98.8438 39.2969 99.0312 38.9531H99.3125C99.625 38.9531 99.8594 38.8906 100.016 38.7656C100.203 38.6094 100.469 38.5625 100.812 38.625C100.938 38.4375 101.094 38.3125 101.281 38.25C101.5 38.1875 101.703 38.1406 101.891 38.1094C102.109 38.0469 102.312 37.9688 102.5 37.875C102.688 37.7812 102.812 37.6406 102.875 37.4531H103.203C103.734 37.4531 104.25 37.375 104.75 37.2188C105.25 37.0312 105.75 36.8281 106.25 36.6094H106.578C107.203 36.6094 107.781 36.5 108.312 36.2812C108.875 36.0312 109.469 35.8594 110.094 35.7656C110.344 35.7031 110.594 35.6875 110.844 35.7188C111.094 35.75 111.344 35.7656 111.594 35.7656C111.75 35.7656 111.938 35.75 112.156 35.7188C112.375 35.6875 112.531 35.5938 112.625 35.4375H112.719C112.906 35.4375 113.016 35.5 113.047 35.625C113.078 35.75 113.172 35.8125 113.328 35.8125C113.547 35.8125 113.766 35.7812 113.984 35.7188C114.203 35.6562 114.422 35.625 114.641 35.625C115.578 35.625 116.5 35.7188 117.406 35.9062C118.344 36.0938 119.266 36.2656 120.172 36.4219C120.234 36.7969 120.391 37.0625 120.641 37.2188C120.922 37.375 121.219 37.5156 121.531 37.6406V37.8281C121.531 38.0781 121.594 38.2812 121.719 38.4375C121.594 38.875 121.375 39.2031 121.062 39.4219C120.75 39.6406 120.406 39.8281 120.031 39.9844C120.188 40.1094 120.281 40.2812 120.312 40.5C120.344 40.7188 120.359 40.9219 120.359 41.1094V41.6719L120.125 41.625C119.625 41.625 119.375 41.8594 119.375 42.3281C118.969 42.0781 118.516 41.9219 118.016 41.8594C117.547 41.7969 117.078 41.7656 116.609 41.7656C115.984 41.7656 115.328 41.7969 114.641 41.8594C113.953 41.8906 113.281 41.875 112.625 41.8125C112.375 42.125 112.062 42.3594 111.688 42.5156C111.312 42.6406 110.938 42.7031 110.562 42.7031C110.156 42.7031 109.766 42.625 109.391 42.4688C109.016 42.2812 108.75 42.0156 108.594 41.6719C108.438 41.6094 108.297 41.5781 108.172 41.5781H107.75C107.25 41.5781 106.75 41.6406 106.25 41.7656C105.781 41.8594 105.297 41.9844 104.797 42.1406C104.297 42.2656 103.797 42.4062 103.297 42.5625C102.828 42.6875 102.344 42.7656 101.844 42.7969C101.656 43.0469 101.406 43.2188 101.094 43.3125C100.781 43.4062 100.531 43.5781 100.344 43.8281C99.6875 43.9531 99.0938 44.1719 98.5625 44.4844C98.0312 44.7656 97.5156 45.0781 97.0156 45.4219L95.5625 46.4062C95.0938 46.7188 94.5625 46.9844 93.9688 47.2031C93.5312 47.6719 93.125 48.0469 92.75 48.3281C92.375 48.6094 91.8906 48.8594 91.2969 49.0781C90.9219 49.2031 90.7031 49.3906 90.6406 49.6406C90.6094 49.8906 90.4844 50.1406 90.2656 50.3906C90.0781 50.6094 89.8438 50.7812 89.5625 50.9062C89.3125 51 89.0938 51.1719 88.9062 51.4219C88.75 51.6406 88.625 51.9062 88.5312 52.2188C88.4688 52.5 88.3906 52.7812 88.2969 53.0625C88.2031 53.3438 88.0938 53.625 87.9688 53.9062C87.8438 54.1562 87.6562 54.375 87.4062 54.5625C87.4062 54.6875 87.3906 54.8125 87.3594 54.9375C87.3594 55.0625 87.3594 55.1719 87.3594 55.2656C87.3594 55.7031 87.4062 56.1562 87.5 56.625C87.625 57.0625 87.7031 57.5 87.7344 57.9375C88.3594 59.0312 89.0938 60.0312 89.9375 60.9375C90.7812 61.8125 91.6875 62.625 92.6562 63.375C93.625 64.125 94.625 64.8281 95.6562 65.4844C96.7188 66.1406 97.7656 66.7812 98.7969 67.4062C99.1719 67.375 99.5156 67.4219 99.8281 67.5469C100.141 67.6406 100.469 67.7031 100.812 67.7344C101.188 68.0156 101.625 68.2344 102.125 68.3906L103.625 68.8594C104.125 69.0156 104.609 69.2031 105.078 69.4219C105.547 69.6094 105.938 69.875 106.25 70.2188C106.406 70.25 106.547 70.2969 106.672 70.3594C106.797 70.3906 106.938 70.4062 107.094 70.4062C107.281 70.4062 107.391 70.3438 107.422 70.2188C108.828 70.75 110.203 71.3438 111.547 72C112.891 72.625 114.312 73.1094 115.812 73.4531C116.406 73.9531 117.062 74.3906 117.781 74.7656C118.5 75.1406 119.219 75.5312 119.938 75.9375C120.656 76.3125 121.344 76.7344 122 77.2031C122.656 77.6406 123.234 78.1719 123.734 78.7969C123.797 79.3906 123.922 79.9688 124.109 80.5312C124.328 81.0625 124.438 81.6406 124.438 82.2656Z" fill="black"/>
<path d="M38 88.7812H126.359V91.1719H38V88.7812Z" fill="black"/>
</g>
</g>
</svg>
