<svg width="257" height="88" viewBox="0 0 257 88" fill="none" xmlns="http://www.w3.org/2000/svg">
<g id="Group 1">
<path id="Vector" d="M57.2308 0H8.34615C5.71637 0 3.57692 2.46727 3.57692 5.5V82.5C3.57692 85.5327 5.71637 88 8.34615 88H57.2308C59.8605 88 62 85.5327 62 82.5V5.5C62 2.46727 59.8605 0 57.2308 0Z" fill="#6B7B8B"/>
<path id="Vector_2" d="M52.4615 82.5C53.12 82.5 53.6538 81.8843 53.6538 81.125V1.375C53.6538 0.615656 53.12 0 52.4615 0H4.21853C3.81136 0.809703 3.57692 1.74848 3.57692 2.75V79.75C3.57692 80.7515 3.81136 81.6903 4.21853 82.5H52.4615Z" fill="#55697A"/>
<path id="Vector_3" d="M4.76923 5.80078V76.6992C4.76923 77.6248 5.41978 78.375 6.22235 78.375H48.6238C49.4264 78.375 50.0769 77.6248 50.0769 76.6992V5.80078C50.0769 4.87523 49.4264 4.125 48.6238 4.125H6.22235C5.41978 4.125 4.76923 4.87523 4.76923 5.80078ZM12.2133 61.8618C10.0093 62.0622 8.18385 59.9569 8.35763 57.4152C8.49444 55.4158 9.89913 53.7958 11.6329 53.6382C13.8369 53.4378 15.6623 55.5431 15.4885 58.0848C15.3517 60.0842 13.947 61.7042 12.2133 61.8618ZM12.2133 45.3618C10.0093 45.5622 8.18385 43.4569 8.35763 40.9152C8.49444 38.9158 9.89913 37.2958 11.6329 37.1382C13.8369 36.9378 15.6623 39.0431 15.4885 41.5848C15.3517 43.5842 13.947 45.2042 12.2133 45.3618ZM12.2133 28.8618C10.0093 29.0622 8.18385 26.9569 8.35763 24.4152C8.49444 22.4158 9.89913 20.7958 11.6329 20.6382C13.8369 20.4378 15.6623 22.5431 15.4885 25.0848C15.3517 27.0842 13.947 28.7042 12.2133 28.8618Z" fill="#F4F6F7"/>
<g id="Group">
<path id="Vector_4" d="M9.53846 26.125H1.19231C0.533856 26.125 0 25.5093 0 24.75C0 23.9907 0.533856 23.375 1.19231 23.375H9.53846C10.1969 23.375 10.7308 23.9907 10.7308 24.75C10.7308 25.5093 10.1969 26.125 9.53846 26.125Z" fill="#D5D9DE"/>
<path id="Vector_5" d="M9.53846 42.625H1.19231C0.533856 42.625 0 42.0093 0 41.25C0 40.4907 0.533856 39.875 1.19231 39.875H9.53846C10.1969 39.875 10.7308 40.4907 10.7308 41.25C10.7308 42.0093 10.1969 42.625 9.53846 42.625Z" fill="#D5D9DE"/>
<path id="Vector_6" d="M9.53846 59.125H1.19231C0.533856 59.125 0 58.5093 0 57.75C0 56.9907 0.533856 56.375 1.19231 56.375H9.53846C10.1969 56.375 10.7308 56.9907 10.7308 57.75C10.7308 58.5093 10.1969 59.125 9.53846 59.125Z" fill="#D5D9DE"/>
<path id="Vector_7" d="M44.1154 26.125H17.8846C17.2262 26.125 16.6923 25.5093 16.6923 24.75C16.6923 23.9907 17.2262 23.375 17.8846 23.375H44.1154C44.7738 23.375 45.3077 23.9907 45.3077 24.75C45.3077 25.5093 44.7738 26.125 44.1154 26.125Z" fill="#D5D9DE"/>
<path id="Vector_8" d="M44.1154 42.625H17.8846C17.2262 42.625 16.6923 42.0093 16.6923 41.25C16.6923 40.4907 17.2262 39.875 17.8846 39.875H44.1154C44.7738 39.875 45.3077 40.4907 45.3077 41.25C45.3077 42.0093 44.7738 42.625 44.1154 42.625Z" fill="#D5D9DE"/>
<path id="Vector_9" d="M44.1154 59.125H17.8846C17.2262 59.125 16.6923 58.5093 16.6923 57.75C16.6923 56.9907 17.2262 56.375 17.8846 56.375H44.1154C44.7738 56.375 45.3077 56.9907 45.3077 57.75C45.3077 58.5093 44.7738 59.125 44.1154 59.125Z" fill="#D5D9DE"/>
</g>
</g>
<path id="NOTEBOOK" d="M95 19.9V20.95L93.53 20.98L92.75 39.97L89.12 40L78.29 22.96L79.43 38.92L81.2 38.95V40H75.08V38.95L76.55 38.92L77.06 20.98L75.59 20.95V19.9H83L91.73 33.43L90.95 20.98L89.18 20.95V19.9H95ZM106.274 19.45C108.234 19.45 109.944 19.83 111.404 20.59C112.884 21.35 114.024 22.47 114.824 23.95C115.644 25.43 116.054 27.24 116.054 29.38C116.054 30.74 115.814 32.15 115.334 33.61C114.854 35.05 114.154 36.33 113.234 37.45C112.274 38.35 111.174 39.08 109.934 39.64C108.694 40.18 107.374 40.45 105.974 40.45C104.034 40.45 102.324 40.07 100.844 39.31C99.3839 38.55 98.2439 37.43 97.4239 35.95C96.6239 34.47 96.2239 32.66 96.2239 30.52C96.2239 29.18 96.4739 27.78 96.9739 26.32C97.4739 24.86 98.1839 23.57 99.1039 22.45C100.044 21.55 101.124 20.83 102.344 20.29C103.584 19.73 104.894 19.45 106.274 19.45ZM101.564 28.42C101.564 30.74 101.864 32.61 102.464 34.03C103.064 35.45 103.974 36.5 105.194 37.18C106.414 37.84 107.994 38.22 109.934 38.32C110.174 37.32 110.364 36.15 110.504 34.81C110.664 33.45 110.744 32.34 110.744 31.48C110.744 29.14 110.434 27.26 109.814 25.84C109.214 24.4 108.294 23.34 107.054 22.66C105.814 21.98 104.234 21.6 102.314 21.52C102.094 22.56 101.914 23.77 101.774 25.15C101.634 26.53 101.564 27.62 101.564 28.42ZM134.533 19.9V25.72L133.363 25.69L133.303 24.19C131.243 22.71 129.533 21.62 128.173 20.92V38.92L130.543 38.95V40H120.823V38.95L123.193 38.92V20.92C121.833 21.62 120.123 22.71 118.063 24.19L118.003 25.69L116.833 25.72V19.9H134.533ZM150.876 34.03V40H135.666V38.95L137.136 38.92V20.98L135.666 20.95V19.9H150.276V25.72L149.106 25.69L149.046 24.19C146.826 22.81 144.516 21.65 142.116 20.71L142.176 29.05H147.786V30.16H142.176L142.236 39.16C144.796 38.18 147.266 36.98 149.646 35.56L149.706 34.06L150.876 34.03ZM165.347 29.59C166.407 29.59 167.307 29.81 168.047 30.25C168.807 30.67 169.377 31.22 169.757 31.9C170.137 32.58 170.327 33.3 170.327 34.06C170.327 35.92 169.527 37.38 167.927 38.44C166.347 39.48 164.027 40 160.967 40H152.717V38.95L154.187 38.92V20.98L152.717 20.95V19.9L158.507 19.96L162.887 19.6C164.807 19.6 166.277 20.02 167.297 20.86C168.317 21.68 168.827 22.77 168.827 24.13C168.827 25.41 168.397 26.52 167.537 27.46C166.677 28.38 165.417 29.12 163.757 29.68L165.347 29.59ZM163.487 25.27C163.487 23.85 163.117 22.78 162.377 22.06C161.657 21.32 160.587 20.95 159.167 20.95V29.59C160.627 29.49 161.707 29.09 162.407 28.39C163.127 27.67 163.487 26.63 163.487 25.27ZM159.167 38.95C161.207 38.95 162.687 38.63 163.607 37.99C164.527 37.35 164.987 36.33 164.987 34.93C164.987 33.53 164.567 32.47 163.727 31.75C162.907 31.03 161.687 30.67 160.067 30.67H159.167V38.95ZM181.743 19.45C183.703 19.45 185.413 19.83 186.873 20.59C188.353 21.35 189.493 22.47 190.293 23.95C191.113 25.43 191.523 27.24 191.523 29.38C191.523 30.74 191.283 32.15 190.803 33.61C190.323 35.05 189.623 36.33 188.703 37.45C187.743 38.35 186.643 39.08 185.403 39.64C184.163 40.18 182.843 40.45 181.443 40.45C179.503 40.45 177.793 40.07 176.313 39.31C174.853 38.55 173.713 37.43 172.893 35.95C172.093 34.47 171.693 32.66 171.693 30.52C171.693 29.18 171.943 27.78 172.443 26.32C172.943 24.86 173.653 23.57 174.573 22.45C175.513 21.55 176.593 20.83 177.813 20.29C179.053 19.73 180.363 19.45 181.743 19.45ZM177.033 28.42C177.033 30.74 177.333 32.61 177.933 34.03C178.533 35.45 179.443 36.5 180.663 37.18C181.883 37.84 183.463 38.22 185.403 38.32C185.643 37.32 185.833 36.15 185.973 34.81C186.133 33.45 186.213 32.34 186.213 31.48C186.213 29.14 185.903 27.26 185.283 25.84C184.683 24.4 183.763 23.34 182.523 22.66C181.283 21.98 179.703 21.6 177.783 21.52C177.563 22.56 177.383 23.77 177.243 25.15C177.103 26.53 177.033 27.62 177.033 28.42ZM203.305 19.45C205.265 19.45 206.975 19.83 208.435 20.59C209.915 21.35 211.055 22.47 211.855 23.95C212.675 25.43 213.085 27.24 213.085 29.38C213.085 30.74 212.845 32.15 212.365 33.61C211.885 35.05 211.185 36.33 210.265 37.45C209.305 38.35 208.205 39.08 206.965 39.64C205.725 40.18 204.405 40.45 203.005 40.45C201.065 40.45 199.355 40.07 197.875 39.31C196.415 38.55 195.275 37.43 194.455 35.95C193.655 34.47 193.255 32.66 193.255 30.52C193.255 29.18 193.505 27.78 194.005 26.32C194.505 24.86 195.215 23.57 196.135 22.45C197.075 21.55 198.155 20.83 199.375 20.29C200.615 19.73 201.925 19.45 203.305 19.45ZM198.595 28.42C198.595 30.74 198.895 32.61 199.495 34.03C200.095 35.45 201.005 36.5 202.225 37.18C203.445 37.84 205.025 38.22 206.965 38.32C207.205 37.32 207.395 36.15 207.535 34.81C207.695 33.45 207.775 32.34 207.775 31.48C207.775 29.14 207.465 27.26 206.845 25.84C206.245 24.4 205.325 23.34 204.085 22.66C202.845 21.98 201.265 21.6 199.345 21.52C199.125 22.56 198.945 23.77 198.805 25.15C198.665 26.53 198.595 27.62 198.595 28.42ZM221.335 38.92L222.805 38.95V40H214.885V38.95L216.355 38.92V20.98L214.885 20.95V19.9H222.805V20.95L221.335 20.98V38.92ZM234.745 38.95V40H225.415V38.95L226.885 38.92L221.785 30.13L228.295 20.98L226.825 20.95V19.9H233.965V20.95L232.345 20.98L225.685 27.43L233.275 38.92L234.745 38.95Z" fill="#71A4A7"/>
<path id="So, it&#226;&#128;&#153;s gonna be easy....." d="M82.5091 56.9745C82.5091 57.377 82.4315 57.7745 82.2764 58.1673C82.1212 58.56 81.8836 58.9091 81.5636 59.2145C81.2436 59.52 80.8339 59.7673 80.3345 59.9564C79.8352 60.1455 79.2436 60.24 78.56 60.24C77.7939 60.24 77.103 60.1406 76.4873 59.9418C75.8715 59.7382 75.3745 59.5224 74.9964 59.2945C74.977 58.8291 74.9794 58.3564 75.0036 57.8764C75.0279 57.3915 75.0715 56.9164 75.1345 56.4509H76.1018L76.3709 58.1527C76.3855 58.2303 76.4097 58.3127 76.4436 58.4C76.4824 58.4873 76.5455 58.5745 76.6327 58.6618C76.8218 58.8558 77.0982 59.0327 77.4618 59.1927C77.8255 59.3527 78.2327 59.4327 78.6836 59.4327C79.3915 59.4327 79.9297 59.2582 80.2982 58.9091C80.6715 58.5552 80.8582 58.08 80.8582 57.4836C80.8582 57.1345 80.7952 56.8339 80.6691 56.5818C80.543 56.3297 80.3685 56.1067 80.1455 55.9127C79.9224 55.7188 79.6509 55.5394 79.3309 55.3745C79.0158 55.2097 78.6667 55.04 78.2836 54.8655C77.9297 54.7006 77.5685 54.5212 77.2 54.3273C76.8315 54.1333 76.4994 53.9055 76.2036 53.6436C75.9079 53.3818 75.663 53.0715 75.4691 52.7127C75.28 52.3491 75.1855 51.9224 75.1855 51.4327C75.1855 51.0012 75.2655 50.6036 75.4255 50.24C75.5855 49.8715 75.8206 49.5564 76.1309 49.2945C76.4412 49.0279 76.8291 48.8194 77.2945 48.6691C77.76 48.5188 78.2982 48.4436 78.9091 48.4436C79.4376 48.4436 79.9709 48.4994 80.5091 48.6109C81.0521 48.7176 81.5127 48.863 81.8909 49.0473C81.9248 49.5273 81.9297 49.9927 81.9055 50.4436C81.8861 50.8897 81.8448 51.3236 81.7818 51.7455H80.8509L80.5673 50.2545C80.5479 50.1624 80.5139 50.0727 80.4655 49.9855C80.4218 49.8933 80.3515 49.8085 80.2545 49.7309C80.1042 49.6 79.8836 49.4861 79.5927 49.3891C79.3018 49.2873 78.9867 49.2364 78.6473 49.2364C78.017 49.2364 77.537 49.3867 77.2073 49.6873C76.8776 49.983 76.7127 50.4 76.7127 50.9382C76.7127 51.2679 76.7709 51.5515 76.8873 51.7891C77.0085 52.0218 77.183 52.2352 77.4109 52.4291C77.6388 52.6182 77.9176 52.8 78.2473 52.9745C78.5818 53.1491 78.9624 53.3382 79.3891 53.5418C79.7818 53.7261 80.1648 53.9248 80.5382 54.1382C80.9164 54.3467 81.2485 54.5842 81.5345 54.8509C81.8255 55.1176 82.0606 55.4255 82.24 55.7745C82.4194 56.1188 82.5091 56.5188 82.5091 56.9745ZM84.1382 55.8909C84.1382 55.1297 84.2425 54.4703 84.451 53.9127C84.6643 53.3552 84.9503 52.8994 85.3091 52.5455C85.6679 52.1915 86.0897 51.9297 86.5746 51.76C87.0643 51.5903 87.5831 51.5055 88.131 51.5055C88.7758 51.5055 89.3334 51.6097 89.8037 51.8182C90.2788 52.0218 90.6667 52.3103 90.9673 52.6836C91.2728 53.0521 91.4982 53.503 91.6437 54.0364C91.7891 54.5648 91.8619 55.1515 91.8619 55.7964C91.8619 56.5576 91.7552 57.217 91.5419 57.7745C91.3334 58.3273 91.0497 58.7806 90.691 59.1345C90.3322 59.4885 89.9079 59.7503 89.4182 59.92C88.9285 60.0897 88.4097 60.1745 87.8619 60.1745C87.217 60.1745 86.657 60.0727 86.1819 59.8691C85.7116 59.6606 85.3261 59.3721 85.0255 59.0036C84.7249 58.6303 84.5019 58.1794 84.3564 57.6509C84.211 57.1176 84.1382 56.5309 84.1382 55.8909ZM90.1382 55.9418C90.1382 55.3939 90.1019 54.897 90.0291 54.4509C89.9613 54.0048 89.8425 53.6267 89.6728 53.3164C89.5031 53.0012 89.2776 52.7588 88.9964 52.5891C88.7152 52.4194 88.3637 52.3345 87.9419 52.3345C87.234 52.3345 86.7079 52.6036 86.3637 53.1418C86.0243 53.68 85.8546 54.5455 85.8546 55.7382C85.8546 56.2812 85.8885 56.7758 85.9564 57.2218C86.0291 57.6679 86.1479 58.0485 86.3128 58.3636C86.4825 58.6739 86.7079 58.9164 86.9891 59.0909C87.2752 59.2606 87.6316 59.3455 88.0582 59.3455C88.7613 59.3455 89.2825 59.0764 89.6219 58.5382C89.9661 57.9952 90.1382 57.1297 90.1382 55.9418ZM95.8561 59.4982C95.8561 60.2109 95.6452 60.8703 95.2234 61.4764C94.8015 62.0824 94.2803 62.5673 93.6597 62.9309L93.3106 62.4655C93.7034 62.1309 94.004 61.777 94.2125 61.4036C94.4258 61.0303 94.5325 60.6812 94.5325 60.3564C94.5325 60.177 94.4961 60.0558 94.4234 59.9927C94.3506 59.9248 94.2609 59.8594 94.1543 59.7964C94.0185 59.7188 93.8876 59.6024 93.7615 59.4473C93.6403 59.2921 93.5797 59.0909 93.5797 58.8436C93.5797 58.5576 93.6743 58.3152 93.8634 58.1164C94.0573 57.9176 94.3046 57.8182 94.6052 57.8182C94.9349 57.8182 95.2258 57.9588 95.4779 58.24C95.73 58.5164 95.8561 58.9358 95.8561 59.4982ZM104.81 51.7818V58.6618C104.81 58.7927 104.844 58.897 104.912 58.9745C104.979 59.0521 105.076 59.1006 105.202 59.12L106.097 59.2582V60H101.959V59.2582L102.853 59.12C102.979 59.1006 103.076 59.0521 103.144 58.9745C103.217 58.897 103.253 58.7952 103.253 58.6691V53.2509C103.253 53.12 103.219 53.0158 103.152 52.9382C103.089 52.8606 102.994 52.8121 102.868 52.7927L101.857 52.6473V51.9345C102.274 51.8085 102.727 51.7164 103.217 51.6582C103.707 51.5952 104.16 51.5588 104.577 51.5491L104.81 51.7818ZM104.926 49.2945C104.926 49.6048 104.827 49.8594 104.628 50.0582C104.429 50.2521 104.17 50.3491 103.85 50.3491C103.53 50.3491 103.27 50.2521 103.072 50.0582C102.873 49.8594 102.773 49.6048 102.773 49.2945C102.773 48.9891 102.873 48.7394 103.072 48.5455C103.27 48.3515 103.53 48.2545 103.85 48.2545C104.17 48.2545 104.429 48.3515 104.628 48.5455C104.827 48.7394 104.926 48.9891 104.926 49.2945ZM108.314 57.9418V52.7855L107.056 52.6255V51.9345L107.979 51.8109C108.11 51.7915 108.21 51.7479 108.278 51.68C108.346 51.6121 108.396 51.5176 108.43 51.3964L108.947 49.2582H109.849L109.87 51.7309H112.59V52.7273H109.878V57.4255C109.878 58.0558 109.984 58.4776 110.198 58.6909C110.416 58.9042 110.709 59.0109 111.078 59.0109C111.383 59.0109 111.664 58.9552 111.921 58.8436C112.183 58.7321 112.409 58.5721 112.598 58.3636L113.049 58.7782C112.83 59.2291 112.493 59.5733 112.038 59.8109C111.587 60.0436 111.087 60.16 110.539 60.16C110.244 60.16 109.96 60.1261 109.689 60.0582C109.417 59.9903 109.179 59.8739 108.976 59.7091C108.777 59.5394 108.617 59.3115 108.496 59.0255C108.375 58.7394 108.314 58.3782 108.314 57.9418ZM116.452 48.16C116.452 48.8145 116.246 49.4182 115.833 49.9709C115.426 50.5188 114.905 50.96 114.27 51.2945L113.913 50.8436C114.238 50.5818 114.522 50.2909 114.764 49.9709C115.012 49.6509 115.135 49.3309 115.135 49.0109C115.135 48.8315 115.099 48.7103 115.026 48.6473C114.953 48.5842 114.864 48.5212 114.757 48.4582C114.621 48.3758 114.49 48.2594 114.364 48.1091C114.243 47.9539 114.182 47.7552 114.182 47.5127C114.182 47.2315 114.277 46.9915 114.466 46.7927C114.66 46.5939 114.907 46.4945 115.208 46.4945C115.538 46.4945 115.826 46.6327 116.073 46.9091C116.326 47.1855 116.452 47.6024 116.452 48.16ZM117.128 59.5491C117.079 59.1612 117.06 58.7758 117.07 58.3927C117.079 58.0048 117.109 57.6461 117.157 57.3164H117.986L118.27 58.4145C118.309 58.5794 118.352 58.7055 118.401 58.7927C118.449 58.8752 118.527 58.9503 118.633 59.0182C118.759 59.0958 118.953 59.1806 119.215 59.2727C119.482 59.3648 119.787 59.4109 120.132 59.4109C120.641 59.4109 121.026 59.2945 121.288 59.0618C121.555 58.8291 121.688 58.5212 121.688 58.1382C121.688 57.9055 121.637 57.7091 121.535 57.5491C121.438 57.3842 121.295 57.2364 121.106 57.1055C120.917 56.9745 120.682 56.8485 120.401 56.7273C120.119 56.6061 119.797 56.4727 119.433 56.3273C118.784 56.0558 118.25 55.7503 117.833 55.4109C117.416 55.0667 117.208 54.5624 117.208 53.8982C117.208 53.5055 117.283 53.1612 117.433 52.8655C117.584 52.5648 117.792 52.3152 118.059 52.1164C118.33 51.9127 118.655 51.76 119.033 51.6582C119.412 51.5564 119.826 51.5055 120.277 51.5055C120.699 51.5055 121.138 51.5515 121.593 51.6436C122.054 51.7358 122.432 51.8473 122.728 51.9782C122.747 52.3273 122.745 52.6836 122.721 53.0473C122.696 53.4061 122.653 53.76 122.59 54.1091H121.812L121.564 53.12C121.53 52.9842 121.484 52.8703 121.426 52.7782C121.368 52.6861 121.278 52.6036 121.157 52.5309C121.05 52.4679 120.91 52.4097 120.735 52.3564C120.566 52.303 120.364 52.2739 120.132 52.2691C119.71 52.2642 119.356 52.3588 119.07 52.5527C118.789 52.7467 118.648 53.0473 118.648 53.4545C118.648 53.7018 118.701 53.9103 118.808 54.08C118.919 54.2448 119.065 54.3879 119.244 54.5091C119.424 54.6303 119.627 54.737 119.855 54.8291C120.088 54.9212 120.326 55.0133 120.568 55.1055C120.903 55.2315 121.227 55.3697 121.543 55.52C121.858 55.6703 122.134 55.8473 122.372 56.0509C122.614 56.2545 122.808 56.4945 122.953 56.7709C123.104 57.0473 123.179 57.3745 123.179 57.7527C123.179 58.1406 123.099 58.4873 122.939 58.7927C122.784 59.0933 122.563 59.3479 122.277 59.5564C121.996 59.76 121.656 59.9152 121.259 60.0218C120.861 60.1285 120.425 60.1818 119.95 60.1818C119.373 60.1818 118.837 60.1139 118.343 59.9782C117.853 59.8424 117.448 59.6994 117.128 59.5491ZM130.825 54.3418C130.825 55.0448 130.968 55.583 131.254 55.9564C131.545 56.3248 132.008 56.5091 132.643 56.5091C133.191 56.5091 133.608 56.3467 133.894 56.0218C134.185 55.697 134.331 55.1661 134.331 54.4291C134.331 53.6921 134.185 53.1539 133.894 52.8145C133.603 52.4752 133.15 52.3055 132.534 52.3055C132.059 52.3055 131.654 52.4436 131.32 52.72C130.99 52.9964 130.825 53.537 130.825 54.3418ZM136.956 60.8873C136.956 61.3624 136.842 61.7939 136.614 62.1818C136.391 62.5697 136.078 62.897 135.676 63.1636C135.274 63.4352 134.791 63.6436 134.229 63.7891C133.671 63.9394 133.06 64.0145 132.396 64.0145C131.247 64.0145 130.381 63.8036 129.8 63.3818C129.218 62.96 128.927 62.4048 128.927 61.7164C128.927 61.2267 129.058 60.8194 129.32 60.4945C129.586 60.1745 129.923 59.9176 130.331 59.7236C130.093 59.6024 129.914 59.4424 129.792 59.2436C129.671 59.04 129.611 58.8 129.611 58.5236C129.611 58.1309 129.717 57.8133 129.931 57.5709C130.144 57.3236 130.398 57.1248 130.694 56.9745C130.234 56.7564 129.872 56.4388 129.611 56.0218C129.354 55.6048 129.225 55.1006 129.225 54.5091C129.225 54.0048 129.317 53.5636 129.501 53.1855C129.686 52.8024 129.933 52.4897 130.243 52.2473C130.558 52 130.929 51.8158 131.356 51.6945C131.783 51.5685 132.236 51.5055 132.716 51.5055C133.186 51.5055 133.615 51.5661 134.003 51.6873C134.391 51.8036 134.723 51.9758 135 52.2036C135.237 51.9806 135.47 51.8085 135.698 51.6873C135.926 51.5612 136.158 51.4982 136.396 51.4982C136.517 51.4982 136.653 51.5127 136.803 51.5418C136.954 51.5661 137.089 51.5952 137.211 51.6291V52.8073H135.531C135.652 53.0109 135.746 53.2388 135.814 53.4909C135.882 53.7382 135.916 54.0073 135.916 54.2982C135.916 55.2145 135.601 55.9467 134.971 56.4945C134.34 57.0424 133.497 57.3164 132.44 57.3164C132.241 57.3164 132.047 57.3067 131.858 57.2873C131.669 57.263 131.489 57.2315 131.32 57.1927C131.184 57.2897 131.077 57.4061 131 57.5418C130.922 57.6727 130.883 57.8279 130.883 58.0073C130.883 58.303 131.009 58.5139 131.261 58.64C131.518 58.7612 131.935 58.8218 132.512 58.8218H134.301C135.179 58.8218 135.841 59.0036 136.287 59.3673C136.733 59.7309 136.956 60.2376 136.956 60.8873ZM132.687 63.1564C133.492 63.1564 134.149 62.9915 134.658 62.6618C135.172 62.337 135.429 61.8424 135.429 61.1782C135.429 60.8194 135.322 60.5382 135.109 60.3345C134.9 60.1309 134.486 60.0291 133.865 60.0291H131.996C131.817 60.0291 131.647 60.0218 131.487 60.0073C131.327 59.9976 131.179 59.9806 131.043 59.9564C130.874 60.1358 130.733 60.3467 130.621 60.5891C130.51 60.8364 130.454 61.1273 130.454 61.4618C130.454 61.9467 130.612 62.3491 130.927 62.6691C131.247 62.9939 131.834 63.1564 132.687 63.1564ZM138.24 55.8909C138.24 55.1297 138.344 54.4703 138.553 53.9127C138.766 53.3552 139.052 52.8994 139.411 52.5455C139.769 52.1915 140.191 51.9297 140.676 51.76C141.166 51.5903 141.685 51.5055 142.233 51.5055C142.877 51.5055 143.435 51.6097 143.905 51.8182C144.38 52.0218 144.768 52.3103 145.069 52.6836C145.374 53.0521 145.6 53.503 145.745 54.0364C145.891 54.5648 145.963 55.1515 145.963 55.7964C145.963 56.5576 145.857 57.217 145.643 57.7745C145.435 58.3273 145.151 58.7806 144.793 59.1345C144.434 59.4885 144.009 59.7503 143.52 59.92C143.03 60.0897 142.511 60.1745 141.963 60.1745C141.319 60.1745 140.759 60.0727 140.283 59.8691C139.813 59.6606 139.428 59.3721 139.127 59.0036C138.826 58.6303 138.603 58.1794 138.458 57.6509C138.313 57.1176 138.24 56.5309 138.24 55.8909ZM144.24 55.9418C144.24 55.3939 144.203 54.897 144.131 54.4509C144.063 54.0048 143.944 53.6267 143.774 53.3164C143.605 53.0012 143.379 52.7588 143.098 52.5891C142.817 52.4194 142.465 52.3345 142.043 52.3345C141.336 52.3345 140.809 52.6036 140.465 53.1418C140.126 53.68 139.956 54.5455 139.956 55.7382C139.956 56.2812 139.99 56.7758 140.058 57.2218C140.131 57.6679 140.249 58.0485 140.414 58.3636C140.584 58.6739 140.809 58.9164 141.091 59.0909C141.377 59.2606 141.733 59.3455 142.16 59.3455C142.863 59.3455 143.384 59.0764 143.723 58.5382C144.068 57.9952 144.24 57.1297 144.24 55.9418ZM151.523 59.2582V60H147.486V59.2582L148.381 59.12C148.507 59.1006 148.604 59.0521 148.672 58.9745C148.744 58.897 148.781 58.7952 148.781 58.6691V53.2509C148.781 53.12 148.747 53.0158 148.679 52.9382C148.616 52.8606 148.521 52.8121 148.395 52.7927L147.384 52.6473V51.9345C147.777 51.8133 148.196 51.7212 148.643 51.6582C149.093 51.5903 149.515 51.5539 149.908 51.5491L150.163 51.8036L150.272 52.6982C150.674 52.2715 151.127 51.9709 151.632 51.7964C152.136 51.6218 152.647 51.5345 153.166 51.5345C154.131 51.5345 154.788 51.8158 155.137 52.3782C155.486 52.9406 155.661 53.7236 155.661 54.7273V58.6764C155.661 58.8024 155.695 58.9042 155.763 58.9818C155.835 59.0545 155.932 59.1006 156.053 59.12L156.948 59.2582V60H152.919V59.2582L153.712 59.12C153.823 59.1006 153.915 59.057 153.988 58.9891C154.066 58.9164 154.104 58.8121 154.104 58.6764V55.0109C154.104 54.2109 153.995 53.6145 153.777 53.2218C153.559 52.8242 153.135 52.6255 152.504 52.6255C152.121 52.6255 151.743 52.6836 151.37 52.8C150.996 52.9164 150.652 53.0933 150.337 53.3309V58.6691C150.337 58.7952 150.371 58.897 150.439 58.9745C150.507 59.0473 150.601 59.0958 150.723 59.12L151.523 59.2582ZM162.108 59.2582V60H158.072V59.2582L158.967 59.12C159.093 59.1006 159.19 59.0521 159.258 58.9745C159.33 58.897 159.367 58.7952 159.367 58.6691V53.2509C159.367 53.12 159.333 53.0158 159.265 52.9382C159.202 52.8606 159.107 52.8121 158.981 52.7927L157.97 52.6473V51.9345C158.363 51.8133 158.782 51.7212 159.228 51.6582C159.679 51.5903 160.101 51.5539 160.494 51.5491L160.748 51.8036L160.858 52.6982C161.26 52.2715 161.713 51.9709 162.218 51.7964C162.722 51.6218 163.233 51.5345 163.752 51.5345C164.717 51.5345 165.374 51.8158 165.723 52.3782C166.072 52.9406 166.247 53.7236 166.247 54.7273V58.6764C166.247 58.8024 166.281 58.9042 166.348 58.9818C166.421 59.0545 166.518 59.1006 166.639 59.12L167.534 59.2582V60H163.505V59.2582L164.298 59.12C164.409 59.1006 164.501 59.057 164.574 58.9891C164.651 58.9164 164.69 58.8121 164.69 58.6764V55.0109C164.69 54.2109 164.581 53.6145 164.363 53.2218C164.145 52.8242 163.721 52.6255 163.09 52.6255C162.707 52.6255 162.329 52.6836 161.956 52.8C161.582 52.9164 161.238 53.0933 160.923 53.3309V58.6691C160.923 58.7952 160.957 58.897 161.025 58.9745C161.093 59.0473 161.187 59.0958 161.308 59.12L162.108 59.2582ZM171.545 59.1418C171.894 59.1418 172.248 59.0764 172.607 58.9455C172.966 58.8097 173.271 58.6376 173.523 58.4291V56.4873L172.134 56.6109C171.548 56.6594 171.097 56.7927 170.782 57.0109C170.471 57.2291 170.316 57.5612 170.316 58.0073C170.316 58.3661 170.416 58.6448 170.614 58.8436C170.818 59.0424 171.128 59.1418 171.545 59.1418ZM174.905 60.1236C174.556 60.1236 174.27 60.0364 174.047 59.8618C173.824 59.6824 173.669 59.423 173.582 59.0836C173.276 59.4133 172.896 59.6776 172.44 59.8764C171.984 60.0703 171.497 60.1673 170.978 60.1673C170.648 60.1673 170.34 60.1236 170.054 60.0364C169.768 59.9491 169.521 59.823 169.313 59.6582C169.109 59.4885 168.947 59.28 168.825 59.0327C168.709 58.7806 168.651 58.4945 168.651 58.1745C168.651 57.7527 168.748 57.3988 168.942 57.1127C169.136 56.8267 169.385 56.5964 169.691 56.4218C170.001 56.2473 170.345 56.1164 170.723 56.0291C171.107 55.9418 171.482 55.8836 171.851 55.8545L173.523 55.7164V54.7345C173.523 53.9879 173.373 53.4618 173.073 53.1564C172.777 52.8509 172.323 52.6982 171.713 52.6982C171.252 52.6982 170.816 52.7758 170.403 52.9309C169.996 53.0812 169.618 53.3188 169.269 53.6436L168.898 53.2727C168.99 52.9964 169.14 52.7515 169.349 52.5382C169.557 52.32 169.802 52.1382 170.083 51.9927C170.37 51.8473 170.69 51.7382 171.043 51.6655C171.397 51.5879 171.766 51.5491 172.149 51.5491C173.114 51.5491 173.839 51.7939 174.323 52.2836C174.808 52.7685 175.051 53.5127 175.051 54.5164V58.6327C175.051 58.7879 175.085 58.9018 175.153 58.9745C175.225 59.0424 175.33 59.0836 175.465 59.0982L176.302 59.1709V59.8618C176.18 59.9055 175.974 59.9588 175.683 60.0218C175.397 60.0897 175.138 60.1236 174.905 60.1236ZM185.3 60.1673C184.68 60.1673 184.103 60.0994 183.569 59.9636C183.041 59.823 182.648 59.6994 182.391 59.5927V48.6036C182.391 48.4776 182.357 48.3782 182.289 48.3055C182.222 48.2327 182.125 48.1867 181.999 48.1673L180.922 48.0073V47.3382C181.344 47.217 181.809 47.12 182.319 47.0473C182.828 46.9745 183.293 46.9333 183.715 46.9236L183.948 47.1491V52.5091C184.239 52.2085 184.585 51.9661 184.988 51.7818C185.395 51.5976 185.865 51.5055 186.399 51.5055C186.849 51.5055 187.274 51.5806 187.671 51.7309C188.069 51.8812 188.413 52.1164 188.704 52.4364C188.995 52.7515 189.223 53.1588 189.388 53.6582C189.557 54.1576 189.642 54.7564 189.642 55.4545C189.642 56.177 189.548 56.8315 189.359 57.4182C189.169 58 188.893 58.4945 188.529 58.9018C188.166 59.3042 187.712 59.617 187.169 59.84C186.626 60.0582 186.003 60.1673 185.3 60.1673ZM185.417 59.3455C186.231 59.3455 186.854 59.0691 187.286 58.5164C187.722 57.9588 187.948 57.0764 187.962 55.8691C187.982 54.6521 187.79 53.7988 187.388 53.3091C186.985 52.8194 186.445 52.5745 185.766 52.5745C185.402 52.5745 185.07 52.6327 184.769 52.7491C184.469 52.8606 184.195 53.0182 183.948 53.2218V58.9891C184.132 59.0861 184.343 59.1709 184.58 59.2436C184.818 59.3115 185.097 59.3455 185.417 59.3455ZM194.945 52.3345C194.421 52.3345 193.987 52.5164 193.643 52.88C193.299 53.2388 193.076 53.8133 192.974 54.6036H196.632C196.637 54.5503 196.642 54.497 196.647 54.4436C196.652 54.3855 196.654 54.3248 196.654 54.2618C196.654 53.6945 196.506 53.2315 196.21 52.8727C195.915 52.5139 195.493 52.3345 194.945 52.3345ZM198.181 58.1964C197.987 58.783 197.609 59.2606 197.047 59.6291C196.484 59.9927 195.786 60.1745 194.952 60.1745C194.332 60.1745 193.788 60.0703 193.323 59.8618C192.862 59.6485 192.479 59.3552 192.174 58.9818C191.873 58.6085 191.648 58.1624 191.498 57.6436C191.347 57.1248 191.272 56.56 191.272 55.9491C191.272 55.2558 191.364 54.6327 191.548 54.08C191.733 53.5273 191.995 53.0618 192.334 52.6836C192.673 52.3006 193.083 52.0097 193.563 51.8109C194.043 51.6073 194.576 51.5055 195.163 51.5055C195.614 51.5055 196.026 51.5685 196.399 51.6945C196.773 51.8158 197.093 51.9952 197.359 52.2327C197.626 52.4703 197.832 52.7685 197.978 53.1273C198.128 53.4861 198.203 53.9006 198.203 54.3709C198.203 54.5067 198.196 54.6715 198.181 54.8655C198.167 55.0545 198.147 55.2242 198.123 55.3745H192.916C192.916 55.4085 192.916 55.4448 192.916 55.4836C192.916 55.5224 192.916 55.5612 192.916 55.6C192.916 56.2545 192.979 56.8073 193.105 57.2582C193.231 57.7042 193.403 58.063 193.621 58.3345C193.839 58.6012 194.099 58.7927 194.399 58.9091C194.7 59.0255 195.025 59.0836 195.374 59.0836C195.849 59.0836 196.288 58.977 196.69 58.7636C197.098 58.5503 197.42 58.2618 197.658 57.8982L198.181 58.1964ZM207.835 52.3345C207.312 52.3345 206.878 52.5164 206.534 52.88C206.189 53.2388 205.966 53.8133 205.865 54.6036H209.523C209.528 54.5503 209.532 54.497 209.537 54.4436C209.542 54.3855 209.545 54.3248 209.545 54.2618C209.545 53.6945 209.397 53.2315 209.101 52.8727C208.805 52.5139 208.383 52.3345 207.835 52.3345ZM211.072 58.1964C210.878 58.783 210.5 59.2606 209.937 59.6291C209.375 59.9927 208.677 60.1745 207.843 60.1745C207.222 60.1745 206.679 60.0703 206.214 59.8618C205.753 59.6485 205.37 59.3552 205.065 58.9818C204.764 58.6085 204.538 58.1624 204.388 57.6436C204.238 57.1248 204.163 56.56 204.163 55.9491C204.163 55.2558 204.255 54.6327 204.439 54.08C204.623 53.5273 204.885 53.0618 205.225 52.6836C205.564 52.3006 205.974 52.0097 206.454 51.8109C206.934 51.6073 207.467 51.5055 208.054 51.5055C208.505 51.5055 208.917 51.5685 209.29 51.6945C209.663 51.8158 209.983 51.9952 210.25 52.2327C210.517 52.4703 210.723 52.7685 210.868 53.1273C211.018 53.4861 211.094 53.9006 211.094 54.3709C211.094 54.5067 211.086 54.6715 211.072 54.8655C211.057 55.0545 211.038 55.2242 211.014 55.3745H205.806C205.806 55.4085 205.806 55.4448 205.806 55.4836C205.806 55.5224 205.806 55.5612 205.806 55.6C205.806 56.2545 205.869 56.8073 205.995 57.2582C206.122 57.7042 206.294 58.063 206.512 58.3345C206.73 58.6012 206.989 58.7927 207.29 58.9091C207.591 59.0255 207.915 59.0836 208.265 59.0836C208.74 59.0836 209.178 58.977 209.581 58.7636C209.988 58.5503 210.311 58.2618 210.548 57.8982L211.072 58.1964ZM215.53 59.1418C215.879 59.1418 216.233 59.0764 216.592 58.9455C216.95 58.8097 217.256 58.6376 217.508 58.4291V56.4873L216.119 56.6109C215.532 56.6594 215.081 56.7927 214.766 57.0109C214.456 57.2291 214.301 57.5612 214.301 58.0073C214.301 58.3661 214.4 58.6448 214.599 58.8436C214.802 59.0424 215.113 59.1418 215.53 59.1418ZM218.89 60.1236C218.541 60.1236 218.255 60.0364 218.032 59.8618C217.808 59.6824 217.653 59.423 217.566 59.0836C217.261 59.4133 216.88 59.6776 216.424 59.8764C215.968 60.0703 215.481 60.1673 214.962 60.1673C214.633 60.1673 214.325 60.1236 214.039 60.0364C213.753 59.9491 213.505 59.823 213.297 59.6582C213.093 59.4885 212.931 59.28 212.81 59.0327C212.693 58.7806 212.635 58.4945 212.635 58.1745C212.635 57.7527 212.732 57.3988 212.926 57.1127C213.12 56.8267 213.37 56.5964 213.675 56.4218C213.985 56.2473 214.33 56.1164 214.708 56.0291C215.091 55.9418 215.467 55.8836 215.835 55.8545L217.508 55.7164V54.7345C217.508 53.9879 217.358 53.4618 217.057 53.1564C216.761 52.8509 216.308 52.6982 215.697 52.6982C215.236 52.6982 214.8 52.7758 214.388 52.9309C213.981 53.0812 213.602 53.3188 213.253 53.6436L212.882 53.2727C212.975 52.9964 213.125 52.7515 213.333 52.5382C213.542 52.32 213.787 52.1382 214.068 51.9927C214.354 51.8473 214.674 51.7382 215.028 51.6655C215.382 51.5879 215.75 51.5491 216.133 51.5491C217.098 51.5491 217.823 51.7939 218.308 52.2836C218.793 52.7685 219.035 53.5127 219.035 54.5164V58.6327C219.035 58.7879 219.069 58.9018 219.137 58.9745C219.21 59.0424 219.314 59.0836 219.45 59.0982L220.286 59.1709V59.8618C220.165 59.9055 219.959 59.9588 219.668 60.0218C219.382 60.0897 219.122 60.1236 218.89 60.1236ZM221.659 59.5491C221.611 59.1612 221.591 58.7758 221.601 58.3927C221.611 58.0048 221.64 57.6461 221.688 57.3164H222.517L222.801 58.4145C222.84 58.5794 222.883 58.7055 222.932 58.7927C222.98 58.8752 223.058 58.9503 223.165 59.0182C223.291 59.0958 223.485 59.1806 223.746 59.2727C224.013 59.3648 224.319 59.4109 224.663 59.4109C225.172 59.4109 225.557 59.2945 225.819 59.0618C226.086 58.8291 226.219 58.5212 226.219 58.1382C226.219 57.9055 226.168 57.7091 226.066 57.5491C225.97 57.3842 225.826 57.2364 225.637 57.1055C225.448 56.9745 225.213 56.8485 224.932 56.7273C224.651 56.6061 224.328 56.4727 223.965 56.3273C223.315 56.0558 222.782 55.7503 222.365 55.4109C221.948 55.0667 221.739 54.5624 221.739 53.8982C221.739 53.5055 221.814 53.1612 221.965 52.8655C222.115 52.5648 222.323 52.3152 222.59 52.1164C222.862 51.9127 223.186 51.76 223.565 51.6582C223.943 51.5564 224.357 51.5055 224.808 51.5055C225.23 51.5055 225.669 51.5515 226.125 51.6436C226.585 51.7358 226.963 51.8473 227.259 51.9782C227.279 52.3273 227.276 52.6836 227.252 53.0473C227.228 53.4061 227.184 53.76 227.121 54.1091H226.343L226.096 53.12C226.062 52.9842 226.016 52.8703 225.957 52.7782C225.899 52.6861 225.81 52.6036 225.688 52.5309C225.582 52.4679 225.441 52.4097 225.266 52.3564C225.097 52.303 224.896 52.2739 224.663 52.2691C224.241 52.2642 223.887 52.3588 223.601 52.5527C223.32 52.7467 223.179 53.0473 223.179 53.4545C223.179 53.7018 223.233 53.9103 223.339 54.08C223.451 54.2448 223.596 54.3879 223.776 54.5091C223.955 54.6303 224.159 54.737 224.386 54.8291C224.619 54.9212 224.857 55.0133 225.099 55.1055C225.434 55.2315 225.759 55.3697 226.074 55.52C226.389 55.6703 226.665 55.8473 226.903 56.0509C227.145 56.2545 227.339 56.4945 227.485 56.7709C227.635 57.0473 227.71 57.3745 227.71 57.7527C227.71 58.1406 227.63 58.4873 227.47 58.7927C227.315 59.0933 227.094 59.3479 226.808 59.5564C226.527 59.76 226.188 59.9152 225.79 60.0218C225.393 60.1285 224.956 60.1818 224.481 60.1818C223.904 60.1818 223.368 60.1139 222.874 59.9782C222.384 59.8424 221.979 59.6994 221.659 59.5491ZM230.463 63.76C230.196 63.76 229.915 63.7479 229.619 63.7236C229.328 63.6994 229.042 63.6655 228.761 63.6218V62.7055C229.333 62.657 229.84 62.5842 230.281 62.4873C230.722 62.3952 231.112 62.2521 231.452 62.0582C231.791 61.8642 232.089 61.6024 232.346 61.2727C232.608 60.943 232.846 60.5188 233.059 60H232.31L229.67 53.0109C229.631 52.9042 229.575 52.8194 229.503 52.7564C229.43 52.6933 229.34 52.6473 229.234 52.6182L228.63 52.4509V51.7309L232.565 51.7382V52.4582L231.321 52.6691L233.503 58.7273L235.415 52.6691L234.23 52.4509V51.7309H237.394V52.4509L236.797 52.6182C236.681 52.6521 236.586 52.6982 236.514 52.7564C236.446 52.8145 236.392 52.9067 236.354 53.0327L233.874 60.3127C233.466 61.4909 233.006 62.3588 232.492 62.9164C231.983 63.4788 231.306 63.76 230.463 63.76ZM239.92 59.1055C239.92 59.4109 239.82 59.663 239.622 59.8618C239.423 60.0558 239.163 60.1527 238.843 60.1527C238.523 60.1527 238.264 60.0558 238.065 59.8618C237.871 59.663 237.774 59.4109 237.774 59.1055C237.774 58.7952 237.871 58.543 238.065 58.3491C238.264 58.1552 238.523 58.0582 238.843 58.0582C239.163 58.0582 239.423 58.1552 239.622 58.3491C239.82 58.543 239.92 58.7952 239.92 59.1055ZM244.139 59.1055C244.139 59.4109 244.039 59.663 243.84 59.8618C243.642 60.0558 243.382 60.1527 243.062 60.1527C242.742 60.1527 242.483 60.0558 242.284 59.8618C242.09 59.663 241.993 59.4109 241.993 59.1055C241.993 58.7952 242.09 58.543 242.284 58.3491C242.483 58.1552 242.742 58.0582 243.062 58.0582C243.382 58.0582 243.642 58.1552 243.84 58.3491C244.039 58.543 244.139 58.7952 244.139 59.1055ZM248.357 59.1055C248.357 59.4109 248.258 59.663 248.059 59.8618C247.86 60.0558 247.601 60.1527 247.281 60.1527C246.961 60.1527 246.702 60.0558 246.503 59.8618C246.309 59.663 246.212 59.4109 246.212 59.1055C246.212 58.7952 246.309 58.543 246.503 58.3491C246.702 58.1552 246.961 58.0582 247.281 58.0582C247.601 58.0582 247.86 58.1552 248.059 58.3491C248.258 58.543 248.357 58.7952 248.357 59.1055ZM252.576 59.1055C252.576 59.4109 252.477 59.663 252.278 59.8618C252.079 60.0558 251.82 60.1527 251.5 60.1527C251.18 60.1527 250.92 60.0558 250.722 59.8618C250.528 59.663 250.431 59.4109 250.431 59.1055C250.431 58.7952 250.528 58.543 250.722 58.3491C250.92 58.1552 251.18 58.0582 251.5 58.0582C251.82 58.0582 252.079 58.1552 252.278 58.3491C252.477 58.543 252.576 58.7952 252.576 59.1055ZM256.795 59.1055C256.795 59.4109 256.695 59.663 256.497 59.8618C256.298 60.0558 256.038 60.1527 255.718 60.1527C255.398 60.1527 255.139 60.0558 254.94 59.8618C254.746 59.663 254.649 59.4109 254.649 59.1055C254.649 58.7952 254.746 58.543 254.94 58.3491C255.139 58.1552 255.398 58.0582 255.718 58.0582C256.038 58.0582 256.298 58.1552 256.497 58.3491C256.695 58.543 256.795 58.7952 256.795 59.1055Z" fill="black"/>
</svg>
